<svg width="46" height="45" viewBox="0 0 46 45" fill="none" xmlns="http://www.w3.org/2000/svg">
<path d="M3.125 5H0V36.875C0 37.7038 0.32924 38.4987 0.915291 39.0847C1.50134 39.6708 2.2962 40 3.125 40H39.375V36.875H3.125V5Z" fill="#99A2B4"/>
<path d="M45.5015 6.3125H34.564V9.4375H40.1733L28.314 21.2969L21.6108 14.5781C21.4656 14.4317 21.2928 14.3154 21.1024 14.2361C20.912 14.1568 20.7077 14.1159 20.5015 14.1159C20.2952 14.1159 20.091 14.1568 19.9006 14.2361C19.7102 14.3154 19.5373 14.4317 19.3921 14.5781L8.00146 25.9844L10.2046 28.1875L20.5015 17.8906L27.2046 24.6094C27.3498 24.7558 27.5227 24.8721 27.7131 24.9514C27.9035 25.0307 28.1077 25.0716 28.314 25.0716C28.5202 25.0716 28.7245 25.0307 28.9149 24.9514C29.1053 24.8721 29.2781 24.7558 29.4233 24.6094L42.3765 11.6406V17.25H45.5015V6.3125Z" fill="#99A2B4"/>
</svg>
