<svg width="45" height="46" viewBox="0 0 45 46" fill="none" xmlns="http://www.w3.org/2000/svg">
<path d="M44.8931 9.84552C44.9998 10.1024 45.0278 10.3852 44.9737 10.658C44.9197 10.9308 44.7859 11.1815 44.5894 11.3783L38.9644 17.0033C38.8335 17.1338 38.6783 17.2373 38.5074 17.3077C38.3366 17.3782 38.1535 17.4143 37.9687 17.414H30.1134L26.3081 21.2193C26.7371 22.1173 26.8347 23.138 26.5839 24.1011C26.333 25.0642 25.7497 25.9075 24.9371 26.4821C24.1246 27.0567 23.135 27.3256 22.1434 27.2411C21.1518 27.1567 20.222 26.7244 19.5182 26.0207C18.8145 25.317 18.3823 24.3872 18.2978 23.3955C18.2134 22.4039 18.4822 21.4144 19.0568 20.6018C19.6314 19.7892 20.4748 19.206 21.4379 18.9551C22.4009 18.7042 23.4217 18.8019 24.3197 19.2308L28.125 15.4255V7.57021C28.1247 7.38541 28.1608 7.20236 28.2312 7.03153C28.3017 6.86069 28.4051 6.70541 28.5356 6.57458L34.1606 0.94958C34.3573 0.752404 34.6081 0.618067 34.8812 0.563598C35.1543 0.509129 35.4375 0.536981 35.6947 0.643624C35.952 0.750267 36.1718 0.930898 36.3263 1.16262C36.4808 1.39434 36.563 1.66671 36.5625 1.94521V8.97646H43.5937C43.872 8.9765 44.144 9.0591 44.3753 9.2138C44.6066 9.36851 44.7868 9.58835 44.8931 9.84552V9.84552ZM40.1991 11.7861H35.1562C34.7833 11.7861 34.4256 11.638 34.1619 11.3743C33.8982 11.1105 33.75 10.7529 33.75 10.3799V5.3427L30.9375 8.15521V14.6015H37.3866L40.1991 11.789V11.7861ZM43.8947 16.0499C44.6119 18.2493 45 20.6005 45 23.039C44.9984 27.7918 43.4917 32.422 40.6961 36.2657C37.9005 40.1094 33.9595 42.9691 29.4383 44.4347C24.9171 45.9004 20.0479 45.8967 15.529 44.4241C11.01 42.9516 7.07341 40.0859 4.28368 36.2379C1.49395 32.3899 -0.00561814 27.7574 1.58173e-05 23.0046C0.00564978 18.2518 1.51619 13.6228 4.31504 9.78145C7.11389 5.94011 11.0573 3.08374 15.5797 1.62192C20.1021 0.160096 24.9713 0.16792 29.4891 1.64427L27.2166 3.91958C23.0417 2.89019 18.6445 3.25592 14.6971 4.96091C10.7496 6.66589 7.46888 9.61635 5.35618 13.3615C3.24348 17.1066 2.41499 21.4404 2.99729 25.7007C3.5796 29.9611 5.54069 33.9136 8.58091 36.9544C11.6211 39.9952 15.5733 41.9571 19.8335 42.5402C24.0937 43.1234 28.4277 42.2957 32.1732 40.1837C35.9187 38.0718 38.8699 34.7916 40.5756 30.8445C42.2814 26.8974 42.648 22.5003 41.6194 18.3252L43.8947 16.0499V16.0499ZM36.2812 20.2265C36.8853 23.1882 36.5189 26.2658 35.2365 29.0029C33.954 31.7401 31.8237 33.9912 29.1614 35.4225C26.499 36.8539 23.4463 37.3893 20.4558 36.9494C17.4653 36.5094 14.6961 35.1176 12.5587 32.9803C10.4213 30.8429 9.02951 28.0737 8.5896 25.0832C8.14969 22.0926 8.68509 19.0399 10.1164 16.3776C11.5478 13.7152 13.7989 11.585 16.536 10.3025C19.2732 9.02004 22.3508 8.65367 25.3125 9.25771V12.1433C22.9232 11.5269 20.3975 11.7132 18.1245 12.6734C15.8514 13.6336 13.9571 15.3145 12.7334 17.4572C11.5096 19.5999 11.0242 22.0854 11.352 24.5311C11.6798 26.9768 12.8025 29.2468 14.5473 30.9916C16.2921 32.7364 18.5622 33.8592 21.0078 34.187C23.4535 34.5148 25.9391 34.0294 28.0818 32.8056C30.2244 31.5818 31.9053 29.6875 32.8655 27.4145C33.8257 25.1414 34.012 22.6158 33.3956 20.2265H36.2812Z" fill="#99A2B4"/>
</svg>
