<svg width="40" height="40" viewBox="0 0 40 40" fill="none" xmlns="http://www.w3.org/2000/svg">
<path d="M34.6492 11.1498H33.4673V3.84333C33.4672 3.69521 33.4281 3.54975 33.3539 3.42153C33.2797 3.29332 33.1732 3.18687 33.0449 3.11288C32.9165 3.03889 32.771 2.99996 32.6229 3C32.4748 3.00004 32.3293 3.03904 32.201 3.1131C32.0871 3.17642 20.9057 9.55852 15.7393 9.55852H4.7183C3.99771 9.55963 3.30694 9.84638 2.79741 10.3559C2.28787 10.8655 2.00112 11.5562 2 12.2768V21.6474C2.00053 22.3358 2.26225 22.9984 2.73231 23.5013C3.20237 24.0043 3.84576 24.3102 4.53258 24.3572L8.56361 36.826C8.67164 37.2641 8.92056 37.6546 9.27211 37.9375C9.62365 38.2205 10.0584 38.3801 10.5095 38.3919C10.6041 38.3918 10.6987 38.3848 10.7923 38.3708C12.4282 38.2602 14.0168 37.775 15.4353 36.9526C15.7085 36.8251 15.9583 36.6524 16.174 36.4419C16.2064 36.4092 16.236 36.3739 16.2627 36.3363C16.5896 35.8828 16.7655 35.3379 16.7655 34.7788C16.7655 34.2197 16.5896 33.6748 16.2627 33.2213C15.7688 32.4277 14.4265 29.2071 14.3506 24.3572H15.7941C21.2898 24.3657 32.104 30.7393 32.201 30.8238C32.329 30.8976 32.4741 30.9366 32.6219 30.9369C32.7696 30.9371 32.9148 30.8985 33.043 30.825C33.1712 30.7515 33.2779 30.6457 33.3523 30.5181C33.4268 30.3904 33.4664 30.2455 33.4673 30.0977V21.0691H34.6492C35.9646 21.0691 37.2261 20.5466 38.1562 19.6165C39.0863 18.6863 39.6088 17.4248 39.6088 16.1095C39.6088 14.7941 39.0863 13.5326 38.1562 12.6025C37.2261 11.6724 35.9646 11.1498 34.6492 11.1498ZM14.8106 34.1414L14.836 34.1794C14.955 34.3391 15.0227 34.5311 15.0303 34.73C15.0378 34.929 14.9848 35.1256 14.8782 35.2938C14.7879 35.3622 14.6902 35.4203 14.5869 35.4668L14.4941 35.5217C14.1648 35.7412 12.9112 36.4714 10.5728 36.6951H10.5137C10.366 36.7204 10.214 36.5769 10.1465 36.3321L6.31805 24.3657H12.6495C12.717 29.1143 13.9749 32.7949 14.8317 34.1414H14.8106ZM14.9119 22.6773H4.7183C4.44515 22.6773 4.18319 22.5688 3.99004 22.3756C3.7969 22.1825 3.68839 21.9205 3.68839 21.6474V12.2768C3.68839 12.0037 3.7969 11.7417 3.99004 11.5486C4.18319 11.3554 4.44515 11.2469 4.7183 11.2469H14.933L14.9119 22.6773ZM31.7789 11.1498V28.6246C28.8243 26.9827 21.4882 23.1374 16.5834 22.7153V11.2047C21.2603 10.7531 28.7778 6.89931 31.7789 5.29534V11.1498ZM34.6281 19.3807H33.4673V12.8382H34.6492C35.5168 12.8382 36.3488 13.1829 36.9623 13.7963C37.5758 14.4098 37.9204 15.2419 37.9204 16.1095C37.9204 16.977 37.5758 17.8091 36.9623 18.4226C36.3488 19.0361 35.5168 19.3807 34.6492 19.3807H34.6281Z" fill="#99A2B4"/>
</svg>
