<svg width="40" height="40" viewBox="0 0 40 40" fill="none" xmlns="http://www.w3.org/2000/svg">
<path d="M5.75 28.75C5.75 28.3522 5.90804 27.9706 6.18934 27.6893C6.47064 27.408 6.85218 27.25 7.25 27.25H32.75C33.1478 27.25 33.5294 27.408 33.8107 27.6893C34.092 27.9706 34.25 28.3522 34.25 28.75V34H5.75V28.75Z" stroke="#99A2B4" stroke-width="2" stroke-linecap="round" stroke-linejoin="round"/>
<path d="M33.5 16H27.5L23 11.5L27.5 7H33.5" stroke="#99A2B4" stroke-width="2" stroke-linecap="round" stroke-linejoin="round"/>
<path d="M8 14.5C9.65685 14.5 11 13.1569 11 11.5C11 9.84315 9.65685 8.5 8 8.5C6.34315 8.5 5 9.84315 5 11.5C5 13.1569 6.34315 14.5 8 14.5Z" stroke="#99A2B4" stroke-width="2"/>
<path d="M11 11.5H23" stroke="#99A2B4" stroke-width="2" stroke-linecap="round" stroke-linejoin="round"/>
<path d="M9.5 14.5L15.5 27.25" stroke="#99A2B4" stroke-width="2" stroke-linecap="round" stroke-linejoin="round"/>
</svg>
