<svg width="40" height="40" viewBox="0 0 40 40" fill="none" xmlns="http://www.w3.org/2000/svg">
<path d="M9.67493 26.7745L9.25277 26.3736V26.9558V29.5935C9.25277 30.2648 9.56667 30.9229 10.1109 31.5221C10.6555 32.1217 11.4427 32.6765 12.426 33.1498C14.3933 34.0968 17.181 34.7344 20.4992 34.7344C23.8183 34.7344 26.6063 34.0968 28.5738 33.1498C29.5572 32.6765 30.3444 32.1217 30.889 31.5221C31.4333 30.9229 31.7472 30.2648 31.7472 29.5935V26.9558V26.3736L31.3251 26.7745C29.2934 28.7041 25.2755 30.022 20.4992 30.022C15.7238 30.022 11.7066 28.7041 9.67493 26.7745ZM9.67493 21.045L9.25277 20.6441V21.2263V23.864C9.25277 24.5353 9.56667 25.1934 10.1109 25.7926C10.6555 26.3922 11.4427 26.947 12.426 27.4204C14.3933 28.3673 17.181 29.0049 20.4992 29.0049C23.8183 29.0049 26.6063 28.3673 28.5738 27.4204C29.5572 26.9471 30.3444 26.3922 30.889 25.7926C31.4333 25.1934 31.7472 24.5353 31.7472 23.864V21.2263V20.6441L31.3251 21.045C29.2934 22.9746 25.2755 24.2925 20.4992 24.2925C15.7238 24.2925 11.7066 22.9746 9.67493 21.045ZM9.67493 15.3171L9.25277 14.9161V15.4983V18.1353C9.25277 18.8065 9.56667 19.4647 10.1109 20.0639C10.6555 20.6634 11.4427 21.2183 12.426 21.6916C14.3933 22.6386 17.181 23.2762 20.4992 23.2762C23.8183 23.2762 26.6063 22.6386 28.5738 21.6916C29.5572 21.2183 30.3444 20.6635 30.889 20.0639C31.4333 19.4647 31.7472 18.8066 31.7472 18.1353V15.4983V14.9161L31.3251 15.3171C29.2934 17.2466 25.2755 18.5646 20.4992 18.5646C15.7238 18.5646 11.7066 17.2466 9.67493 15.3171ZM8.25 12.4073C8.25 10.7508 9.51887 9.21493 11.7353 8.07876C13.941 6.94809 17.0248 6.25 20.4992 6.25C23.9741 6.25 27.0582 6.94828 29.2642 8.07913C31.481 9.2155 32.75 10.7516 32.75 12.408V29.5927C32.75 31.2492 31.481 32.7851 29.2642 33.9212C27.0582 35.0519 23.9741 35.75 20.4992 35.75C17.0248 35.75 13.941 35.0519 11.7353 33.9212C9.51887 32.7851 8.25 31.2492 8.25 29.5927V12.4073ZM9.25277 12.408C9.25277 13.0793 9.56667 13.7375 10.1109 14.3367C10.6555 14.9362 11.4427 15.4911 12.426 15.9644C14.3933 16.9114 17.181 17.549 20.4992 17.549C23.8183 17.549 26.6063 16.9114 28.5738 15.9644C29.5572 15.4911 30.3444 14.9362 30.889 14.3367C31.4333 13.7375 31.7472 13.0793 31.7472 12.408C31.7472 11.7366 31.4333 11.0783 30.8889 10.4791C30.3443 9.87949 29.557 9.32464 28.5735 8.85138C26.6059 7.9045 23.8179 7.2671 20.4992 7.2671C17.181 7.2671 14.3933 7.9045 12.426 8.85139C11.4427 9.32465 10.6555 9.8795 10.1109 10.4791C9.56665 11.0783 9.25277 11.7366 9.25277 12.408Z" fill="#99A2B4" stroke="#99A2B4" stroke-width="0.5"/>
</svg>
