<svg width="40" height="40" viewBox="0 0 40 40" fill="none" xmlns="http://www.w3.org/2000/svg">
<path d="M36.9169 10.2444C36.9998 10.4442 37.0216 10.6642 36.9796 10.8764C36.9375 11.0886 36.8335 11.2835 36.6806 11.4366L32.3056 15.8116C32.2039 15.9131 32.0831 15.9936 31.9502 16.0484C31.8173 16.1032 31.675 16.1312 31.5312 16.131H25.4216L22.4619 19.0907C22.7955 19.7891 22.8715 20.5831 22.6763 21.3321C22.4812 22.0812 22.0275 22.7371 21.3956 23.184C20.7636 23.6309 19.9939 23.84 19.2227 23.7744C18.4514 23.7087 17.7282 23.3725 17.1809 22.8251C16.6335 22.2778 16.2973 21.5546 16.2316 20.7833C16.166 20.0121 16.3751 19.2424 16.822 18.6104C17.2689 17.9784 17.9248 17.5248 18.6739 17.3297C19.4229 17.1345 20.2169 17.2105 20.9153 17.5441L23.875 14.5844V8.47474C23.8747 8.33101 23.9028 8.18864 23.9576 8.05577C24.0124 7.9229 24.0929 7.80213 24.1944 7.70037L28.5694 3.32537C28.7223 3.17201 28.9174 3.06752 29.1298 3.02516C29.3423 2.98279 29.5625 3.00446 29.7626 3.0874C29.9627 3.17035 30.1336 3.31084 30.2538 3.49106C30.3739 3.67129 30.4379 3.88314 30.4375 4.09974V9.56849H35.9062C36.1227 9.56853 36.3342 9.63277 36.5141 9.7531C36.694 9.87342 36.8342 10.0444 36.9169 10.2444V10.2444ZM33.2659 11.7538H29.3437C29.0537 11.7538 28.7755 11.6386 28.5703 11.4335C28.3652 11.2283 28.25 10.9501 28.25 10.6601V6.74224L26.0625 8.92974V13.9435H31.0784L33.2659 11.756V11.7538ZM36.1403 15.0701C36.6981 16.7807 37 18.6094 37 20.506C36.9987 24.2026 35.8269 27.8039 33.6525 30.7935C31.4782 33.783 28.413 36.0072 24.8965 37.1472C21.38 38.2871 17.5928 38.2842 14.0781 37.1389C10.5633 35.9936 7.50154 33.7647 5.33175 30.7718C3.16196 27.779 1.99563 24.1759 2.00001 20.4793C2.00439 16.7826 3.17926 13.1823 5.35614 10.1946C7.53302 7.20689 10.6001 4.98527 14.1175 3.8483C17.635 2.71132 21.4222 2.71741 24.9359 3.86568L23.1684 5.63537C19.9213 4.83473 16.5013 5.11919 13.4311 6.44529C10.3608 7.77138 7.80913 10.0662 6.16592 12.9791C4.52271 15.8919 3.87832 19.2627 4.33123 22.5763C4.78414 25.8899 6.30943 28.964 8.67404 31.3291C11.0387 33.6942 14.1125 35.2201 17.426 35.6736C20.7395 36.1272 24.1104 35.4835 27.0236 33.8408C29.9368 32.1982 32.2321 29.647 33.5588 26.577C34.8855 23.507 35.1706 20.087 34.3706 16.8397L36.1403 15.0701V15.0701ZM30.2187 18.3185C30.6885 20.6221 30.4036 23.0157 29.4061 25.1446C28.4087 27.2735 26.7518 29.0244 24.6811 30.1377C22.6103 31.2509 20.236 31.6673 17.9101 31.3252C15.5841 30.983 13.4303 29.9005 11.7679 28.2381C10.1055 26.5757 9.02295 24.4219 8.6808 22.0959C8.33865 19.77 8.75507 17.3956 9.86833 15.3249C10.9816 13.2542 12.7324 11.5973 14.8614 10.5999C16.9903 9.60239 19.3839 9.31744 21.6875 9.78724V12.0316C19.8292 11.5522 17.8647 11.6971 16.0968 12.4439C14.3289 13.1907 12.8556 14.4981 11.9037 16.1646C10.9519 17.8311 10.5744 19.7644 10.8293 21.6666C11.0843 23.5687 11.9575 25.3343 13.3146 26.6914C14.6717 28.0485 16.4373 28.9217 18.3394 29.1767C20.2416 29.4316 22.1749 29.0541 23.8414 28.1023C25.5079 27.1504 26.8153 25.6771 27.5621 23.9092C28.3089 22.1413 28.4538 20.1768 27.9744 18.3185H30.2187Z" fill="#99A2B4"/>
</svg>
