<svg width="45" height="65" viewBox="0 0 45 65" fill="none" xmlns="http://www.w3.org/2000/svg">
<path fill-rule="evenodd" clip-rule="evenodd" d="M11.2314 10.1915C8.98091 12.9837 8.03606 16.5447 8.03606 19.4235V27.6351H3.34375V19.4235C3.34375 15.6549 4.54954 11.0044 7.57794 7.24693C10.6745 3.40494 15.5568 0.654297 22.504 0.654297C34.7096 0.654297 40.8822 11.081 40.8822 19.4235V27.6351H36.1899V19.4235C36.1899 12.9071 31.4138 5.3466 22.504 5.3466C16.9384 5.3466 13.4137 7.48378 11.2314 10.1915Z" fill="white"/>
<path d="M40.0987 26.4629H4.90635C2.74677 26.4629 0.996094 28.2136 0.996094 30.3731V44.4501C1.25678 50.9672 6.00122 64.0014 22.8935 64.0014C39.7858 64.0014 44.0089 50.9672 44.0089 44.4501V30.3731C44.0089 28.2136 42.2582 26.4629 40.0987 26.4629Z" fill="#FFCC00"/>
<path fill-rule="evenodd" clip-rule="evenodd" d="M23.6758 63.9899C39.9169 63.5939 44.0091 50.8634 44.0091 44.4481V30.3712C44.0091 28.2116 42.2584 26.4609 40.0989 26.4609H23.6758V63.9899Z" fill="#FDB700"/>
<path fill-rule="evenodd" clip-rule="evenodd" d="M25.2384 44.8429C27.0771 44.0776 28.3698 42.2636 28.3698 40.1478C28.3698 37.3403 26.0939 35.0645 23.2865 35.0645C20.479 35.0645 18.2031 37.3403 18.2031 40.1478C18.2031 42.2612 19.4928 44.0734 21.3281 44.8402V49.5319C21.3281 50.6116 22.2035 51.487 23.2833 51.487C24.363 51.487 25.2384 50.6116 25.2384 49.5318V44.8429Z" fill="#695DD8"/>
</svg>
