<svg width="87" height="65" viewBox="0 0 87 65" fill="none" xmlns="http://www.w3.org/2000/svg">
<g clip-path="url(#clip0_2:1672)">
<rect y="4.99927" width="65" height="65" fill="white"/>
<path d="M10 18.7701C10 16.9744 10.7134 15.2522 11.9831 13.9824C13.2529 12.7126 14.9751 11.9993 16.7708 11.9993H44.8958C46.6916 11.9993 48.4138 12.7126 49.6835 13.9824C50.9533 15.2522 51.6667 16.9744 51.6667 18.7701V44.0388C51.4167 44.2055 51.1771 44.4014 50.9563 44.6222L48.5417 47.0368V18.7701C48.5417 17.8032 48.1576 16.8758 47.4738 16.1921C46.7901 15.5084 45.8628 15.1243 44.8958 15.1243H16.7708C15.8039 15.1243 14.8766 15.5084 14.1928 16.1921C13.5091 16.8758 13.125 17.8032 13.125 18.7701V55.2284C13.125 57.2409 14.7583 58.8743 16.7708 58.8743H33.5792L36.7042 61.9993H16.7708C14.9751 61.9993 13.2529 61.2859 11.9831 60.0161C10.7134 58.7464 10 57.0242 10 55.2284V18.7701Z" fill="#99A2B4"/>
<path d="M23.5417 26.0617C23.5417 26.7524 23.2673 27.4147 22.7789 27.9031C22.2905 28.3915 21.6282 28.6659 20.9375 28.6659C20.2468 28.6659 19.5844 28.3915 19.0961 27.9031C18.6077 27.4147 18.3333 26.7524 18.3333 26.0617C18.3333 25.371 18.6077 24.7086 19.0961 24.2203C19.5844 23.7319 20.2468 23.4575 20.9375 23.4575C21.6282 23.4575 22.2905 23.7319 22.7789 24.2203C23.2673 24.7086 23.5417 25.371 23.5417 26.0617Z" fill="#99A2B4"/>
<path d="M20.9375 39.6034C21.6282 39.6034 22.2905 39.329 22.7789 38.8406C23.2673 38.3522 23.5417 37.6899 23.5417 36.9992C23.5417 36.3085 23.2673 35.6461 22.7789 35.1578C22.2905 34.6694 21.6282 34.395 20.9375 34.395C20.2468 34.395 19.5844 34.6694 19.0961 35.1578C18.6077 35.6461 18.3333 36.3085 18.3333 36.9992C18.3333 37.6899 18.6077 38.3522 19.0961 38.8406C19.5844 39.329 20.2468 39.6034 20.9375 39.6034V39.6034Z" fill="#99A2B4"/>
<path d="M20.9375 50.5409C21.6282 50.5409 22.2905 50.2665 22.7789 49.7781C23.2673 49.2897 23.5417 48.6274 23.5417 47.9367C23.5417 47.246 23.2673 46.5836 22.7789 46.0953C22.2905 45.6069 21.6282 45.3325 20.9375 45.3325C20.2468 45.3325 19.5844 45.6069 19.0961 46.0953C18.6077 46.5836 18.3333 47.246 18.3333 47.9367C18.3333 48.6274 18.6077 49.2897 19.0961 49.7781C19.5844 50.2665 20.2468 50.5409 20.9375 50.5409V50.5409Z" fill="#99A2B4"/>
<path d="M28.2292 24.4993C27.8148 24.4993 27.4173 24.6639 27.1243 24.9569C26.8313 25.2499 26.6667 25.6474 26.6667 26.0618C26.6667 26.4762 26.8313 26.8736 27.1243 27.1666C27.4173 27.4596 27.8148 27.6243 28.2292 27.6243H41.7708C42.1852 27.6243 42.5827 27.4596 42.8757 27.1666C43.1687 26.8736 43.3333 26.4762 43.3333 26.0618C43.3333 25.6474 43.1687 25.2499 42.8757 24.9569C42.5827 24.6639 42.1852 24.4993 41.7708 24.4993H28.2292Z" fill="#99A2B4"/>
<path d="M26.6667 36.9993C26.6667 36.5849 26.8313 36.1874 27.1243 35.8944C27.4173 35.6014 27.8148 35.4368 28.2292 35.4368H41.7708C42.1852 35.4368 42.5827 35.6014 42.8757 35.8944C43.1687 36.1874 43.3333 36.5849 43.3333 36.9993C43.3333 37.4137 43.1687 37.8111 42.8757 38.1041C42.5827 38.3971 42.1852 38.5618 41.7708 38.5618H28.2292C27.8148 38.5618 27.4173 38.3971 27.1243 38.1041C26.8313 37.8111 26.6667 37.4137 26.6667 36.9993V36.9993Z" fill="#99A2B4"/>
<path d="M28.2292 46.3743C27.8148 46.3743 27.4173 46.5389 27.1243 46.8319C26.8313 47.1249 26.6667 47.5224 26.6667 47.9368C26.6667 48.3512 26.8313 48.7486 27.1243 49.0416C27.4173 49.3346 27.8148 49.4993 28.2292 49.4993H41.7708C42.1852 49.4993 42.5827 49.3346 42.8757 49.0416C43.1687 48.7486 43.3333 48.3512 43.3333 47.9368C43.3333 47.5224 43.1687 47.1249 42.8757 46.8319C42.5827 46.5389 42.1852 46.3743 41.7708 46.3743H28.2292Z" fill="#99A2B4"/>
<path d="M55.3725 49.0409L42.8725 61.5409C42.5796 61.8335 42.1824 61.9979 41.7684 61.9979C41.3543 61.9979 40.9572 61.8335 40.6642 61.5409L34.4184 55.2951C34.1424 54.9989 33.9921 54.6071 33.9993 54.2023C34.0064 53.7975 34.1704 53.4113 34.4567 53.125C34.7429 52.8387 35.1292 52.6748 35.534 52.6676C35.9388 52.6605 36.3305 52.8107 36.6267 53.0867L41.7684 58.2263L53.1642 46.8305C53.3084 46.6813 53.4809 46.5624 53.6716 46.4806C53.8622 46.3988 54.0673 46.3558 54.2747 46.3541C54.4822 46.3524 54.6879 46.392 54.8799 46.4706C55.0719 46.5493 55.2463 46.6654 55.393 46.8122C55.5396 46.9589 55.6555 47.1335 55.734 47.3255C55.8125 47.5176 55.8519 47.7233 55.85 47.9308C55.8481 48.1383 55.8049 48.3433 55.7229 48.5339C55.641 48.7245 55.5218 48.8968 55.3725 49.0409V49.0409Z" fill="#99A2B4"/>
<path fill-rule="evenodd" clip-rule="evenodd" d="M65.5416 21.6571C63.4291 18.6322 59.1688 17.8756 56.144 19.9881C53.1191 22.1006 52.3624 26.3609 54.4749 29.3858C56.5875 32.4107 60.8477 33.1673 63.8726 31.0548C66.8975 28.9423 67.6541 24.682 65.5416 21.6571ZM56.0243 28.3038C54.4785 26.0904 55.0126 23.0832 57.226 21.5375C59.4393 19.9917 62.4466 20.5258 63.9923 22.7391C65.538 24.9525 65.0039 27.9597 62.7906 29.5055C60.5773 31.0512 57.57 30.5171 56.0243 28.3038Z" fill="#99A2B4"/>
<path d="M73.0581 39.0171L68.1888 42.4177L63.9754 39.2136C63.3559 39.4267 62.6111 39.6176 61.8886 39.6832L60.7145 42.0173L59.5321 40.6195L59.92 39.8506L60.6367 38.3622L60.7773 37.9347C62.0233 37.8329 63.2915 37.6057 64.479 37.1057L64.8104 37.4231L66.232 38.5157L68.3387 40.1178L70.9947 38.2629L70.1423 35.7849L69.6575 34.1478L69.4736 33.7274C70.2782 32.8362 70.9282 31.7237 71.4528 30.589L71.851 30.5305L73.4144 30.0972L76.0539 29.7905L76.6102 26.6579L74.2377 25.461L72.7493 24.7443L72.3957 24.5522C72.3454 23.38 72.1182 22.1117 71.6182 20.9243L71.9356 20.5929L72.9544 19.2228L74.608 17.1899L72.7531 14.5339L70.2236 15.3126L68.5865 15.7973L68.1661 15.9812C67.2234 15.1028 66.1109 14.4529 64.9762 13.9282L64.9176 13.5301L64.7572 11.8859L64.4505 9.24633L61.3179 8.68999L60.121 11.0625L59.3305 12.6024L59.293 13.1774C58.047 13.2793 56.7788 13.5064 55.5913 14.0064L55.2599 13.6891L53.9636 12.6187L53.131 11.9855L52.4531 9.02617L55.9919 11.751C56.6114 11.5379 57.3562 11.347 58.0787 11.2815L60.3764 6.71323L66.2657 7.75914L66.8499 12.8392C67.4319 13.2011 68.0877 13.5114 68.6474 13.9986L73.5073 12.4705L76.9079 17.3398L73.7776 21.5017C73.9907 22.1212 74.1816 22.866 74.2471 23.5885L78.8154 25.8862L77.7695 31.7754L72.6894 32.3597C72.3275 32.9417 72.0172 33.5975 71.53 34.1572L73.0581 39.0171Z" fill="#99A2B4"/>
</g>
<defs>
<clipPath id="clip0_2:1672">
<rect width="87" height="65" fill="white"/>
</clipPath>
</defs>
</svg>
