<svg width="65" height="65" viewBox="0 0 65 65" fill="none" xmlns="http://www.w3.org/2000/svg">
<rect width="65" height="65" fill="white"/>
<path d="M31.0743 34.4605C27.1733 34.4554 23.4128 33.004 20.52 30.3868C17.6272 27.7697 15.8076 24.1728 15.4132 20.2918V20.2918C15.0977 17.1301 15.7472 13.9469 17.2761 11.1615C18.8049 8.37607 21.1415 6.11893 23.9781 4.68726C26.8147 3.2556 30.0183 2.71653 33.1673 3.14103C36.3162 3.56553 39.2628 4.9337 41.619 7.0654C43.9752 9.1971 45.6307 11.9924 46.3674 15.0832C47.104 18.1741 46.8874 21.4155 45.746 24.3809C44.6047 27.3462 42.592 29.8964 39.9731 31.6956C37.3542 33.4949 34.2517 34.4588 31.0743 34.4605V34.4605ZM17.2556 20.1075C17.5274 22.8434 18.6045 25.4373 20.3508 27.5608C22.0971 29.6844 24.434 31.2423 27.0659 32.0373C29.6978 32.8324 32.5064 32.8289 35.1363 32.0273C37.7662 31.2257 40.0993 29.6621 41.8403 27.5342C43.5813 25.4063 44.652 22.8098 44.9169 20.0732C45.1818 17.3366 44.6291 14.583 43.3286 12.1606C42.0281 9.7383 40.0384 7.75613 37.6111 6.46494C35.1838 5.17376 32.428 4.63157 29.6925 4.90699C26.0305 5.28057 22.6657 7.08987 20.3348 9.93878C18.0039 12.7877 16.8967 16.4441 17.2556 20.1075V20.1075Z" fill="#99A2B4"/>
<path d="M31.1952 25.8798C28.7954 25.8798 26.3633 24.4519 26.3633 21.7342C26.3633 21.4899 26.4603 21.2556 26.6331 21.0828C26.8059 20.9101 27.0402 20.813 27.2845 20.813C27.5289 20.813 27.7632 20.9101 27.9359 21.0828C28.1087 21.2556 28.2058 21.4899 28.2058 21.7342C28.2058 23.4339 29.993 24.0374 31.1952 24.0374C31.9011 24.0549 32.5945 23.8485 33.1759 23.4478C33.4282 23.2605 33.631 23.0146 33.7666 22.7312C33.9023 22.4479 33.9667 22.1357 33.9543 21.8218C33.9543 20.707 32.8212 20.1865 30.9511 19.4588C29.081 18.731 26.8515 17.8604 26.8515 15.4882C26.8515 12.9087 29.0763 11.5591 31.2781 11.5591C33.4799 11.5591 35.5896 12.8626 35.5896 15.35C35.5896 15.5943 35.4925 15.8287 35.3197 16.0014C35.147 16.1742 34.9126 16.2713 34.6683 16.2713C34.424 16.2713 34.1897 16.1742 34.0169 16.0014C33.8441 15.8287 33.7471 15.5943 33.7471 15.35C33.7471 13.8115 32.1948 13.4016 31.2781 13.4016C30.3615 13.4016 28.694 13.8622 28.694 15.4882C28.694 16.5292 29.7995 17.0359 31.619 17.7452C33.4384 18.4546 35.7968 19.3712 35.7968 21.8264C35.8095 22.4227 35.6808 23.0136 35.4215 23.5508C35.1621 24.088 34.7793 24.5562 34.3044 24.9171C33.3996 25.5663 32.3085 25.9042 31.1952 25.8798V25.8798Z" fill="#99A2B4"/>
<path d="M31.0743 27.7366C30.83 27.7366 30.5957 27.6395 30.4229 27.4667C30.2501 27.294 30.1531 27.0597 30.1531 26.8153V25.1571C30.1531 24.9128 30.2501 24.6784 30.4229 24.5057C30.5957 24.3329 30.83 24.2358 31.0743 24.2358C31.3187 24.2358 31.553 24.3329 31.7257 24.5057C31.8985 24.6784 31.9956 24.9128 31.9956 25.1571V26.8153C31.9956 27.0597 31.8985 27.294 31.7257 27.4667C31.553 27.6395 31.3187 27.7366 31.0743 27.7366Z" fill="#99A2B4"/>
<path d="M31.0743 13.2669C30.83 13.2669 30.5957 13.1698 30.4229 12.9971C30.2501 12.8243 30.1531 12.59 30.1531 12.3456V10.6229C30.1531 10.3786 30.2501 10.1443 30.4229 9.97149C30.5957 9.79872 30.83 9.70166 31.0743 9.70166C31.3187 9.70166 31.553 9.79872 31.7257 9.97149C31.8985 10.1443 31.9956 10.3786 31.9956 10.6229V12.341C31.9962 12.4624 31.9728 12.5827 31.9268 12.695C31.8807 12.8073 31.813 12.9094 31.7274 12.9954C31.6418 13.0815 31.54 13.1497 31.4279 13.1963C31.3159 13.2429 31.1957 13.2669 31.0743 13.2669Z" fill="#99A2B4"/>
<path d="M43.9432 55.319C42.1513 55.319 39.8713 54.6649 37.6372 54.02C36.489 53.6407 35.31 53.3617 34.1135 53.1863C30.3049 53.0534 26.4932 53.3345 22.7453 54.0246C22.5085 54.0663 22.2648 54.0139 22.0662 53.8784C21.8676 53.7428 21.7298 53.5351 21.6823 53.2994C21.6348 53.0636 21.6813 52.8187 21.8119 52.6169C21.9426 52.415 22.1469 52.2722 22.3814 52.219C26.2783 51.4908 30.244 51.1973 34.2056 51.3438C35.5451 51.5227 36.8641 51.8312 38.1439 52.265C40.3872 52.9099 44.565 54.1075 45.279 53.1126C45.5842 52.716 45.7833 52.2483 45.8574 51.7534C45.9316 51.2585 45.8783 50.7529 45.7027 50.2843C45.0394 48.5432 42.7778 47.1567 39.3323 46.3783C37.3889 45.933 35.4151 45.6328 33.4271 45.4801C32.2157 45.3649 30.8431 45.2359 28.9914 44.9872C28.3327 44.8997 27.6095 44.4943 26.5454 43.8771C22.6673 41.5679 18.3833 40.0216 13.9244 39.3215C7.3513 38.1884 4.56453 39.3952 4.5415 39.409C4.4319 39.4646 4.3123 39.4976 4.18973 39.5063C4.06717 39.5149 3.94411 39.4989 3.82782 39.4592C3.71152 39.4196 3.60433 39.3571 3.51256 39.2754C3.42079 39.1937 3.34628 39.0945 3.29343 38.9835C3.24058 38.8726 3.21046 38.7522 3.20483 38.6295C3.19919 38.5068 3.21817 38.3841 3.26065 38.2688C3.30312 38.1535 3.36822 38.0479 3.45213 37.9582C3.53604 37.8684 3.63706 37.7963 3.74923 37.7462C3.87821 37.6863 6.97359 36.2584 14.2376 37.5067C18.9065 38.2408 23.3921 39.8606 27.4529 42.2787C28.0101 42.6429 28.6084 42.9398 29.2355 43.1631C31.0503 43.4073 32.4092 43.5316 33.6022 43.6237C35.6687 43.7799 37.7209 44.0878 39.7423 44.545C44.9565 45.7242 46.799 47.9444 47.4255 49.6118C47.7085 50.3644 47.7978 51.176 47.6851 51.972C47.5724 52.7681 47.2614 53.523 46.7806 54.1674C46.1772 55.0288 45.173 55.319 43.9432 55.319Z" fill="#99A2B4"/>
<path d="M30.9401 61.9353C25.6936 61.9353 4.38524 51.0554 3.47782 50.5948C3.26779 50.4794 3.11096 50.2868 3.04061 50.0578C2.97025 49.8287 2.99191 49.5813 3.10098 49.3679C3.21005 49.1546 3.39795 48.9921 3.62482 48.915C3.85169 48.8379 4.09967 48.8522 4.31615 48.955C10.3687 52.0503 26.9281 60.0928 30.9401 60.0928C36.3386 60.0928 58.0662 44.8186 59.3329 41.8752C59.4656 41.6399 59.5265 41.3709 59.508 41.1013C59.3928 40.9954 58.4117 40.7605 55.823 41.7554C54.3535 42.3228 52.9609 43.0717 51.6774 43.9848C50.2955 44.8785 48.453 46.1037 44.9661 47.9784C44.7511 48.0945 44.4988 48.1204 44.2647 48.0504C44.0306 47.9804 43.8339 47.8203 43.7178 47.6053C43.6017 47.3903 43.5759 47.138 43.6458 46.9039C43.7158 46.6698 43.8759 46.4731 44.0909 46.357C47.4949 44.5146 49.3282 43.3215 50.664 42.4418C52.0541 41.4562 53.5611 40.647 55.1505 40.0327C57.9925 38.9364 59.9041 38.8719 60.8299 39.83C61.2629 40.2907 61.6452 41.1244 61.0142 42.5938C59.5033 46.1406 37.025 61.9353 30.9401 61.9353Z" fill="#99A2B4"/>
<path d="M40.1919 46.5351C39.983 46.5311 39.7817 46.4562 39.621 46.3227C39.4603 46.1893 39.3497 46.0052 39.3074 45.8006C39.2651 45.596 39.2936 45.3831 39.3882 45.1969C39.4828 45.0106 39.6379 44.862 39.828 44.7755C39.8741 44.7755 44.2546 42.758 45.4246 42.1223C46.1938 41.7032 47.1335 41.1228 48.1284 40.5055C49.6346 39.5843 51.3528 38.511 53.0294 37.6681C56.2123 36.079 59.5058 36.8206 60.9475 37.7096C61.209 37.8582 61.4337 38.0637 61.6051 38.3109C61.7766 38.558 61.8903 38.8405 61.9379 39.1375C62.1129 40.2706 61.2884 41.2886 61.1226 41.4821C60.9559 41.6362 60.7381 41.7233 60.5111 41.7268C60.2841 41.7302 60.0638 41.6497 59.8925 41.5007C59.7212 41.3516 59.611 41.1446 59.583 40.9193C59.555 40.694 59.6111 40.4663 59.7407 40.2798C59.9585 40.0392 60.0955 39.7364 60.1322 39.4139C60.1322 39.4139 60.1322 39.3494 59.9941 39.2711C58.9484 38.6262 56.3597 38.0642 53.8678 39.3125C52.2556 40.1186 50.5881 41.155 49.1141 42.0763C48.0962 42.7073 47.1381 43.3015 46.3182 43.7483C45.0929 44.4116 40.7907 46.3785 40.6064 46.4614C40.4758 46.5176 40.3339 46.5429 40.1919 46.5351Z" fill="#99A2B4"/>
<path d="M35.8542 45.7261C35.6099 45.7347 35.3722 45.6458 35.1933 45.4791C35.0145 45.3124 34.9093 45.0814 34.9007 44.8371C34.8922 44.5928 34.981 44.3551 35.1477 44.1762C35.3145 43.9974 35.5454 43.8922 35.7897 43.8836C36.9339 43.3761 38.0461 42.7993 39.12 42.1563C42.6484 40.1894 45.2509 38.7983 46.6604 38.7983C47.7935 38.7983 48.5812 39.1116 49.0004 39.7196C49.1538 39.9532 49.2496 40.2199 49.28 40.4977C49.3104 40.7756 49.2746 41.0566 49.1754 41.3179L47.4619 40.6362C47.4603 40.65 47.4603 40.6639 47.4619 40.6777C47.4664 40.714 47.4826 40.748 47.508 40.7744C47.2501 40.6511 46.9627 40.6032 46.6788 40.6362C45.6378 40.6362 42.1325 42.5939 40.0367 43.7592C37.365 45.2471 36.4576 45.7261 35.8542 45.7261Z" fill="#99A2B4"/>
</svg>
