<svg width="65" height="65" viewBox="0 0 65 65" fill="none" xmlns="http://www.w3.org/2000/svg">
<rect width="65" height="65" fill="white"/>
<path d="M9.49744 18.9032L8.94543 22.1036C8.90822 22.3083 8.99505 22.5192 9.16251 22.6432C9.32998 22.7673 9.55946 22.7859 9.74553 22.6866L12.6234 21.1733L15.4951 22.6866C15.5757 22.7301 15.6626 22.7487 15.7556 22.7487C15.8672 22.7487 15.9851 22.7114 16.0781 22.6432C16.2456 22.5192 16.3324 22.3083 16.2952 22.1036L15.7494 18.9032L18.0753 16.6332C18.2241 16.4843 18.28 16.2672 18.2179 16.0687C18.1497 15.8703 17.9822 15.7214 17.7714 15.6904L14.5586 15.2252L13.1196 12.3101C13.0266 12.124 12.8343 12 12.6234 12C12.4125 12 12.2203 12.1178 12.1272 12.3101L10.6883 15.2252L7.47548 15.6904C7.2646 15.7214 7.09713 15.8641 7.02891 16.0687C6.96688 16.2672 7.0165 16.4905 7.17156 16.6332L9.49744 18.9032ZM11.1411 16.2796C11.3209 16.2548 11.476 16.1432 11.5566 15.9757L12.6296 13.8049L13.7026 15.9757C13.7833 16.137 13.9383 16.2548 14.1182 16.2796L16.5123 16.6269L14.7818 18.314C14.6516 18.438 14.5896 18.6241 14.6206 18.804L15.0299 21.1857L12.8901 20.063C12.7289 19.9762 12.5366 19.9762 12.3753 20.063L10.2355 21.1857L10.6449 18.804C10.6759 18.6241 10.6139 18.4442 10.4836 18.314L8.75316 16.6269L11.1411 16.2796Z" fill="#99A2B4"/>
<path d="M9.49124 33.8768L8.94543 37.0773C8.90822 37.2819 8.99505 37.4928 9.16251 37.6169C9.26175 37.6851 9.37339 37.7223 9.48503 37.7223C9.57187 37.7223 9.6587 37.7037 9.74553 37.6603L12.6172 36.1469L15.4951 37.6603C15.6812 37.7595 15.9045 37.7409 16.0781 37.6169C16.2518 37.4928 16.3324 37.2819 16.3014 37.0773L15.7494 33.8768L18.0753 31.6068C18.2241 31.4579 18.28 31.2409 18.2179 31.0424C18.1559 30.8439 17.9822 30.695 17.7714 30.664L14.5586 30.1989L13.1196 27.2838C12.9335 26.9054 12.3133 26.9054 12.1272 27.2838L10.6883 30.1989L7.47547 30.664C7.26459 30.695 7.09713 30.8377 7.02891 31.0424C6.96688 31.2409 7.0165 31.4641 7.17156 31.6068L9.49124 33.8768ZM11.1287 31.2533C11.3085 31.2284 11.4636 31.1168 11.5442 30.9493L12.6172 28.7785L13.6902 30.9493C13.7709 31.1106 13.9259 31.2284 14.1058 31.2533L16.4999 31.6006L14.7694 33.2876C14.6392 33.4117 14.5772 33.5977 14.6082 33.7776L15.0175 36.1593L12.8777 35.0367C12.7971 34.9933 12.7103 34.9747 12.6234 34.9747C12.5366 34.9747 12.4498 34.9933 12.3629 35.0367L10.2231 36.1593L10.6325 33.7776C10.6635 33.5977 10.6015 33.4179 10.4712 33.2876L8.74075 31.6006L11.1287 31.2533Z" fill="#99A2B4"/>
<path d="M9.48831 48.849L8.9363 52.0494C8.89909 52.2541 8.98592 52.465 9.15959 52.589C9.33325 52.7131 9.55654 52.7317 9.74261 52.6324L12.6205 51.1191L15.4922 52.6324C15.5728 52.6759 15.6596 52.6945 15.7465 52.6945C15.8581 52.6945 15.976 52.6573 16.069 52.589C16.2427 52.465 16.3233 52.2541 16.2923 52.0494L15.7465 48.849L18.0724 46.579C18.2212 46.4301 18.277 46.213 18.215 46.0145C18.153 45.8161 17.9793 45.6672 17.7684 45.6362L14.5556 45.171L13.1167 42.2559C12.9306 41.8776 12.3104 41.8776 12.1243 42.2559L10.6854 45.171L7.47255 45.6362C7.26787 45.6672 7.0942 45.8099 7.02598 46.0145C6.96395 46.213 7.01357 46.4363 7.16863 46.579L9.48831 48.849ZM11.1319 46.2254C11.3118 46.2006 11.4669 46.089 11.5475 45.9215L12.6205 43.7507L13.6935 45.9215C13.7741 46.0828 13.9292 46.2006 14.1091 46.2254L16.5032 46.5728L14.7727 48.2598C14.6425 48.3838 14.5804 48.5699 14.6114 48.7498L15.0208 51.1315L12.881 50.0089C12.7197 49.922 12.5275 49.922 12.3662 50.0089L10.2264 51.1315L10.6357 48.7498C10.6668 48.5699 10.6047 48.39 10.4745 48.2598L8.74403 46.5728L11.1319 46.2254Z" fill="#99A2B4"/>
<rect x="21.8672" y="12.7559" width="36.1947" height="2" rx="1" fill="#99A2B4"/>
<rect x="21.8672" y="44.4629" width="36.1947" height="2" rx="1" fill="#99A2B4"/>
<rect x="21.8672" y="29.1367" width="29.5133" height="2" rx="1" fill="#99A2B4"/>
<rect x="21.8672" y="18.1895" width="20.2991" height="2" rx="1" fill="#99A2B4"/>
<rect x="21.8672" y="49.8965" width="20.2991" height="2" rx="1" fill="#99A2B4"/>
<rect x="21.8672" y="34.5703" width="16.552" height="2" rx="1" fill="#99A2B4"/>
</svg>
