<svg width="65" height="65" viewBox="0 0 65 65" fill="none" xmlns="http://www.w3.org/2000/svg">
<rect width="65" height="65" fill="white"/>
<path d="M46.8051 47.1176L36.9687 33.0758C36.7629 32.7825 36.4636 32.5677 36.1198 32.4666C35.7761 32.3655 35.4082 32.3841 35.0763 32.5193L33.3831 30.1021C35.9151 27.8577 37.5332 24.7604 37.9291 21.4001C38.325 18.0398 37.4711 14.6512 35.53 11.8799C31.1782 5.65945 22.5814 4.12446 16.361 8.48021C10.1405 12.836 8.64508 21.4367 13.0022 27.6585C14.9432 30.4305 17.8362 32.3916 21.13 33.1681C24.4238 33.9446 27.8881 33.4823 30.863 31.8691L32.5562 34.2864C32.3157 34.552 32.1724 34.8915 32.1499 35.2491C32.1274 35.6068 32.2269 35.9615 32.4323 36.2552L42.2687 50.297C42.5095 50.6406 42.877 50.8744 43.2902 50.9471C43.7034 51.0198 44.1286 50.9254 44.4722 50.6847L46.416 49.3225C46.5864 49.2033 46.7317 49.0517 46.8435 48.8764C46.9552 48.7011 47.0314 48.5054 47.0675 48.3007C47.1036 48.0959 47.099 47.886 47.054 47.683C47.009 47.48 46.9244 47.2879 46.8051 47.1176V47.1176ZM15.542 25.8373C14.3243 24.1096 13.6466 22.0595 13.5945 19.9465C13.5425 17.8334 14.1185 15.7525 15.2497 13.9669C16.3809 12.1814 18.0164 10.7717 19.9492 9.91608C21.882 9.06049 24.0251 8.79756 26.1074 9.16055C28.1897 9.52354 30.1175 10.4962 31.6467 11.9553C33.176 13.4144 34.238 15.2944 34.6983 17.3573C35.1586 19.4203 34.9965 21.5734 34.2326 23.5442C33.4686 25.515 32.1372 27.2149 30.4067 28.4286V28.4286C29.2612 29.2365 27.9676 29.8104 26.5999 30.1174C25.2323 30.4244 23.8175 30.4586 22.4366 30.2178C21.0557 29.9771 19.7359 29.4663 18.5528 28.7146C17.3697 27.9629 16.3466 26.9851 15.542 25.8373V25.8373Z" fill="#99A2B4"/>
<path d="M21.5016 48.1103H15.8904V42.4899C15.8936 42.312 15.8614 42.1351 15.7957 41.9697C15.73 41.8043 15.6321 41.6536 15.5077 41.5262C15.3834 41.3989 15.235 41.2975 15.0711 41.228C14.9073 41.1584 14.7312 41.1221 14.5533 41.1211H14.3251C14.1472 41.1223 13.9714 41.1587 13.8077 41.2284C13.644 41.298 13.4957 41.3994 13.3715 41.5267C13.2473 41.654 13.1495 41.8047 13.0839 41.97C13.0183 42.1354 12.9861 42.3121 12.9893 42.4899V48.1103H7.37807C7.20026 48.1061 7.02338 48.1372 6.85765 48.2018C6.69192 48.2663 6.54062 48.363 6.41249 48.4864C6.28436 48.6097 6.18193 48.7573 6.11114 48.9204C6.04034 49.0836 6.00256 49.2591 6 49.437V49.6651C6.00189 49.8441 6.03906 50.0209 6.10938 50.1855C6.17969 50.35 6.28177 50.4991 6.40977 50.6242C6.53778 50.7492 6.68919 50.8478 6.85534 50.9143C7.02149 50.9808 7.19913 51.0138 7.37807 51.0115H12.9893V56.6135C12.9859 56.7924 13.0179 56.9702 13.0833 57.1367C13.1487 57.3033 13.2463 57.4553 13.3705 57.5842C13.4946 57.713 13.643 57.8161 13.807 57.8876C13.971 57.9591 14.1475 57.9975 14.3264 58.0008H14.5546C14.9157 57.9939 15.2592 57.8438 15.5097 57.5837C15.7602 57.3235 15.8972 56.9746 15.8904 56.6135V51.0115H21.5016C21.6806 51.0138 21.8582 50.9808 22.0244 50.9143C22.1905 50.8478 22.3419 50.7492 22.4699 50.6242C22.5979 50.4991 22.7 50.35 22.7703 50.1855C22.8406 50.0209 22.8778 49.8441 22.8797 49.6651V49.437C22.8771 49.2591 22.8394 49.0836 22.7686 48.9204C22.6978 48.7573 22.5953 48.6097 22.4672 48.4864C22.3391 48.363 22.1878 48.2663 22.022 48.2018C21.8563 48.1372 21.6794 48.1061 21.5016 48.1103V48.1103Z" fill="#99A2B4"/>
<path d="M58.0203 17.9688H54.0312V13.9731C54.0335 13.8466 54.0106 13.7209 53.9639 13.6033C53.9172 13.4857 53.8476 13.3785 53.7592 13.288C53.6708 13.1975 53.5653 13.1254 53.4488 13.076C53.3323 13.0266 53.2072 13.0007 53.0806 13H52.9184C52.792 13.0008 52.667 13.0268 52.5506 13.0763C52.4342 13.1258 52.3288 13.1978 52.2405 13.2883C52.1522 13.3789 52.0827 13.486 52.036 13.6035C51.9894 13.7211 51.9665 13.8467 51.9688 13.9731V17.9688H47.9797C47.8533 17.9658 47.7275 17.9879 47.6097 18.0337C47.4919 18.0796 47.3843 18.1484 47.2932 18.2361C47.2022 18.3238 47.1293 18.4287 47.079 18.5446C47.0287 18.6606 47.0018 18.7854 47 18.9119V19.0741C47.0013 19.2013 47.0278 19.327 47.0778 19.444C47.1277 19.561 47.2003 19.6669 47.2913 19.7559C47.3823 19.8448 47.49 19.9149 47.6081 19.9621C47.7262 20.0094 47.8525 20.0329 47.9797 20.0312H51.9688V24.0138C51.9664 24.1409 51.9891 24.2673 52.0356 24.3857C52.0821 24.5041 52.1515 24.6122 52.2398 24.7038C52.328 24.7954 52.4335 24.8687 52.5501 24.9195C52.6667 24.9703 52.7922 24.9977 52.9194 25H53.0816C53.3383 24.9951 53.5825 24.8884 53.7606 24.7035C53.9387 24.5185 54.036 24.2704 54.0312 24.0138V20.0312H58.0203C58.1475 20.0329 58.2738 20.0094 58.3919 19.9621C58.51 19.9149 58.6177 19.8448 58.7087 19.7559C58.7997 19.6669 58.8723 19.561 58.9222 19.444C58.9722 19.327 58.9987 19.2013 59 19.0741V18.9119C58.9982 18.7854 58.9713 18.6606 58.921 18.5446C58.8707 18.4287 58.7978 18.3238 58.7068 18.2361C58.6157 18.1484 58.5081 18.0796 58.3903 18.0337C58.2725 17.9879 58.1467 17.9658 58.0203 17.9688V17.9688Z" fill="#99A2B4"/>
</svg>
