<svg width="100" height="65" viewBox="0 0 100 65" fill="none" xmlns="http://www.w3.org/2000/svg">
<rect width="100" height="65" fill="white"/>
<g clip-path="url(#clip0)">
<path fill-rule="evenodd" clip-rule="evenodd" d="M81.4125 45.1421L85.7886 41.1265L83.6303 36.5118C84.039 35.8925 84.2598 35.2014 84.5414 34.5765L89.4993 33.3247L89.756 27.3488L84.9237 25.6763C84.763 24.9688 84.4752 24.2559 84.1819 23.6701L86.7335 19.1303L82.7179 14.7542L78.1032 16.9125C77.4839 16.5038 76.7928 16.283 76.168 16.0014L74.9161 11.0435L68.9402 10.7868L67.2678 15.6191C66.5603 15.7798 65.8473 16.0676 65.2615 16.3609L60.8489 13.8148L56.4728 17.8303L58.6311 22.445C58.2223 23.0644 58.0016 23.7555 57.72 24.3803L52.7621 25.6322L52.5873 29.7009L49.5132 28.6134C49.2308 27.7733 48.9484 26.9332 48.5998 26.154L51.759 20.8123L46.8308 15.4417L41.2379 18.1312C40.4914 17.717 39.6786 17.3636 38.8658 17.0103L37.2762 11.0188L30.0289 10.7074L27.9313 16.5405C27.0912 16.8229 26.2511 17.1052 25.4718 17.4539L20.1302 14.2947L14.7596 19.2229L17.4491 24.8158C17.0348 25.5623 16.6815 26.375 16.3281 27.1878L10.3366 28.7775L10.0253 36.0248L15.8584 38.1224C16.1407 38.9625 16.4231 39.8026 16.7718 40.5818L13.6125 45.9235L18.5407 51.2941L24.1336 48.6046C24.8801 49.0188 25.6929 49.3722 26.5057 49.7256L28.0953 55.717L35.3426 56.0284L37.4402 50.1953C38.2803 49.9129 39.1204 49.6306 39.8997 49.2819L45.2413 52.4411L50.5457 47.5738L47.8562 41.9809C48.2704 41.2344 48.6238 40.4216 48.9771 39.6088L54.9686 38.0192L55.1372 32.6128L57.1442 33.3359C57.3049 34.0434 57.5927 34.7563 57.886 35.3422L55.3399 39.7548L59.3554 44.1308L63.9702 41.9726C64.5895 42.3813 65.2806 42.6021 65.9054 42.8837L67.1573 47.8416L73.1332 48.0983L74.8056 43.266C75.5131 43.1053 76.2261 42.8175 76.8119 42.5242L81.4125 45.1421ZM53.1878 36.4778L47.5169 38.0175C47.1417 39.3389 46.5122 40.6494 45.761 41.8272L48.2734 47.094L44.9582 50.1361L39.9262 47.1813C38.6883 47.8287 37.3287 48.3435 35.98 48.604L34.026 54.0611L29.4487 53.8645L27.9698 48.2599C26.6485 47.8847 25.338 47.2552 24.1602 46.504L18.8933 49.0164L15.8512 45.7012L18.8061 40.6692C18.1587 39.4313 17.6439 38.0717 17.3834 36.723L11.9263 34.7689L12.0566 30.2525L17.6612 28.7737C18.0364 27.4523 18.6659 26.1418 19.4171 24.964L16.9047 19.6972L20.2199 16.6551L25.2518 19.6099C26.4898 18.9625 27.8494 18.4477 29.1981 18.1872L31.1521 12.7301L35.6631 12.9876L37.1419 18.5921C38.4633 18.9674 39.7738 19.5969 40.9516 20.3481L46.2184 17.8356L49.2605 21.1508L46.3057 26.1828C46.9531 27.4207 47.4679 28.7803 47.7284 30.129L52.2456 31.7243L53.1855 32.0831L53.1878 36.4778ZM73.3899 42.1225L72.8766 43.6927L72.0045 46.2028L68.6987 46.0608L68.045 43.4851L67.6683 41.8767L67.5575 41.4898C66.3633 41.12 65.1746 40.6231 64.1847 39.9437L63.7923 40.1816L62.2947 40.9452L59.8906 42.0521L57.7003 39.6651L59.0092 37.3648L59.8376 35.8718L60.1083 35.5013C59.4554 34.3905 59.0623 33.1635 58.8572 32.0083L58.4812 31.8648L56.911 31.3515L55.4071 30.7773L54.4671 30.4185L54.6037 27.2399L57.1794 26.5862L58.7878 26.2095L59.1747 26.0987C59.5445 24.9045 60.0414 23.7158 60.7208 22.7259L60.4829 22.3335L59.7856 20.775L58.6787 18.3709L61.0657 16.1806L63.366 17.4895L64.7927 18.3788L65.1632 18.6495C66.274 17.9966 67.501 17.6035 68.7225 17.3375L68.6835 16.7626L69.2631 15.1316L70.1352 12.6214L73.3139 12.758L73.9675 15.3337L74.3442 16.9421L74.455 17.329C75.6492 17.6988 76.838 18.1957 77.8887 18.9414L78.281 18.7035L79.8396 18.0062L82.2437 16.8993L84.434 19.2863L83.0642 21.5203L82.2358 23.0133L81.9651 23.3838C82.618 24.4946 83.0111 25.7216 83.2162 26.8768L83.5922 27.0203L85.1624 27.5336L87.6725 28.4057L87.536 31.5844L84.9603 32.238L83.4681 32.8745L83.0812 32.9853C82.7114 34.1795 82.2145 35.3682 81.5351 36.3581L81.773 36.7505L82.4703 38.309L83.6435 40.6522L81.2565 42.8425L78.9562 41.5336L77.4024 40.6389L77.0319 40.3682C75.9211 41.0211 74.6941 41.4142 73.4726 41.6802L73.3899 42.1225Z" fill="#99A2B4"/>
<path fill-rule="evenodd" clip-rule="evenodd" d="M38.6548 27.8281C35.6127 24.5129 30.3997 24.2889 27.0845 27.331C23.7693 30.3731 23.5454 35.5861 26.5875 38.9013C29.6295 42.2165 34.8425 42.4405 38.1577 39.3984C41.4729 36.3563 41.6969 31.1433 38.6548 27.8281ZM27.9798 37.6236C25.607 35.0378 25.7818 30.9691 28.3676 28.5963C30.9535 26.2234 35.0222 26.3982 37.395 28.9841C39.7678 31.5699 39.593 35.6386 37.0072 38.0114C34.2942 40.3788 30.3527 40.2095 27.9798 37.6236Z" fill="#99A2B4"/>
<path fill-rule="evenodd" clip-rule="evenodd" d="M76.039 24.9132C73.5445 22.1948 69.2215 22.0091 66.503 24.5036C63.7846 26.9981 63.5989 31.321 66.0934 34.0395C68.5879 36.758 72.9108 36.9437 75.6293 34.4492C78.3478 31.9546 78.5335 27.6317 76.039 24.9132ZM67.4858 32.7618C65.6605 30.7727 65.7916 27.7212 67.7807 25.896C69.7698 24.0707 72.8213 24.2018 74.6466 26.1909C76.4718 28.18 76.3408 31.2315 74.3516 33.0568C72.3625 34.882 69.311 34.7509 67.4858 32.7618Z" fill="#99A2B4"/>
</g>
<defs>
<clipPath id="clip0">
<rect width="84" height="48" fill="white" transform="translate(8 8)"/>
</clipPath>
</defs>
</svg>
