<svg width="65" height="65" viewBox="0 0 65 65" fill="none" xmlns="http://www.w3.org/2000/svg">
<rect width="65" height="65" fill="white"/>
<path fill-rule="evenodd" clip-rule="evenodd" d="M32.2416 11.2652L11.0712 21.5017L32.2412 30.7613L53.8416 21.5015L32.2416 11.2652ZM31.5425 9.15955C31.9785 8.94873 32.4866 8.94674 32.9242 9.15414L55.9857 20.0831C57.2309 20.6732 57.1974 22.4565 55.9309 22.9995L32.8693 32.8857C32.463 33.0598 32.0027 33.0582 31.5977 32.881L8.99521 22.9949C7.74317 22.4473 7.7096 20.6834 8.93989 20.0885L31.5425 9.15955Z" fill="#99A2B4"/>
<path fill-rule="evenodd" clip-rule="evenodd" d="M56.9497 29.213L32.8694 39.5358C32.4631 39.71 32.0028 39.7083 31.5978 39.5312L8 29.2097L8.88162 27.1941L32.2413 37.4114L56.0829 27.1909L56.9497 29.213Z" fill="#99A2B4"/>
<path fill-rule="evenodd" clip-rule="evenodd" d="M56.9497 37.5255L32.8694 47.8483C32.4631 48.0225 32.0028 48.0208 31.5978 47.8437L8 37.5222L8.88162 35.5066L32.2413 45.7239L56.0829 35.5034L56.9497 37.5255Z" fill="#99A2B4"/>
<path fill-rule="evenodd" clip-rule="evenodd" d="M56.9497 45.6485L32.8694 55.9714C32.4631 56.1456 32.0028 56.1439 31.5978 55.9667L8 45.6453L8.88162 43.6297L32.2413 53.847L56.0829 43.6265L56.9497 45.6485Z" fill="#99A2B4"/>
</svg>
