<svg width="65" height="65" viewBox="0 0 65 65" fill="none" xmlns="http://www.w3.org/2000/svg">
<rect width="65" height="65" fill="white"/>
<path d="M43.9433 24.1067L35.0582 32.9918C34.3964 32.601 33.6347 32.3613 32.8118 32.3613C30.3576 32.3613 28.3618 34.3571 28.3618 36.8113C28.3618 39.2656 30.3576 41.2613 32.8118 41.2613C35.266 41.2613 37.2618 39.2656 37.2618 36.8113C37.2618 35.9884 37.0222 35.2268 36.6314 34.5649L45.5165 25.6798C45.951 25.2453 45.951 24.5413 45.5165 24.1067C45.0819 23.6721 44.3779 23.6721 43.9433 24.1067ZM32.8118 39.0363C31.5852 39.0363 30.5868 38.0379 30.5868 36.8113C30.5868 35.5848 31.5852 34.5863 32.8118 34.5863C34.0384 34.5863 35.0368 35.5848 35.0368 36.8113C35.0368 38.0379 34.0384 39.0363 32.8118 39.0363Z" fill="#99A2B4"/>
<path d="M52.4789 17.1461C52.4606 17.1278 52.4361 17.1216 52.4169 17.1049C47.385 12.099 40.4543 9 32.8125 9C25.1707 9 18.2401 12.099 13.2082 17.1048C13.1889 17.1216 13.1644 17.1277 13.146 17.1461C13.1276 17.1644 13.1215 17.189 13.1047 17.2083C8.09897 22.2402 5 29.1708 5 36.8125C5 44.2415 7.89315 51.2261 13.146 56.4789C13.5806 56.9135 14.2846 56.9135 14.7192 56.4789L16.4237 54.7743C16.8583 54.3398 16.8583 53.6358 16.4237 53.2012C15.9892 52.7667 15.2852 52.7667 14.8506 53.2012L13.9489 54.1018C9.85551 49.6451 7.53426 43.9711 7.27623 37.925H8.52221C9.13711 37.925 9.63468 37.4274 9.63468 36.8125C9.63468 36.1976 9.13711 35.7 8.52221 35.7H7.2532C7.52065 29.4824 10.0149 23.8336 13.9598 19.533L14.8506 20.4238C15.0679 20.6411 15.3525 20.7497 15.6372 20.7497C15.9218 20.7497 16.2065 20.6411 16.4237 20.4238C16.8583 19.9892 16.8583 19.2852 16.4237 18.8506L15.533 17.9599C19.8336 14.0149 25.4824 11.5207 31.7 11.2532V12.5233C31.7 13.1382 32.1976 13.6358 32.8125 13.6358C33.4274 13.6358 33.9249 13.1382 33.9249 12.5233V11.2532C40.1425 11.5207 45.7914 14.0149 50.0919 17.9599L49.2012 18.8506C48.7666 19.2852 48.7666 19.9892 49.2012 20.4238C49.4185 20.6411 49.7031 20.7497 49.9877 20.7497C50.2724 20.7497 50.557 20.6411 50.7743 20.4238L51.6651 19.533C55.6101 23.8336 58.1043 29.4824 58.3717 35.7H57.1017C56.4867 35.7 55.9891 36.1976 55.9891 36.8125C55.9891 37.4274 56.4867 37.925 57.1017 37.925H58.3487C58.0907 43.9711 55.7694 49.6451 51.6761 54.1018L50.7743 53.2012C50.3398 52.7667 49.6358 52.7667 49.2012 53.2012C48.7666 53.6358 48.7666 54.3398 49.2012 54.7743L50.9057 56.4789C51.1231 56.6962 51.4077 56.8049 51.6923 56.8049C51.977 56.8049 52.2617 56.6962 52.4789 56.4789C57.7318 51.2261 60.6249 44.2415 60.6249 36.8125C60.6249 29.1707 57.526 22.24 52.5201 17.2081C52.5034 17.1889 52.4972 17.1644 52.4789 17.1461Z" fill="#99A2B4"/>
</svg>
