<svg width="65" height="65" viewBox="0 0 65 65" fill="none" xmlns="http://www.w3.org/2000/svg">
<rect width="65" height="65" fill="white"/>
<path fill-rule="evenodd" clip-rule="evenodd" d="M12.5357 54H54V50.9286H14.0714V11H11V52.4643L12.5357 54ZM17.1429 46.3214V21.75L18.6786 20.2143H24.8214L26.3571 21.75V46.3214L24.8214 47.8571H18.6786L17.1429 46.3214ZM23.2857 44.7857V23.2857H20.2143V44.7857H23.2857ZM41.7143 15.6071V46.3214L43.25 47.8571H49.3929L50.9286 46.3214V15.6071L49.3929 14.0714H43.25L41.7143 15.6071ZM47.8571 17.1429V44.7857H44.7857V17.1429H47.8571ZM29.4286 46.3214V27.8929L30.9643 26.3571H37.1071L38.6429 27.8929V46.3214L37.1071 47.8571H30.9643L29.4286 46.3214ZM35.5714 44.7857V29.4286H32.5V44.7857H35.5714Z" fill="#99A2B4"/>
</svg>
