<svg width="65" height="65" viewBox="0 0 65 65" fill="none" xmlns="http://www.w3.org/2000/svg">
<rect width="65" height="65" fill="white"/>
<path d="M10 13.7708C10 11.9751 10.7134 10.2529 11.9831 8.98313C13.2529 7.71335 14.9751 7 16.7708 7H44.8958C46.6916 7 48.4138 7.71335 49.6835 8.98313C50.9533 10.2529 51.6667 11.9751 51.6667 13.7708V39.0396C51.4167 39.2062 51.1771 39.4021 50.9563 39.6229L48.5417 42.0375V13.7708C48.5417 12.8039 48.1576 11.8766 47.4738 11.1928C46.7901 10.5091 45.8628 10.125 44.8958 10.125H16.7708C15.8039 10.125 14.8766 10.5091 14.1928 11.1928C13.5091 11.8766 13.125 12.8039 13.125 13.7708V50.2292C13.125 52.2417 14.7583 53.875 16.7708 53.875H33.5792L36.7042 57H16.7708C14.9751 57 13.2529 56.2866 11.9831 55.0169C10.7134 53.7471 10 52.0249 10 50.2292V13.7708Z" fill="#99A2B4"/>
<path d="M23.5416 21.0627C23.5416 21.7533 23.2672 22.4157 22.7788 22.9041C22.2905 23.3925 21.6281 23.6668 20.9374 23.6668C20.2468 23.6668 19.5844 23.3925 19.096 22.9041C18.6076 22.4157 18.3333 21.7533 18.3333 21.0627C18.3333 20.372 18.6076 19.7096 19.096 19.2212C19.5844 18.7329 20.2468 18.4585 20.9374 18.4585C21.6281 18.4585 22.2905 18.7329 22.7788 19.2212C23.2672 19.7096 23.5416 20.372 23.5416 21.0627Z" fill="#99A2B4"/>
<path d="M20.9374 34.6043C21.6281 34.6043 22.2905 34.33 22.7788 33.8416C23.2672 33.3532 23.5416 32.6908 23.5416 32.0002C23.5416 31.3095 23.2672 30.6471 22.7788 30.1587C22.2905 29.6704 21.6281 29.396 20.9374 29.396C20.2468 29.396 19.5844 29.6704 19.096 30.1587C18.6076 30.6471 18.3333 31.3095 18.3333 32.0002C18.3333 32.6908 18.6076 33.3532 19.096 33.8416C19.5844 34.33 20.2468 34.6043 20.9374 34.6043V34.6043Z" fill="#99A2B4"/>
<path d="M20.9374 45.5418C21.6281 45.5418 22.2905 45.2675 22.7788 44.7791C23.2672 44.2907 23.5416 43.6283 23.5416 42.9377C23.5416 42.247 23.2672 41.5846 22.7788 41.0962C22.2905 40.6079 21.6281 40.3335 20.9374 40.3335C20.2468 40.3335 19.5844 40.6079 19.096 41.0962C18.6076 41.5846 18.3333 42.247 18.3333 42.9377C18.3333 43.6283 18.6076 44.2907 19.096 44.7791C19.5844 45.2675 20.2468 45.5418 20.9374 45.5418V45.5418Z" fill="#99A2B4"/>
<path d="M28.2292 19.5C27.8148 19.5 27.4174 19.6646 27.1244 19.9576C26.8314 20.2507 26.6667 20.6481 26.6667 21.0625C26.6667 21.4769 26.8314 21.8743 27.1244 22.1674C27.4174 22.4604 27.8148 22.625 28.2292 22.625H41.7709C42.1853 22.625 42.5827 22.4604 42.8758 22.1674C43.1688 21.8743 43.3334 21.4769 43.3334 21.0625C43.3334 20.6481 43.1688 20.2507 42.8758 19.9576C42.5827 19.6646 42.1853 19.5 41.7709 19.5H28.2292Z" fill="#99A2B4"/>
<path d="M26.6667 32C26.6667 31.5856 26.8314 31.1882 27.1244 30.8951C27.4174 30.6021 27.8148 30.4375 28.2292 30.4375H41.7709C42.1853 30.4375 42.5827 30.6021 42.8758 30.8951C43.1688 31.1882 43.3334 31.5856 43.3334 32C43.3334 32.4144 43.1688 32.8118 42.8758 33.1049C42.5827 33.3979 42.1853 33.5625 41.7709 33.5625H28.2292C27.8148 33.5625 27.4174 33.3979 27.1244 33.1049C26.8314 32.8118 26.6667 32.4144 26.6667 32V32Z" fill="#99A2B4"/>
<path d="M28.2292 41.375C27.8148 41.375 27.4174 41.5396 27.1244 41.8326C26.8314 42.1257 26.6667 42.5231 26.6667 42.9375C26.6667 43.3519 26.8314 43.7493 27.1244 44.0424C27.4174 44.3354 27.8148 44.5 28.2292 44.5H41.7709C42.1853 44.5 42.5827 44.3354 42.8758 44.0424C43.1688 43.7493 43.3334 43.3519 43.3334 42.9375C43.3334 42.5231 43.1688 42.1257 42.8758 41.8326C42.5827 41.5396 42.1853 41.375 41.7709 41.375H28.2292Z" fill="#99A2B4"/>
<path d="M55.3725 44.0414L42.8725 56.5414C42.5796 56.834 42.1824 56.9983 41.7684 56.9983C41.3543 56.9983 40.9572 56.834 40.6642 56.5414L34.4184 50.2956C34.1424 49.9994 33.9921 49.6076 33.9993 49.2028C34.0064 48.798 34.1704 48.4118 34.4567 48.1255C34.7429 47.8392 35.1292 47.6752 35.534 47.6681C35.9388 47.661 36.3305 47.8112 36.6267 48.0872L41.7684 53.2268L53.1642 41.831C53.3084 41.6818 53.4809 41.5629 53.6716 41.4811C53.8622 41.3993 54.0673 41.3562 54.2747 41.3545C54.4822 41.3528 54.6879 41.3925 54.8799 41.4711C55.0719 41.5498 55.2463 41.6659 55.393 41.8127C55.5396 41.9594 55.6555 42.1339 55.734 42.326C55.8125 42.5181 55.8519 42.7238 55.85 42.9313C55.8481 43.1388 55.8049 43.3438 55.7229 43.5344C55.641 43.725 55.5218 43.8973 55.3725 44.0414V44.0414Z" fill="#99A2B4"/>
</svg>
