<svg width="65" height="65" viewBox="0 0 65 65" fill="none" xmlns="http://www.w3.org/2000/svg">
<rect width="65" height="65" fill="white"/>
<path d="M50.4545 32C50.4535 29.1868 49.7826 26.4144 48.4971 23.9121C47.2116 21.4098 45.3485 19.2497 43.0622 17.6107L41.6126 9.61409C41.48 8.88047 41.0938 8.21678 40.5215 7.73897C39.9492 7.26116 39.2273 6.99961 38.4817 7H26.9726C26.2271 6.99961 25.5052 7.26116 24.9329 7.73897C24.3606 8.21678 23.9744 8.88047 23.8417 9.61409L22.3922 17.6107C20.1052 19.2491 18.2417 21.4091 16.9561 23.9115C15.6706 26.4139 15 29.1867 15 32C15 34.8133 15.6706 37.5861 16.9561 40.0885C18.2417 42.5909 20.1052 44.7509 22.3922 46.3893L23.8417 54.3859C23.9744 55.1195 24.3606 55.7832 24.9329 56.261C25.5052 56.7388 26.2271 57.0004 26.9726 57H38.4817C39.2273 57.0004 39.9492 56.7388 40.5215 56.261C41.0938 55.7832 41.48 55.1195 41.6126 54.3859L43.0622 46.3893C45.3485 44.7503 47.2116 42.5902 48.4971 40.0879C49.7826 37.5856 50.4535 34.8132 50.4545 32V32ZM26.5254 10.1007C26.5444 9.99591 26.5996 9.90113 26.6813 9.83289C26.7631 9.76465 26.8662 9.72727 26.9726 9.72727H38.4817C38.5882 9.72727 38.6913 9.76465 38.7731 9.83289C38.8548 9.90113 38.91 9.99591 38.929 10.1007L39.9667 15.8245C37.6903 14.8016 35.223 14.2726 32.7273 14.2726C30.2316 14.2726 27.7643 14.8016 25.4879 15.8245L26.5254 10.1007ZM38.929 53.8993C38.91 54.0041 38.8548 54.0989 38.7731 54.1671C38.6913 54.2354 38.5882 54.2727 38.4817 54.2727H26.9726C26.8662 54.2727 26.7631 54.2354 26.6813 54.1671C26.5996 54.0989 26.5444 54.0041 26.5254 53.8993L25.4876 48.1755C27.764 49.1984 30.2314 49.7274 32.7271 49.7274C35.2228 49.7274 37.6901 49.1984 39.9665 48.1755L38.929 53.8993ZM32.7272 47C29.7605 47 26.8604 46.1203 24.3936 44.472C21.9269 42.8238 20.0043 40.4811 18.869 37.7403C17.7337 34.9994 17.4366 31.9834 18.0154 29.0736C18.5942 26.1639 20.0228 23.4912 22.1206 21.3934C24.2184 19.2956 26.8911 17.867 29.8008 17.2882C32.7106 16.7094 35.7266 17.0065 38.4674 18.1418C41.2083 19.2771 43.551 21.1997 45.1992 23.6664C46.8475 26.1332 47.7272 29.0333 47.7272 32C47.7227 35.9769 46.1409 39.7896 43.3288 42.6016C40.5167 45.4137 36.7041 46.9955 32.7272 47V47ZM43.1817 32C43.1817 32.3617 43.0381 32.7085 42.7823 32.9642C42.5266 33.22 42.1798 33.3636 41.8181 33.3636H32.7272C32.3655 33.3636 32.0187 33.22 31.763 32.9642C31.5072 32.7085 31.3636 32.3617 31.3636 32V22.9091C31.3636 22.5474 31.5072 22.2006 31.763 21.9449C32.0187 21.6891 32.3655 21.5455 32.7272 21.5455C33.0888 21.5455 33.4357 21.6891 33.6914 21.9449C33.9472 22.2006 34.0908 22.5474 34.0908 22.9091V30.6364H41.8181C42.1798 30.6364 42.5266 30.78 42.7823 31.0358C43.0381 31.2915 43.1817 31.6383 43.1817 32Z" fill="#99A2B4"/>
</svg>
