<svg width="47" height="50" viewBox="0 0 47 50" fill="none" xmlns="http://www.w3.org/2000/svg">
<path d="M18.0461 0C17.784 0 17.5325 0.105357 17.3472 0.292893C17.1618 0.48043 17.0576 0.734784 17.0576 1V3C17.0576 3.26522 17.1618 3.51957 17.3472 3.70711C17.5325 3.89464 17.784 4 18.0461 4H19.5289V6.6475C8.83516 7.8925 0.5 17.1045 0.5 28.25C0.5 40.2415 10.1464 50 22.0002 50C33.854 50 43.5004 40.2415 43.5004 28.25C43.5038 24.1457 42.3517 20.1252 40.179 16.659L42.2736 14.9435L43.2068 16.1095C43.2884 16.2116 43.3892 16.2965 43.5032 16.3592C43.6173 16.4219 43.7425 16.4613 43.8716 16.4751C44.0007 16.4889 44.1312 16.4768 44.2557 16.4395C44.3802 16.4023 44.4962 16.3406 44.5972 16.258L46.1343 14.999C46.3378 14.832 46.4674 14.5901 46.4946 14.3264C46.5219 14.0628 46.4445 13.799 46.2796 13.593L41.3034 7.375C41.2218 7.27289 41.121 7.18805 41.007 7.12532C40.8929 7.0626 40.7678 7.02321 40.6386 7.00942C40.5095 6.99563 40.379 7.00771 40.2545 7.04495C40.13 7.0822 40.014 7.14389 39.9131 7.2265L38.3759 8.4855C38.1724 8.65251 38.0428 8.89443 38.0156 9.15807C37.9883 9.42172 38.0657 9.68552 38.2306 9.8915L39.1643 11.0575L37.0785 12.7645C33.7487 9.4455 29.3562 7.2175 24.4715 6.6485V4H25.9543C26.2164 4 26.4679 3.89464 26.6532 3.70711C26.8386 3.51957 26.9428 3.26522 26.9428 3V1C26.9428 0.734784 26.8386 0.48043 26.6532 0.292893C26.4679 0.105357 26.2164 0 25.9543 0L18.0461 0ZM22.0002 10C31.9842 10 40.0406 18.15 40.0406 28.25C40.0406 38.35 31.9842 46.5 22.0002 46.5C12.0162 46.5 3.9598 38.35 3.9598 28.25C3.9598 18.15 12.0162 10 22.0002 10ZM22.0012 13.7215L22.0002 28.25L33.4838 36.9735C35.0856 34.8155 36.0616 32.2488 36.3024 29.5612C36.5432 26.8735 36.0392 24.1711 34.8469 21.757C33.6547 19.3429 31.8214 17.3125 29.5525 15.8933C27.2836 14.4741 24.6688 13.7222 22.0012 13.722V13.7215Z" fill="#99A2B4"/>
</svg>
