<svg width="32" height="32" viewBox="0 0 32 32" fill="none" xmlns="http://www.w3.org/2000/svg">
<path d="M16 0C7.16338 0 0 7.16338 0 16C0 24.8366 7.16338 32 16 32C24.8366 32 32 24.8366 32 16C32 7.16338 24.8366 0 16 0ZM16 5.88871C17.5708 5.88871 18.8444 7.16231 18.8444 8.73316C18.8444 10.304 17.5708 11.5776 16 11.5776C14.4292 11.5776 13.1556 10.304 13.1556 8.73316C13.1556 7.16231 14.4292 5.88871 16 5.88871ZM20.2667 25.4002C20.2667 25.7927 19.9481 25.9556 19.5556 25.9556H12.4444C12.0519 25.9556 11.7333 25.7927 11.7333 25.4002V25.0446C11.7333 24.6517 12.0519 24.1778 12.4444 24.1778H13.1556V15.2889H12.4444C12.0519 15.2889 11.7333 15.126 11.7333 14.7335V14.378C11.7333 13.9851 12.0519 13.5111 12.4444 13.5111H18.1333C18.5259 13.5111 18.8444 13.9851 18.8444 14.378V14.7335V24.1778H19.5556C19.9481 24.1778 20.2667 24.6517 20.2667 25.0446V25.4002Z" fill="#C4C4C4"/>
</svg>
