<svg width="20" height="21" viewBox="0 0 20 21" fill="none" xmlns="http://www.w3.org/2000/svg">
<path d="M0 10.5C0 4.99219 4.45312 0.5 10 0.5C15.5078 0.5 20 4.99219 20 10.5C20 16.0469 15.5078 20.5 10 20.5C4.45312 20.5 0 16.0469 0 10.5ZM10 18.625C14.4531 18.625 18.125 14.9922 18.125 10.5C18.125 6.04688 14.4531 2.375 10 2.375C5.50781 2.375 1.875 6.04688 1.875 10.5C1.875 14.9922 5.50781 18.625 10 18.625ZM16.0156 10.5L15.3516 8.50781C15.1562 7.88281 15.4688 7.21875 16.0938 6.94531L18.125 6.125L18.75 11.75L16.9141 11.3203C16.4844 11.2031 16.1328 10.8906 16.0156 10.5ZM2.61719 8.70312L1.875 7.375L2.5 5.5L5.625 2.375L9.6875 1.125L10.4688 2.57031C10.7422 3.03906 10.7031 3.58594 10.3516 4.01562L9.72656 4.71875C9.33594 5.1875 9.33594 5.85156 9.72656 6.32031L10.2344 6.94531C10.4688 7.21875 10.4688 7.57031 10.3125 7.84375C10.1172 8.11719 9.76562 8.27344 9.45312 8.15625L8.51562 7.84375C8.24219 7.76562 7.96875 7.76562 7.69531 7.92188L7.46094 8.03906C7.10938 8.19531 6.95312 8.625 7.07031 8.97656C7.14844 9.17188 7.26562 9.32812 7.42188 9.40625L8.78906 10.1875C9.14062 10.4219 9.57031 10.5 10 10.5H11.7188C12.1875 10.5 12.6953 10.7344 13.0469 11.0859L13.1641 11.2031C13.5156 11.5547 13.75 12.0625 13.75 12.5312V12.8828C13.75 13.5469 13.3594 14.1719 12.7734 14.4844L12.4219 14.7188C11.875 15.0312 11.4453 15.5391 11.25 16.2031L11.2109 16.3984C11.0156 17.0234 10.5469 17.4922 9.92188 17.6875C9.33594 17.8438 8.71094 17.4141 8.71094 16.7891V15.5781C8.71094 15.1484 8.47656 14.7578 8.08594 14.5625C7.73438 14.4062 7.46094 14.0156 7.46094 13.5859V12.0234C7.46094 11.3203 7.03125 10.6953 6.32812 10.5L4.10156 9.875C3.4375 9.67969 2.92969 9.25 2.61719 8.70312Z" fill="#777777"/>
</svg>
