<svg width="25" height="19" viewBox="0 0 25 19" fill="none" xmlns="http://www.w3.org/2000/svg">
<path d="M24.3359 4.85156L13.2812 0.90625C13.0469 0.828125 12.7734 0.75 12.5 0.75C12.1875 0.75 11.9141 0.828125 11.6406 0.90625L0.625 4.85156C0.234375 5.00781 0 5.35938 0 5.75C0 6.17969 0.234375 6.53125 0.625 6.6875L2.96875 7.50781C2.5 8.13281 2.14844 8.83594 1.99219 9.61719C1.5625 9.8125 1.25 10.2422 1.25 10.75C1.25 11.1406 1.40625 11.4922 1.67969 11.7266L0.742188 17.5469C0.664062 17.9375 0.976562 18.25 1.32812 18.25H3.63281C3.98438 18.25 4.29688 17.9375 4.21875 17.5469L3.28125 11.7266C3.55469 11.4922 3.75 11.1406 3.75 10.75C3.75 10.3594 3.51562 10.0078 3.24219 9.8125C3.39844 9.10938 3.75 8.48438 4.21875 7.97656L11.6406 10.6328C11.9141 10.7109 12.1875 10.75 12.5 10.75C12.7734 10.75 13.0469 10.7109 13.3203 10.6328L24.3359 6.6875C24.7266 6.53125 25 6.17969 25 5.75C25 5.35938 24.7266 5.00781 24.3359 4.85156ZM12.6953 8.875C12.5 8.91406 12.3438 8.875 12.3047 8.875L6.83594 6.92188L12.6562 5.125C13.0078 5.00781 13.1641 4.65625 13.0859 4.34375C12.9688 3.99219 12.6172 3.79688 12.3047 3.91406L4.88281 6.21875L3.63281 5.75L12.2656 2.66406C12.4219 2.625 12.5781 2.66406 12.6562 2.66406L21.3281 5.75L12.6953 8.875ZM17.6562 10.3984L18.125 14.7734C18.125 15.2031 16.1719 16.375 12.5 16.375C8.78906 16.375 6.875 15.2031 6.875 14.7734L7.30469 10.3984L5.50781 9.77344L5 14.6953C5 17.0781 8.75 18.25 12.5 18.25C16.2109 18.25 20 17.0781 19.9609 14.6953L19.4531 9.77344L17.6562 10.3984Z" fill="#777777"/>
</svg>
