<svg width="114" height="64" viewBox="0 0 114 64" fill="none" xmlns="http://www.w3.org/2000/svg">
<path d="M12.8203 51.6328C12.8203 50.5282 13.7157 49.6328 14.8203 49.6328H29.9112C31.0158 49.6328 31.9112 50.5282 31.9112 51.6328V54.451C31.9112 55.5556 31.0158 56.451 29.9112 56.451H14.8203C13.7157 56.451 12.8203 55.5556 12.8203 54.451V51.6328Z" fill="white"/>
<path fill-rule="evenodd" clip-rule="evenodd" d="M11.8203 51.6328C11.8203 49.976 13.1635 48.6328 14.8203 48.6328H29.9112C31.5681 48.6328 32.9112 49.976 32.9112 51.6328V54.451C32.9112 56.1078 31.5681 57.451 29.9112 57.451H14.8203C13.1635 57.451 11.8203 56.1079 11.8203 54.451V51.6328ZM14.8203 50.6328C14.268 50.6328 13.8203 51.0805 13.8203 51.6328V54.451C13.8203 55.0033 14.268 55.451 14.8203 55.451H29.9112C30.4635 55.451 30.9112 55.0033 30.9112 54.451V51.6328C30.9112 51.0805 30.4635 50.6328 29.9112 50.6328H14.8203Z" fill="#99A2B4"/>
<path d="M15.5469 49.6328H29.1832V47.7237C29.1832 45.5146 27.3924 43.7237 25.1832 43.7237H19.5469C17.3377 43.7237 15.5469 45.5146 15.5469 47.7237V49.6328Z" fill="white"/>
<path fill-rule="evenodd" clip-rule="evenodd" d="M14.5469 50.6328H30.1832V47.7237C30.1832 44.9623 27.9447 42.7237 25.1832 42.7237H19.5469C16.7855 42.7237 14.5469 44.9623 14.5469 47.7237V50.6328ZM16.5469 48.6328V47.7237C16.5469 46.0669 17.89 44.7237 19.5469 44.7237H25.1832C26.8401 44.7237 28.1832 46.0669 28.1832 47.7237V48.6328H16.5469Z" fill="#99A2B4"/>
<path d="M18.7266 43.7266H25.9993V37.8175H18.7266V43.7266Z" fill="white"/>
<path fill-rule="evenodd" clip-rule="evenodd" d="M17.7266 44.7266H26.9993V36.8175H17.7266V44.7266ZM19.7266 42.7266V38.8175H24.9993V42.7266H19.7266Z" fill="#99A2B4"/>
<path d="M9.63672 25.5462C9.63672 32.5752 15.3349 38.2734 22.364 38.2734L-nan -nanL22.364 38.2734C29.3931 38.2734 35.0913 32.5752 35.0913 25.5462V11.0007H9.63672V25.5462Z" fill="white"/>
<path fill-rule="evenodd" clip-rule="evenodd" d="M8.63672 25.5462C8.63672 33.1275 14.7826 39.2734 22.364 39.2734C29.9454 39.2734 36.0913 33.1275 36.0913 25.5462V10.0007H8.63672V25.5462ZM22.364 37.2734C15.8872 37.2734 10.6367 32.023 10.6367 25.5462V12.0007H34.0913V25.5462C34.0913 32.023 28.8408 37.2734 22.364 37.2734Z" fill="#99A2B4"/>
<path d="M35.0898 25.543L-nan -nanL35.0898 25.543C39.8596 25.543 43.7262 21.6763 43.7262 16.9066V12.8157H35.0898V25.543Z" fill="white"/>
<path fill-rule="evenodd" clip-rule="evenodd" d="M35.0898 25.543H34.0898V11.8157H44.7262V16.9066C44.7262 22.2286 40.4119 26.543 35.0898 26.543V25.543ZM42.7262 16.9066C42.7262 20.7851 39.8347 23.9883 36.0898 24.4781V13.8157H42.7262V16.9066Z" fill="#99A2B4"/>
<path d="M9.63672 25.543L-nan -nanL9.63672 25.543C4.86699 25.543 1.00036 21.6763 1.00036 16.9066V12.8157H9.63672V25.543Z" fill="white"/>
<path fill-rule="evenodd" clip-rule="evenodd" d="M9.63672 25.543H10.6367V11.8157H0.000355721V16.9066C0.000355721 22.2286 4.3147 26.543 9.63672 26.543V25.543ZM2.00036 16.9066C2.00036 20.7851 4.89182 23.9883 8.63672 24.4781V13.8157H2.00036V16.9066Z" fill="#99A2B4"/>
<path d="M60.2621 18.5807L54.5803 24.2625C54.4471 24.3955 54.2666 24.4702 54.0784 24.4702C53.8902 24.4702 53.7097 24.3955 53.5765 24.2625L50.7375 21.4235C50.612 21.2889 50.5437 21.1108 50.547 20.9268C50.5502 20.7428 50.6248 20.5672 50.7549 20.4371C50.885 20.307 51.0606 20.2324 51.2446 20.2292C51.4286 20.226 51.6066 20.2943 51.7413 20.4197L54.0784 22.7559L59.2583 17.576C59.3239 17.5082 59.4023 17.4541 59.4889 17.4169C59.5756 17.3797 59.6688 17.3602 59.7631 17.3594C59.8574 17.3586 59.9509 17.3766 60.0382 17.4124C60.1255 17.4481 60.2047 17.5009 60.2714 17.5676C60.338 17.6343 60.3907 17.7137 60.4264 17.801C60.4621 17.8883 60.48 17.9818 60.4791 18.0761C60.4783 18.1704 60.4586 18.2636 60.4214 18.3502C60.3841 18.4369 60.33 18.5152 60.2621 18.5807Z" fill="#99A2B4"/>
<path d="M60.2621 28.5846L54.5803 34.2664C54.4471 34.3994 54.2666 34.4741 54.0784 34.4741C53.8902 34.4741 53.7097 34.3994 53.5765 34.2664L50.7375 31.4274C50.612 31.2928 50.5437 31.1147 50.547 30.9307C50.5502 30.7467 50.6248 30.5711 50.7549 30.441C50.885 30.3109 51.0606 30.2364 51.2446 30.2331C51.4286 30.2299 51.6066 30.2982 51.7413 30.4236L54.0784 32.7598L59.2583 27.5799C59.3239 27.5121 59.4023 27.458 59.4889 27.4208C59.5756 27.3836 59.6688 27.3641 59.7631 27.3633C59.8574 27.3625 59.9509 27.3805 60.0382 27.4163C60.1255 27.452 60.2047 27.5048 60.2714 27.5715C60.338 27.6383 60.3907 27.7176 60.4264 27.8049C60.4621 27.8922 60.48 27.9857 60.4791 28.08C60.4783 28.1743 60.4586 28.2675 60.4214 28.3541C60.3841 28.4408 60.33 28.5191 60.2621 28.5846Z" fill="#99A2B4"/>
<path d="M60.2621 38.5807L54.5803 44.2625C54.4471 44.3955 54.2666 44.4702 54.0784 44.4702C53.8902 44.4702 53.7097 44.3955 53.5765 44.2625L50.7375 41.4235C50.612 41.2889 50.5437 41.1108 50.547 40.9268C50.5502 40.7428 50.6248 40.5672 50.7549 40.4371C50.885 40.307 51.0606 40.2324 51.2446 40.2292C51.4286 40.226 51.6066 40.2943 51.7413 40.4197L54.0784 42.7559L59.2583 37.576C59.3239 37.5082 59.4023 37.4541 59.4889 37.4169C59.5756 37.3797 59.6688 37.3602 59.7631 37.3594C59.8574 37.3586 59.9509 37.3766 60.0382 37.4124C60.1255 37.4481 60.2047 37.5009 60.2714 37.5676C60.338 37.6343 60.3907 37.7137 60.4264 37.801C60.4621 37.8883 60.48 37.9818 60.4791 38.0761C60.4783 38.1704 60.4586 38.2636 60.4214 38.3502C60.3841 38.4369 60.33 38.5152 60.2621 38.5807Z" fill="#99A2B4"/>
<path d="M66 20C66 19.4477 66.5876 19 67.3125 19H99.6875C100.412 19 101 19.4477 101 20C101 20.5523 100.412 21 99.6875 21H67.3125C66.5876 21 66 20.5523 66 20Z" fill="#99A2B4"/>
<path d="M66 30C66 29.4477 66.7835 29 67.75 29H99.25C100.216 29 101 29.4477 101 30C101 30.5523 100.216 31 99.25 31H67.75C66.7835 31 66 30.5523 66 30Z" fill="#99A2B4"/>
<path d="M66 42C66 41.4477 66.584 41 67.3043 41H84.6957C85.416 41 86 41.4477 86 42C86 42.5523 85.416 43 84.6957 43H67.3043C66.584 43 66 42.5523 66 42Z" fill="#99A2B4"/>
<path fill-rule="evenodd" clip-rule="evenodd" d="M30.5 1.75C27.8766 1.75 25.75 3.87665 25.75 6.5H24.25C24.25 3.04822 27.0482 0.25 30.5 0.25H104.5C109.332 0.25 113.25 4.16751 113.25 9V58.5C113.25 61.3995 110.899 63.75 108 63.75H28.5C26.1528 63.75 24.25 61.8472 24.25 59.5H25.75C25.75 61.0188 26.9812 62.25 28.5 62.25H108C110.071 62.25 111.75 60.5711 111.75 58.5V9C111.75 4.99594 108.504 1.75 104.5 1.75H30.5Z" fill="#99A2B4"/>
</svg>
