<svg width="40" height="40" viewBox="0 0 40 40" fill="none" xmlns="http://www.w3.org/2000/svg">
<path d="M34.2655 27.529C32.1049 24.8846 30.5795 23.5385 30.5795 16.2482C30.5795 9.57212 27.1704 7.19363 24.3645 6.03846C23.9918 5.88534 23.641 5.53365 23.5274 5.15084C23.0352 3.47572 21.6554 2 19.8213 2C17.9871 2 16.6065 3.47656 16.1193 5.15252C16.0057 5.53954 15.6549 5.88534 15.2822 6.03846C12.4729 7.19531 9.06717 9.56539 9.06717 16.2482C9.06296 23.5385 7.5376 24.8846 5.37702 27.529C4.48183 28.6244 5.26597 30.2692 6.83171 30.2692H32.8192C34.3765 30.2692 35.1556 28.6194 34.2655 27.529Z" stroke="#99A2B4" stroke-width="2.90663" stroke-linecap="round" stroke-linejoin="round"/>
<path d="M25.2056 30.2692V31.6153C25.2056 33.0434 24.6383 34.413 23.6284 35.4228C22.6186 36.4327 21.249 37 19.8209 37C18.3929 37 17.0233 36.4327 16.0134 35.4228C15.0036 34.413 14.4363 33.0434 14.4363 31.6153V30.2692" stroke="#99A2B4" stroke-width="2.90663" stroke-linecap="round" stroke-linejoin="round"/>
</svg>
