<svg width="40" height="40" viewBox="0 0 40 40" fill="none" xmlns="http://www.w3.org/2000/svg">
<path fill-rule="evenodd" clip-rule="evenodd" d="M32.2222 37.7778C33.6956 37.7778 35.1087 37.1925 36.1506 36.1506C37.1925 35.1087 37.7778 33.6956 37.7778 32.2222C37.7778 30.7488 37.1925 29.3357 36.1506 28.2938C35.1087 27.252 33.6956 26.6667 32.2222 26.6667C30.7488 26.6667 29.3357 27.252 28.2938 28.2938C27.252 29.3357 26.6667 30.7488 26.6667 32.2222C26.6667 33.6956 27.252 35.1087 28.2938 36.1506C29.3357 37.1925 30.7488 37.7778 32.2222 37.7778ZM32.2222 40C34.285 40 36.2633 39.1806 37.7219 37.7219C39.1806 36.2633 40 34.285 40 32.2222C40 30.1594 39.1806 28.1811 37.7219 26.7225C36.2633 25.2639 34.285 24.4444 32.2222 24.4444C30.1594 24.4444 28.1811 25.2639 26.7225 26.7225C25.2639 28.1811 24.4444 30.1594 24.4444 32.2222C24.4444 34.285 25.2639 36.2633 26.7225 37.7219C28.1811 39.1806 30.1594 40 32.2222 40V40Z" fill="#99A2B4"/>
<path fill-rule="evenodd" clip-rule="evenodd" d="M32.2222 28.3333C32.5169 28.3333 32.7995 28.4504 33.0079 28.6588C33.2163 28.8671 33.3333 29.1498 33.3333 29.4444V31.7622L34.1189 32.5478C34.3213 32.7573 34.4333 33.038 34.4308 33.3293C34.4282 33.6207 34.3114 33.8993 34.1054 34.1054C33.8994 34.3114 33.6207 34.4282 33.3293 34.4308C33.038 34.4333 32.7573 34.3213 32.5478 34.1189L31.1111 32.6822V29.4444C31.1111 29.1498 31.2282 28.8671 31.4366 28.6588C31.6449 28.4504 31.9275 28.3333 32.2222 28.3333Z" fill="#99A2B4"/>
<path fill-rule="evenodd" clip-rule="evenodd" d="M8.8889 18.8889H6.66668V21.1111H8.8889V18.8889ZM6.66668 16.6667C6.07731 16.6667 5.51208 16.9008 5.09533 17.3175C4.67858 17.7343 4.44446 18.2995 4.44446 18.8889V21.1111C4.44446 21.7005 4.67858 22.2657 5.09533 22.6825C5.51208 23.0992 6.07731 23.3333 6.66668 23.3333H8.8889C9.47827 23.3333 10.0435 23.0992 10.4603 22.6825C10.877 22.2657 11.1111 21.7005 11.1111 21.1111V18.8889C11.1111 18.2995 10.877 17.7343 10.4603 17.3175C10.0435 16.9008 9.47827 16.6667 8.8889 16.6667H6.66668Z" fill="#99A2B4"/>
<path fill-rule="evenodd" clip-rule="evenodd" d="M17.7778 18.8889H15.5556V21.1111H17.7778V18.8889ZM15.5556 16.6667C14.9662 16.6667 14.4009 16.9008 13.9842 17.3175C13.5675 17.7343 13.3333 18.2995 13.3333 18.8889V21.1111C13.3333 21.7005 13.5675 22.2657 13.9842 22.6825C14.4009 23.0992 14.9662 23.3333 15.5556 23.3333H17.7778C18.3671 23.3333 18.9324 23.0992 19.3491 22.6825C19.7659 22.2657 20 21.7005 20 21.1111V18.8889C20 18.2995 19.7659 17.7343 19.3491 17.3175C18.9324 16.9008 18.3671 16.6667 17.7778 16.6667H15.5556Z" fill="#99A2B4"/>
<path fill-rule="evenodd" clip-rule="evenodd" d="M26.6667 18.8889H24.4445V21.1111H26.6667V18.8889ZM24.4445 16.6667C23.8551 16.6667 23.2899 16.9008 22.8731 17.3175C22.4564 17.7343 22.2222 18.2995 22.2222 18.8889V21.1111C22.2222 21.7005 22.4564 22.2657 22.8731 22.6825C23.2899 23.0992 23.8551 23.3333 24.4445 23.3333H26.6667C27.256 23.3333 27.8213 23.0992 28.238 22.6825C28.6548 22.2657 28.8889 21.7005 28.8889 21.1111V18.8889C28.8889 18.2995 28.6548 17.7343 28.238 17.3175C27.8213 16.9008 27.256 16.6667 26.6667 16.6667H24.4445Z" fill="#99A2B4"/>
<path fill-rule="evenodd" clip-rule="evenodd" d="M8.8889 27.7778H6.66668V30H8.8889V27.7778ZM6.66668 25.5556C6.07731 25.5556 5.51208 25.7897 5.09533 26.2064C4.67858 26.6232 4.44446 27.1884 4.44446 27.7778V30C4.44446 30.5894 4.67858 31.1546 5.09533 31.5714C5.51208 31.9881 6.07731 32.2222 6.66668 32.2222H8.8889C9.47827 32.2222 10.0435 31.9881 10.4603 31.5714C10.877 31.1546 11.1111 30.5894 11.1111 30V27.7778C11.1111 27.1884 10.877 26.6232 10.4603 26.2064C10.0435 25.7897 9.47827 25.5556 8.8889 25.5556H6.66668Z" fill="#99A2B4"/>
<path fill-rule="evenodd" clip-rule="evenodd" d="M17.7778 27.7778H15.5556V30H17.7778V27.7778ZM15.5556 25.5556C14.9662 25.5556 14.4009 25.7897 13.9842 26.2064C13.5675 26.6232 13.3333 27.1884 13.3333 27.7778V30C13.3333 30.5894 13.5675 31.1546 13.9842 31.5714C14.4009 31.9881 14.9662 32.2222 15.5556 32.2222H17.7778C18.3671 32.2222 18.9324 31.9881 19.3491 31.5714C19.7659 31.1546 20 30.5894 20 30V27.7778C20 27.1884 19.7659 26.6232 19.3491 26.2064C18.9324 25.7897 18.3671 25.5556 17.7778 25.5556H15.5556Z" fill="#99A2B4"/>
<path fill-rule="evenodd" clip-rule="evenodd" d="M2.22222 6.66667C2.22222 6.37198 2.33929 6.08936 2.54766 5.88099C2.75603 5.67262 3.03865 5.55555 3.33333 5.55555H8.88889V3.33333H3.33333C2.44928 3.33333 1.60143 3.68452 0.976311 4.30964C0.35119 4.93476 0 5.78261 0 6.66667V33.3333C0 34.2174 0.35119 35.0652 0.976311 35.6904C1.60143 36.3155 2.44928 36.6667 3.33333 36.6667H25.8389C25.3651 35.988 25.0031 35.2377 24.7667 34.4444H3.33333C3.03865 34.4444 2.75603 34.3274 2.54766 34.119C2.33929 33.9106 2.22222 33.628 2.22222 33.3333V6.66667ZM31.1111 24.5222C31.8481 24.4168 32.5963 24.4168 33.3333 24.5222V6.66667C33.3333 5.78261 32.9821 4.93476 32.357 4.30964C31.7319 3.68452 30.8841 3.33333 30 3.33333H26.6667V5.55555H30C30.2947 5.55555 30.5773 5.67262 30.7857 5.88099C30.994 6.08936 31.1111 6.37198 31.1111 6.66667V24.5222ZM11.1111 5.55555H22.8478V3.33333H11.1111V5.55555Z" fill="#99A2B4"/>
<path fill-rule="evenodd" clip-rule="evenodd" d="M33.3333 13.3333H2.22223V11.1111H33.3333V13.3333Z" fill="#99A2B4"/>
<path d="M6.66667 1.11111C6.66667 0.816426 6.78374 0.533811 6.99211 0.325437C7.20048 0.117063 7.4831 0 7.77778 0C8.07247 0 8.35508 0.117063 8.56346 0.325437C8.77183 0.533811 8.88889 0.816426 8.88889 1.11111V6.66667C8.88889 6.96135 8.77183 7.24397 8.56346 7.45234C8.35508 7.66071 8.07247 7.77778 7.77778 7.77778C7.4831 7.77778 7.20048 7.66071 6.99211 7.45234C6.78374 7.24397 6.66667 6.96135 6.66667 6.66667V1.11111Z" fill="#99A2B4"/>
<path d="M22.2222 1.11111C22.2222 0.816426 22.3393 0.533811 22.5477 0.325437C22.756 0.117063 23.0387 0 23.3333 0C23.628 0 23.9106 0.117063 24.119 0.325437C24.3274 0.533811 24.4445 0.816426 24.4445 1.11111V6.66667C24.4445 6.96135 24.3274 7.24397 24.119 7.45234C23.9106 7.66071 23.628 7.77778 23.3333 7.77778C23.0387 7.77778 22.756 7.66071 22.5477 7.45234C22.3393 7.24397 22.2222 6.96135 22.2222 6.66667V1.11111Z" fill="#99A2B4"/>
</svg>
