<svg width="40" height="40" viewBox="0 0 40 40" fill="none" xmlns="http://www.w3.org/2000/svg">
<path d="M20 0C8.95418 0 0 8.95418 0 20C0 31.0458 8.95418 40 20 40C31.0458 40 40 31.0458 40 20C40 8.95418 31.0458 0 20 0V0ZM31.5398 18.5799C30.5926 19.6694 29.3464 20.4569 27.9558 20.8448C26.5652 21.2328 25.0913 21.2041 23.7168 20.7624L13.8269 32.1371C13.3183 32.7106 12.6037 33.06 11.8387 33.1094C11.0738 33.1588 10.3202 32.904 9.7421 32.4006C9.16397 31.8973 8.80802 31.1859 8.75169 30.4214C8.69536 29.6569 8.94321 28.9011 9.44131 28.3184L19.3464 16.9327C18.7411 15.671 18.508 14.2628 18.6746 12.8734C18.8412 11.4839 19.4005 10.1708 20.287 9.08792C21.1734 8.00505 22.3502 7.19738 23.6794 6.75959C25.0085 6.32181 26.435 6.27207 27.7914 6.61621L24.0003 11.0362L25.2387 14.6415L28.9858 15.3709L32.7838 10.9399C33.3087 12.2029 33.4706 13.5873 33.2513 14.9373C33.032 16.2873 32.4402 17.5493 31.5426 18.5813L31.5398 18.5799Z" fill="#99A2B4"/>
</svg>
