<svg width="33" height="40" viewBox="0 0 33 40" fill="none" xmlns="http://www.w3.org/2000/svg">
<path d="M18.1818 40H14.5455V0H18.1818V40ZM10.9091 32.7273H3.63636V7.27273H10.9091V3.63636H3.63636C1.61818 3.63636 0 5.25455 0 7.27273V32.7273C0 33.6917 0.383116 34.6166 1.06507 35.2986C1.74702 35.9805 2.67194 36.3636 3.63636 36.3636H10.9091V32.7273ZM29.0909 10.9091V14.5455H32.7273V10.9091H29.0909ZM29.0909 7.27273H32.7273C32.7273 6.3083 32.3442 5.38338 31.6622 4.70143C30.9803 4.01948 30.0553 3.63636 29.0909 3.63636V7.27273ZM32.7273 25.4545H29.0909V29.0909H32.7273V25.4545ZM29.0909 18.1818V21.8182H32.7273V18.1818H29.0909ZM25.4545 3.63636H21.8182V7.27273H25.4545V3.63636ZM29.0909 36.3636C31.1091 36.3636 32.7273 34.7455 32.7273 32.7273H29.0909V36.3636ZM25.4545 32.7273H21.8182V36.3636H25.4545V32.7273Z" fill="#99A2B4"/>
</svg>
