<svg width="40" height="40" viewBox="0 0 40 40" fill="none" xmlns="http://www.w3.org/2000/svg">
<path d="M30.5652 3.47827H11.1461C10.7358 2.3179 9.92857 1.33992 8.86699 0.717173C7.80541 0.0944305 6.55785 -0.132975 5.34481 0.0751487C4.13178 0.283273 3.03137 0.913526 2.23808 1.85451C1.44479 2.7955 1.00969 3.98664 1.00969 5.2174C1.00969 6.44816 1.44479 7.6393 2.23808 8.58029C3.03137 9.52128 4.13178 10.1515 5.34481 10.3597C6.55785 10.5678 7.80541 10.3404 8.86699 9.71763C9.92857 9.09489 10.7358 8.1169 11.1461 6.95653H30.5652C31.9489 6.95653 33.276 7.50622 34.2545 8.48467C35.2329 9.46312 35.7826 10.7902 35.7826 12.1739C35.7826 13.5577 35.2329 14.8847 34.2545 15.8632C33.276 16.8416 31.9489 17.3913 30.5652 17.3913H25.0556C24.6897 16.3847 24.0229 15.5151 23.1456 14.9005C22.2684 14.286 21.2232 13.9564 20.1522 13.9564C19.0811 13.9564 18.036 14.286 17.1587 14.9005C16.2815 15.5151 15.6146 16.3847 15.2487 17.3913H9.69565C7.38942 17.3913 5.17765 18.3075 3.5469 19.9382C1.91615 21.569 1 23.7807 1 26.087C1 28.3932 1.91615 30.605 3.5469 32.2357C5.17765 33.8665 7.38942 34.7826 9.69565 34.7826H20.1304V40L27.087 33.0435L20.1304 26.087V31.3044H9.69565C8.31191 31.3044 6.98485 30.7547 6.0064 29.7762C5.02795 28.7978 4.47826 27.4707 4.47826 26.087C4.47826 24.7032 5.02795 23.3762 6.0064 22.3977C6.98485 21.4193 8.31191 20.8696 9.69565 20.8696H15.2661C15.6354 21.8704 16.3026 22.7339 17.1778 23.3439C18.053 23.9538 19.0941 24.2808 20.1609 24.2808C21.2276 24.2808 22.2688 23.9538 23.144 23.3439C24.0192 22.7339 24.6863 21.8704 25.0556 20.8696H30.5652C32.8714 20.8696 35.0832 19.9534 36.714 18.3227C38.3447 16.6919 39.2609 14.4802 39.2609 12.1739C39.2609 9.86769 38.3447 7.65592 36.714 6.02517C35.0832 4.39442 32.8714 3.47827 30.5652 3.47827V3.47827ZM6.21739 6.95653C5.87342 6.95653 5.53718 6.85453 5.25118 6.66343C4.96518 6.47234 4.74227 6.20072 4.61064 5.88294C4.47901 5.56515 4.44457 5.21547 4.51168 4.87811C4.57878 4.54076 4.74442 4.23087 4.98764 3.98765C5.23086 3.74443 5.54074 3.57879 5.8781 3.51169C6.21546 3.44458 6.56514 3.47902 6.88293 3.61065C7.20071 3.74228 7.47233 3.96519 7.66342 4.25119C7.85452 4.53719 7.95652 4.87343 7.95652 5.2174C7.95652 5.67865 7.77329 6.121 7.44714 6.44715C7.12099 6.7733 6.67864 6.95653 6.21739 6.95653ZM20.1304 20.8696C19.7865 20.8696 19.4502 20.7676 19.1642 20.5765C18.8782 20.3854 18.6553 20.1138 18.5237 19.796C18.3921 19.4782 18.3576 19.1285 18.4247 18.7912C18.4918 18.4538 18.6575 18.1439 18.9007 17.9007C19.1439 17.6575 19.4538 17.4918 19.7911 17.4247C20.1285 17.3576 20.4782 17.3921 20.796 17.5237C21.1138 17.6553 21.3854 17.8782 21.5765 18.1642C21.7676 18.4502 21.8696 18.7865 21.8696 19.1304C21.8696 19.5917 21.6863 20.034 21.3602 20.3602C21.034 20.6863 20.5917 20.8696 20.1304 20.8696Z" fill="#99A2B4"/>
<path d="M34.0435 27.8261C33.0116 27.8261 32.0028 28.1321 31.1448 28.7054C30.2869 29.2787 29.6181 30.0935 29.2232 31.0469C28.8283 32.0002 28.725 33.0493 28.9263 34.0613C29.1276 35.0734 29.6246 36.0031 30.3542 36.7327C31.0839 37.4624 32.0135 37.9593 33.0256 38.1606C34.0377 38.3619 35.0867 38.2586 36.0401 37.8637C36.9934 37.4688 37.8083 36.8001 38.3816 35.9421C38.9549 35.0841 39.2609 34.0754 39.2609 33.0435C39.2609 31.6597 38.7112 30.3327 37.7327 29.3542C36.7543 28.3758 35.4272 27.8261 34.0435 27.8261ZM34.0435 34.7826C33.6995 34.7826 33.3633 34.6806 33.0773 34.4895C32.7913 34.2984 32.5684 34.0268 32.4367 33.709C32.3051 33.3912 32.2707 33.0415 32.3378 32.7042C32.4049 32.3668 32.5705 32.0569 32.8137 31.8137C33.0569 31.5705 33.3668 31.4049 33.7042 31.3378C34.0415 31.2707 34.3912 31.3051 34.709 31.4367C35.0268 31.5684 35.2984 31.7913 35.4895 32.0773C35.6806 32.3633 35.7826 32.6995 35.7826 33.0435C35.7826 33.5047 35.5994 33.9471 35.2732 34.2732C34.9471 34.5994 34.5047 34.7826 34.0435 34.7826Z" fill="#99A2B4"/>
</svg>
