<svg width="40" height="40" viewBox="0 0 40 40" fill="none" xmlns="http://www.w3.org/2000/svg">
<path d="M34.1811 19.4754C32.2501 17.4371 29.6754 16.0425 26.9934 15.5061C25.8134 15.1843 24.6333 14.9697 23.4533 14.8624C26.457 11.3223 25.9207 5.95835 22.3805 2.95457C18.8403 -0.0492175 13.4764 0.487173 10.4726 4.02735C7.46883 7.56753 8.00522 12.9314 11.5454 15.9352C12.1891 16.4716 12.8327 16.9007 13.4764 17.1153V19.4754L11.76 17.8662C10.2581 16.3643 7.79067 16.3643 6.18149 17.8662C4.6796 19.3681 4.57232 21.7282 6.07422 23.2301L11.009 29.0231C11.2236 30.525 11.76 31.9196 12.5109 33.207C13.0473 34.1725 13.7982 35.138 14.5492 35.8889V37.9272C14.5492 38.5709 14.9783 39 15.622 39H30.2118C30.7482 39 31.2846 38.4636 31.2846 37.9272V35.138C33.3228 32.6706 34.3956 29.5595 34.3956 26.4485V20.2263C34.5029 19.7972 34.3956 19.5827 34.1811 19.4754V19.4754ZM10.5799 9.39125C10.5799 5.85108 13.4764 3.06185 17.0166 3.16912C20.5568 3.16912 23.346 6.06563 23.2387 9.60581C23.2387 11.5368 22.3805 13.2533 20.8786 14.4333V9.06942C20.8238 8.13972 20.4155 7.26618 19.7373 6.62789C19.0591 5.9896 18.1625 5.63491 17.2311 5.63652C15.3001 5.52924 13.5837 7.13841 13.5837 9.06942V14.6479C11.76 13.5751 10.6872 11.5368 10.5799 9.39125ZM32.3573 26.3412C32.4646 29.1304 31.4991 31.8124 29.6754 33.9579C29.4608 34.1725 29.2463 34.387 29.2463 34.7089V36.9617H16.802V35.4598C16.802 35.138 16.5875 34.8162 16.3729 34.6016C15.622 33.9579 14.9783 33.207 14.4419 32.2415C13.7982 31.1687 13.3691 29.8814 13.1546 28.594C13.1546 28.3795 13.0473 28.1649 12.94 27.9504L7.79067 21.8355C7.46883 21.5137 7.25428 21.0846 7.25428 20.5482C7.25428 20.1191 7.46883 19.5827 7.79067 19.2608C8.54161 18.6172 9.61439 18.6172 10.3653 19.2608L13.4764 22.3719V25.5902L15.5147 24.5175V9.06942C15.622 8.31847 16.2656 7.6748 17.1239 7.78208C17.8748 7.78208 18.6258 8.31847 18.6258 9.06942V21.4064L20.7713 21.8355V16.9007C20.8786 16.7934 20.9859 16.7934 21.0931 16.6862C21.8441 16.6862 22.595 16.7934 23.346 16.9007V22.3719L25.0624 22.6937V17.1153L26.3498 17.4371C26.8862 17.5444 27.4226 17.7589 27.9589 17.9735V23.3374L29.6754 23.6592V18.7244C30.6409 19.1536 31.4991 19.7972 32.2501 20.5482L32.3573 26.3412V26.3412Z" fill="#99A2B4"/>
</svg>
