<svg width="40" height="40" viewBox="0 0 40 40" fill="none" xmlns="http://www.w3.org/2000/svg">
<g clip-path="url(#clip0)">
<path d="M3 5.41667C3 3.98008 3.57068 2.60233 4.5865 1.5865C5.60233 0.570683 6.98008 0 8.41667 0H30.9167C32.3533 0 33.731 0.570683 34.7468 1.5865C35.7627 2.60233 36.3333 3.98008 36.3333 5.41667V20.6317C36.1333 20.765 35.9417 20.9217 35.765 21.0983L33.8333 21.03V5.41667C33.8333 4.64312 33.526 3.90125 32.9791 3.35427C32.4321 2.80729 31.6902 2.5 30.9167 2.5H8.41667C7.64312 2.5 6.90125 2.80729 6.35427 3.35427C5.80729 3.90125 5.5 4.64312 5.5 5.41667V34.5833C5.5 36.1933 6.80667 37.5 8.41667 37.5H22.8633L22.3633 40H8.41667C6.98008 40 5.60233 39.4293 4.5865 38.4135C3.57068 37.3977 3 36.0199 3 34.5833V5.41667Z" fill="#99A2B4"/>
<path d="M13.8323 11.2499C13.8323 11.8025 13.6128 12.3324 13.2221 12.7231C12.8314 13.1138 12.3015 13.3333 11.749 13.3333C11.1964 13.3333 10.6665 13.1138 10.2758 12.7231C9.88514 12.3324 9.66565 11.8025 9.66565 11.2499C9.66565 10.6974 9.88514 10.1675 10.2758 9.7768C10.6665 9.3861 11.1964 9.1666 11.749 9.1666C12.3015 9.1666 12.8314 9.3861 13.2221 9.7768C13.6128 10.1675 13.8323 10.6974 13.8323 11.2499Z" fill="#99A2B4"/>
<path d="M11.749 22.0833C12.3015 22.0833 12.8314 21.8638 13.2221 21.4731C13.6128 21.0824 13.8323 20.5525 13.8323 19.9999C13.8323 19.4474 13.6128 18.9175 13.2221 18.5268C12.8314 18.1361 12.3015 17.9166 11.749 17.9166C11.1964 17.9166 10.6665 18.1361 10.2758 18.5268C9.88514 18.9175 9.66565 19.4474 9.66565 19.9999C9.66565 20.5525 9.88514 21.0824 10.2758 21.4731C10.6665 21.8638 11.1964 22.0833 11.749 22.0833V22.0833Z" fill="#99A2B4"/>
<path d="M11.749 30.8333C12.3015 30.8333 12.8314 30.6138 13.2221 30.2231C13.6128 29.8324 13.8323 29.3025 13.8323 28.7499C13.8323 28.1974 13.6128 27.6675 13.2221 27.2768C12.8314 26.8861 12.3015 26.6666 11.749 26.6666C11.1964 26.6666 10.6665 26.8861 10.2758 27.2768C9.88514 27.6675 9.66565 28.1974 9.66565 28.7499C9.66565 29.3025 9.88514 29.8324 10.2758 30.2231C10.6665 30.6138 11.1964 30.8333 11.749 30.8333V30.8333Z" fill="#99A2B4"/>
<path d="M17.5844 10C17.2528 10 16.9349 10.1317 16.7005 10.3661C16.466 10.6005 16.3344 10.9185 16.3344 11.25C16.3344 11.5815 16.466 11.8995 16.7005 12.1339C16.9349 12.3683 17.2528 12.5 17.5844 12.5H28.4177C28.7492 12.5 29.0671 12.3683 29.3016 12.1339C29.536 11.8995 29.6677 11.5815 29.6677 11.25C29.6677 10.9185 29.536 10.6005 29.3016 10.3661C29.0671 10.1317 28.7492 10 28.4177 10H17.5844Z" fill="#99A2B4"/>
<path d="M16.3344 20C16.3344 19.6685 16.466 19.3505 16.7005 19.1161C16.9349 18.8817 17.2528 18.75 17.5844 18.75H28.4177C28.7492 18.75 29.0671 18.8817 29.3016 19.1161C29.536 19.3505 29.6677 19.6685 29.6677 20C29.6677 20.3315 29.536 20.6495 29.3016 20.8839C29.0671 21.1183 28.7492 21.25 28.4177 21.25H17.5844C17.2528 21.25 16.9349 21.1183 16.7005 20.8839C16.466 20.6495 16.3344 20.3315 16.3344 20V20Z" fill="#99A2B4"/>
<path d="M17.5844 27.5C17.2528 27.5 16.9349 27.6317 16.7005 27.8661C16.466 28.1005 16.3344 28.4185 16.3344 28.75C16.3344 29.0815 16.466 29.3995 16.7005 29.6339C16.9349 29.8683 17.2528 30 17.5844 30H23.4177C23.7492 30 24.0671 29.8683 24.3016 29.6339C24.536 29.3995 24.6677 29.0815 24.6677 28.75C24.6677 28.4185 24.536 28.1005 24.3016 27.8661C24.0671 27.6317 23.7492 27.5 23.4177 27.5H17.5844Z" fill="#99A2B4"/>
<path d="M32.5 40V27" stroke="#99A2B4" stroke-width="2" stroke-linecap="round" stroke-linejoin="round"/>
<path d="M28 31.5L29.5 30L32.5 27L35.5 30L37 31.5" stroke="#99A2B4" stroke-width="2" stroke-linecap="round" stroke-linejoin="round"/>
</g>
<defs>
<clipPath id="clip0">
<rect width="40" height="40" fill="white"/>
</clipPath>
</defs>
</svg>
