<svg width="15" height="12" viewBox="0 0 15 12" fill="none" xmlns="http://www.w3.org/2000/svg">
<path d="M12.9 0C14.06 0 15 0.94 15 2.1V9.9C15 11.06 14.06 12 12.9 12H2.1C1.54305 12 1.0089 11.7788 0.615076 11.3849C0.221249 10.9911 0 10.457 0 9.9V2.1C0 0.94 0.94 0 2.1 0L12.9 0ZM14 3.7404L7.7408 7.238C7.67537 7.27398 7.60272 7.29484 7.52817 7.29906C7.45362 7.30329 7.37907 7.29076 7.31 7.2624L7.2592 7.2384L1 3.74V9.9C1 10.1917 1.11589 10.4715 1.32218 10.6778C1.52847 10.8841 1.80826 11 2.1 11H12.9C13.1917 11 13.4715 10.8841 13.6778 10.6778C13.8841 10.4715 14 10.1917 14 9.9V3.7404ZM12.9 1H2.1C1.80826 1 1.52847 1.11589 1.32218 1.32218C1.11589 1.52847 1 1.80826 1 2.1V2.5996L7.5 6.2292L14 2.5992V2.1C14 1.80826 13.8841 1.52847 13.6778 1.32218C13.4715 1.11589 13.1917 1 12.9 1Z" fill="#99A2B4"/>
</svg>
