<svg width="108" height="14" viewBox="0 0 108 14" fill="none" xmlns="http://www.w3.org/2000/svg">
<path d="M9.41532 6.61832L6.91463 7.06971C6.83037 6.57017 6.63777 6.19401 6.33685 5.94123C6.04194 5.68846 5.65676 5.56207 5.18129 5.56207C4.54935 5.56207 4.04379 5.78174 3.66463 6.22109C3.29148 6.65443 3.1049 7.38267 3.1049 8.40582C3.1049 9.54332 3.29449 10.3468 3.67365 10.8162C4.05884 11.2857 4.57342 11.5204 5.2174 11.5204C5.69889 11.5204 6.0931 11.385 6.40004 11.1141C6.70699 10.8373 6.92365 10.3648 7.05004 9.69679L9.54171 10.1211C9.28291 11.2646 8.78639 12.1283 8.05213 12.7121C7.31787 13.2959 6.33384 13.5878 5.10004 13.5878C3.69773 13.5878 2.57828 13.1454 1.74171 12.2607C0.911154 11.376 0.495877 10.1512 0.495877 8.58637C0.495877 7.0035 0.914164 5.77271 1.75074 4.89401C2.58731 4.00929 3.71879 3.56693 5.14518 3.56693C6.31277 3.56693 7.23963 3.81971 7.92574 4.32526C8.61787 4.8248 9.11439 5.58915 9.41532 6.61832ZM9.83602 8.44193C9.83602 7.59933 10.0437 6.78383 10.4589 5.9954C10.8742 5.20697 11.461 4.60512 12.2193 4.18984C12.9837 3.77457 13.8353 3.56693 14.7742 3.56693C16.2247 3.56693 17.4133 4.03938 18.3402 4.98429C19.267 5.92318 19.7305 7.11183 19.7305 8.55026C19.7305 10.0007 19.261 11.2044 18.3221 12.1614C17.3893 13.1123 16.2126 13.5878 14.7923 13.5878C13.9136 13.5878 13.074 13.3891 12.2735 12.9919C11.4791 12.5947 10.8742 12.0139 10.4589 11.2496C10.0437 10.4792 9.83602 9.54332 9.83602 8.44193ZM12.436 8.57734C12.436 9.52827 12.6617 10.2565 13.1131 10.7621C13.5645 11.2676 14.1212 11.5204 14.7832 11.5204C15.4453 11.5204 15.999 11.2676 16.4443 10.7621C16.8957 10.2565 17.1214 9.52225 17.1214 8.55929C17.1214 7.6204 16.8957 6.89818 16.4443 6.39262C15.999 5.88707 15.4453 5.63429 14.7832 5.63429C14.1212 5.63429 13.5645 5.88707 13.1131 6.39262C12.6617 6.89818 12.436 7.62642 12.436 8.57734ZM29.522 13.3711H26.9852V8.47804C26.9852 7.44285 26.931 6.7748 26.8227 6.47387C26.7143 6.16693 26.5368 5.9292 26.29 5.76068C26.0493 5.59216 25.7574 5.5079 25.4143 5.5079C24.975 5.5079 24.5808 5.62827 24.2317 5.86901C23.8826 6.10975 23.6419 6.42873 23.5095 6.82596C23.3831 7.22318 23.3199 7.95744 23.3199 9.02873V13.3711H20.7831V3.78359H23.1393V5.19193C23.9759 4.10859 25.0292 3.56693 26.2991 3.56693C26.8588 3.56693 27.3704 3.66924 27.8338 3.87387C28.2972 4.07248 28.6463 4.32827 28.881 4.64123C29.1218 4.9542 29.2873 5.30929 29.3775 5.70651C29.4738 6.10373 29.522 6.67248 29.522 7.41276V13.3711ZM33.8156 13.3711L29.9517 3.78359H32.6149L34.4205 8.67665L34.9441 10.3107C35.0825 9.8954 35.1698 9.62156 35.2059 9.48915C35.2901 9.21832 35.3804 8.94748 35.4767 8.67665L37.3003 3.78359H39.9093L36.0996 13.3711H33.8156ZM46.0988 10.3197L48.6266 10.744C48.3016 11.6709 47.787 12.378 47.0828 12.8655C46.3847 13.347 45.509 13.5878 44.4557 13.5878C42.7886 13.5878 41.5548 13.0431 40.7543 11.9537C40.1224 11.081 39.8064 9.97966 39.8064 8.64957C39.8064 7.06068 40.2217 5.81785 41.0523 4.92109C41.8828 4.01832 42.933 3.56693 44.203 3.56693C45.6293 3.56693 46.7548 4.03938 47.5793 4.98429C48.4039 5.92318 48.7981 7.36461 48.762 9.30859H42.4064C42.4245 10.0609 42.6291 10.6477 43.0203 11.069C43.4115 11.4843 43.899 11.6919 44.4828 11.6919C44.88 11.6919 45.2141 11.5836 45.4849 11.3669C45.7557 11.1503 45.9604 10.8012 46.0988 10.3197ZM46.2432 7.75582C46.2252 7.02156 46.0356 6.46484 45.6745 6.08568C45.3134 5.70049 44.874 5.5079 44.3564 5.5079C43.8027 5.5079 43.3453 5.70952 42.9842 6.11276C42.6231 6.516 42.4455 7.06369 42.4516 7.75582H46.2432ZM52.3424 13.3711H49.8056V3.78359H52.1618V5.14679C52.5651 4.50281 52.9262 4.0785 53.2452 3.87387C53.5702 3.66924 53.9373 3.56693 54.3466 3.56693C54.9243 3.56693 55.4811 3.72642 56.0167 4.0454L55.2313 6.25721C54.804 5.98035 54.4068 5.84193 54.0396 5.84193C53.6845 5.84193 53.3836 5.94123 53.1368 6.13984C52.8901 6.33244 52.6945 6.68452 52.55 7.19609C52.4116 7.70767 52.3424 8.77896 52.3424 10.41V13.3711ZM60.5902 3.78359V5.80582H58.8568V9.66971C58.8568 10.4521 58.8719 10.9095 58.902 11.0419C58.9381 11.1683 59.0133 11.2736 59.1277 11.3579C59.2481 11.4422 59.3925 11.4843 59.561 11.4843C59.7957 11.4843 60.1358 11.403 60.5812 11.2405L60.7978 13.2086C60.208 13.4614 59.5399 13.5878 58.7937 13.5878C58.3362 13.5878 57.924 13.5125 57.5568 13.3621C57.1897 13.2056 56.9189 13.007 56.7443 12.7662C56.5758 12.5195 56.4585 12.1885 56.3923 11.7732C56.3381 11.4783 56.311 10.8824 56.311 9.98568V5.80582H55.1464V3.78359H56.311V1.87873L58.8568 0.398178V3.78359H60.5902ZM67.0378 13.3711H65.5302V0.136372H67.1552V4.8579C67.8413 3.99725 68.717 3.56693 69.7823 3.56693C70.3721 3.56693 70.9288 3.6873 71.4524 3.92804C71.982 4.16276 72.4154 4.49679 72.7524 4.93012C73.0955 5.35744 73.3633 5.87503 73.5559 6.4829C73.7485 7.09077 73.8448 7.74077 73.8448 8.4329C73.8448 10.076 73.4385 11.3459 72.626 12.2426C71.8135 13.1394 70.8385 13.5878 69.701 13.5878C68.5695 13.5878 67.6818 13.1153 67.0378 12.1704V13.3711ZM67.0198 8.50512C67.0198 9.65466 67.1762 10.4852 67.4892 10.9968C68.0008 11.8334 68.6929 12.2516 69.5656 12.2516C70.2758 12.2516 70.8897 11.9447 71.4073 11.3308C71.9249 10.7109 72.1837 9.79008 72.1837 8.56832C72.1837 7.31646 71.9339 6.39262 71.4343 5.79679C70.9408 5.20096 70.342 4.90304 69.6378 4.90304C68.9276 4.90304 68.3137 5.21299 67.7962 5.8329C67.2786 6.44679 67.0198 7.33753 67.0198 8.50512ZM74.3016 8.57734C74.3016 6.80188 74.7951 5.48683 75.7821 4.63221C76.6067 3.92202 77.6117 3.56693 78.7974 3.56693C80.1155 3.56693 81.1928 4.00026 82.0293 4.86693C82.8659 5.72758 83.2842 6.91924 83.2842 8.44193C83.2842 9.67572 83.0976 10.6477 82.7245 11.3579C82.3574 12.0621 81.8187 12.6098 81.1085 13.001C80.4043 13.3922 79.634 13.5878 78.7974 13.5878C77.4553 13.5878 76.3689 13.1574 75.5384 12.2968C74.7138 11.4361 74.3016 10.1963 74.3016 8.57734ZM75.9717 8.57734C75.9717 9.80512 76.2395 10.726 76.7752 11.3398C77.3108 11.9477 77.9849 12.2516 78.7974 12.2516C79.6039 12.2516 80.2749 11.9447 80.8106 11.3308C81.3462 10.7169 81.6141 9.78105 81.6141 8.52318C81.6141 7.33753 81.3432 6.44077 80.8016 5.8329C80.2659 5.21901 79.5979 4.91207 78.7974 4.91207C77.9849 4.91207 77.3108 5.216 76.7752 5.82387C76.2395 6.43174 75.9717 7.34957 75.9717 8.57734ZM84.2737 13.3711V3.78359H85.7271V5.12873C86.028 4.65929 86.4283 4.28313 86.9278 4.00026C87.4274 3.71137 87.9961 3.56693 88.6341 3.56693C89.3443 3.56693 89.925 3.71438 90.3764 4.00929C90.8338 4.3042 91.1558 4.71646 91.3424 5.24609C92.1007 4.12665 93.0878 3.56693 94.3035 3.56693C95.2544 3.56693 95.9857 3.83174 96.4973 4.36137C97.0088 4.88498 97.2646 5.69447 97.2646 6.78984V13.3711H95.6487V7.33151C95.6487 6.68151 95.5945 6.21508 95.4862 5.93221C95.3838 5.64332 95.1943 5.4116 94.9174 5.23707C94.6405 5.06253 94.3155 4.97526 93.9424 4.97526C93.2683 4.97526 92.7086 5.20096 92.2632 5.65234C91.8179 6.09771 91.5952 6.81392 91.5952 7.80096V13.3711H89.9702V7.14193C89.9702 6.41971 89.8378 5.87804 89.573 5.51693C89.3081 5.15582 88.8748 4.97526 88.273 4.97526C87.8155 4.97526 87.3912 5.09563 87 5.33637C86.6149 5.57711 86.335 5.9292 86.1605 6.39262C85.9859 6.85605 85.8987 7.5241 85.8987 8.39679V13.3711H84.2737ZM100.249 13.3711H98.7416V0.136372H100.367V4.8579C101.053 3.99725 101.928 3.56693 102.994 3.56693C103.583 3.56693 104.14 3.6873 104.664 3.92804C105.193 4.16276 105.627 4.49679 105.964 4.93012C106.307 5.35744 106.575 5.87503 106.767 6.4829C106.96 7.09077 107.056 7.74077 107.056 8.4329C107.056 10.076 106.65 11.3459 105.837 12.2426C105.025 13.1394 104.05 13.5878 102.912 13.5878C101.781 13.5878 100.893 13.1153 100.249 12.1704V13.3711ZM100.231 8.50512C100.231 9.65466 100.388 10.4852 100.701 10.9968C101.212 11.8334 101.904 12.2516 102.777 12.2516C103.487 12.2516 104.101 11.9447 104.619 11.3308C105.136 10.7109 105.395 9.79008 105.395 8.56832C105.395 7.31646 105.145 6.39262 104.646 5.79679C104.152 5.20096 103.553 4.90304 102.849 4.90304C102.139 4.90304 101.525 5.21299 101.008 5.8329C100.49 6.44679 100.231 7.33753 100.231 8.50512Z" fill="#33393E"/>
</svg>
