<svg width="171" height="30" viewBox="0 0 171 30" fill="none" xmlns="http://www.w3.org/2000/svg">
<path d="M15.4226 29.7006H3.14573C1.20726 29.7006 0.00726439 27.5546 0.930341 25.8751L7.02265 14.772L13.115 3.85543C14.1303 2.08266 16.5303 2.08266 17.5457 3.85543L23.638 14.772L29.8226 25.7818C30.7457 27.4613 29.5457 29.6073 27.6073 29.6073H15.4226V29.7006Z" fill="url(#paint0_linear)"/>
<path d="M15.4225 0.589844H27.3302C29.2687 0.589844 30.3764 2.64253 29.4533 4.32199L23.4533 15.0519L17.5456 25.6886C16.6225 27.368 14.2225 27.368 13.2071 25.6886L7.29943 15.0519L1.29943 4.32199C0.376355 2.64253 1.57635 0.589844 3.42251 0.589844H15.4225V0.589844Z" fill="url(#paint1_linear)"/>
<path d="M53.0879 13.3418L50.1123 13.8789C50.012 13.2845 49.7829 12.8369 49.4248 12.5361C49.0739 12.2354 48.6156 12.085 48.0498 12.085C47.2979 12.085 46.6963 12.3464 46.2451 12.8691C45.8011 13.3848 45.5791 14.2513 45.5791 15.4688C45.5791 16.8223 45.8047 17.7783 46.2559 18.3369C46.7142 18.8955 47.3265 19.1748 48.0928 19.1748C48.6657 19.1748 49.1348 19.0137 49.5 18.6914C49.8652 18.362 50.123 17.7998 50.2734 17.0049L53.2383 17.5098C52.9303 18.8704 52.3395 19.8981 51.4658 20.5928C50.5921 21.2874 49.4212 21.6348 47.9531 21.6348C46.2845 21.6348 44.9525 21.1084 43.957 20.0557C42.9688 19.0029 42.4746 17.5456 42.4746 15.6836C42.4746 13.8001 42.9723 12.3356 43.9678 11.29C44.9632 10.2373 46.3096 9.71094 48.0068 9.71094C49.3962 9.71094 50.499 10.0117 51.3154 10.6133C52.139 11.2077 52.7298 12.1172 53.0879 13.3418ZM53.5885 15.5117C53.5885 14.5091 53.8355 13.5387 54.3297 12.6006C54.8238 11.6624 55.5221 10.9463 56.4244 10.4521C57.3339 9.95801 58.3473 9.71094 59.4645 9.71094C61.1904 9.71094 62.6048 10.2731 63.7076 11.3975C64.8105 12.5146 65.3619 13.929 65.3619 15.6406C65.3619 17.3665 64.8033 18.7988 63.6861 19.9375C62.5761 21.069 61.176 21.6348 59.4859 21.6348C58.4404 21.6348 57.4413 21.3984 56.4889 20.9258C55.5436 20.4531 54.8238 19.762 54.3297 18.8525C53.8355 17.9359 53.5885 16.8223 53.5885 15.5117ZM56.6822 15.6729C56.6822 16.8044 56.9508 17.6709 57.4879 18.2725C58.025 18.874 58.6874 19.1748 59.4752 19.1748C60.263 19.1748 60.9218 18.874 61.4518 18.2725C61.9889 17.6709 62.2574 16.7972 62.2574 15.6514C62.2574 14.5342 61.9889 13.6748 61.4518 13.0732C60.9218 12.4717 60.263 12.1709 59.4752 12.1709C58.6874 12.1709 58.025 12.4717 57.4879 13.0732C56.9508 13.6748 56.6822 14.5413 56.6822 15.6729ZM77.0129 21.377H73.9943V15.5547C73.9943 14.3229 73.9299 13.528 73.801 13.1699C73.6721 12.8047 73.4608 12.5218 73.1672 12.3213C72.8807 12.1208 72.5334 12.0205 72.1252 12.0205C71.6024 12.0205 71.1333 12.1637 70.718 12.4502C70.3026 12.7367 70.0161 13.1162 69.8586 13.5889C69.7082 14.0615 69.633 14.9352 69.633 16.21V21.377H66.6145V9.96875H69.4182V11.6445C70.4136 10.3555 71.6669 9.71094 73.1779 9.71094C73.8439 9.71094 74.4527 9.83268 75.0041 10.0762C75.5555 10.3125 75.9709 10.6169 76.2502 10.9893C76.5367 11.3617 76.7336 11.7842 76.841 12.2568C76.9556 12.7295 77.0129 13.4062 77.0129 14.2871V21.377ZM82.1219 21.377L77.5242 9.96875H80.6932L82.8416 15.791L83.4646 17.7354C83.6294 17.2412 83.7332 16.9154 83.7762 16.7578C83.8764 16.4355 83.9839 16.1133 84.0984 15.791L86.2684 9.96875H89.3729L84.8396 21.377H82.1219ZM96.7377 17.7461L99.7455 18.251C99.3588 19.3538 98.7465 20.1953 97.9086 20.7754C97.0779 21.3483 96.0359 21.6348 94.7826 21.6348C92.7989 21.6348 91.3308 20.9867 90.3783 19.6904C89.6264 18.652 89.2504 17.3415 89.2504 15.7588C89.2504 13.8682 89.7445 12.3893 90.7328 11.3223C91.7211 10.248 92.9708 9.71094 94.4818 9.71094C96.1791 9.71094 97.5183 10.2731 98.4994 11.3975C99.4805 12.5146 99.9496 14.2298 99.9066 16.543H92.3441C92.3656 17.4382 92.6091 18.1364 93.0746 18.6377C93.5401 19.1318 94.1202 19.3789 94.8148 19.3789C95.2875 19.3789 95.685 19.25 96.0072 18.9922C96.3295 18.7344 96.573 18.319 96.7377 17.7461ZM96.9096 14.6953C96.8881 13.8216 96.6625 13.1592 96.2328 12.708C95.8031 12.2497 95.2803 12.0205 94.6645 12.0205C94.0056 12.0205 93.4613 12.2604 93.0316 12.7402C92.602 13.2201 92.3907 13.8717 92.3979 14.6953H96.9096ZM104.167 21.377H101.148V9.96875H103.952V11.5908C104.432 10.8245 104.862 10.3197 105.241 10.0762C105.628 9.83268 106.065 9.71094 106.552 9.71094C107.239 9.71094 107.902 9.90072 108.539 10.2803L107.604 12.9121C107.096 12.5827 106.623 12.418 106.187 12.418C105.764 12.418 105.406 12.5361 105.112 12.7725C104.819 13.0016 104.586 13.4206 104.414 14.0293C104.249 14.638 104.167 15.9128 104.167 17.8535V21.377ZM113.981 9.96875V12.375H111.919V16.9727C111.919 17.9036 111.936 18.4479 111.972 18.6055C112.015 18.7559 112.105 18.8812 112.241 18.9814C112.384 19.0817 112.556 19.1318 112.756 19.1318C113.036 19.1318 113.44 19.0352 113.97 18.8418L114.228 21.1836C113.526 21.4844 112.731 21.6348 111.843 21.6348C111.299 21.6348 110.809 21.5452 110.372 21.3662C109.935 21.18 109.613 20.9437 109.405 20.6572C109.204 20.3636 109.065 19.9697 108.986 19.4756C108.921 19.1247 108.889 18.4157 108.889 17.3486V12.375H107.504V9.96875H108.889V7.70215L111.919 5.94043V9.96875H113.981ZM121.653 21.377H119.859V5.62891H121.793V11.2471C122.609 10.223 123.651 9.71094 124.919 9.71094C125.621 9.71094 126.283 9.85417 126.906 10.1406C127.536 10.4199 128.052 10.8174 128.453 11.333C128.861 11.8415 129.18 12.4574 129.409 13.1807C129.638 13.904 129.753 14.6774 129.753 15.501C129.753 17.4561 129.269 18.9671 128.303 20.0342C127.336 21.1012 126.176 21.6348 124.822 21.6348C123.476 21.6348 122.419 21.0726 121.653 19.9482V21.377ZM121.632 15.5869C121.632 16.9548 121.818 17.943 122.19 18.5518C122.799 19.5472 123.623 20.0449 124.661 20.0449C125.506 20.0449 126.236 19.6797 126.852 18.9492C127.468 18.2116 127.776 17.1159 127.776 15.6621C127.776 14.1725 127.479 13.0732 126.885 12.3643C126.297 11.6553 125.585 11.3008 124.747 11.3008C123.902 11.3008 123.171 11.6696 122.555 12.4072C121.94 13.1377 121.632 14.1976 121.632 15.5869ZM130.296 15.6729C130.296 13.5602 130.884 11.9954 132.058 10.9785C133.039 10.1335 134.235 9.71094 135.646 9.71094C137.214 9.71094 138.496 10.2266 139.492 11.2578C140.487 12.2819 140.985 13.6999 140.985 15.5117C140.985 16.9798 140.763 18.1364 140.319 18.9814C139.882 19.8193 139.241 20.471 138.396 20.9365C137.558 21.402 136.641 21.6348 135.646 21.6348C134.049 21.6348 132.756 21.1227 131.768 20.0986C130.787 19.0745 130.296 17.5993 130.296 15.6729ZM132.284 15.6729C132.284 17.1338 132.602 18.2295 133.24 18.96C133.877 19.6833 134.679 20.0449 135.646 20.0449C136.606 20.0449 137.404 19.6797 138.041 18.9492C138.679 18.2188 138.997 17.1051 138.997 15.6084C138.997 14.1976 138.675 13.1305 138.031 12.4072C137.393 11.6768 136.598 11.3115 135.646 11.3115C134.679 11.3115 133.877 11.6732 133.24 12.3965C132.602 13.1198 132.284 14.2119 132.284 15.6729ZM142.162 21.377V9.96875H143.892V11.5693C144.25 11.0107 144.726 10.5632 145.32 10.2266C145.915 9.88281 146.591 9.71094 147.351 9.71094C148.196 9.71094 148.887 9.88639 149.424 10.2373C149.968 10.5882 150.351 11.0788 150.573 11.709C151.476 10.377 152.65 9.71094 154.097 9.71094C155.228 9.71094 156.098 10.026 156.707 10.6562C157.316 11.2793 157.62 12.2425 157.62 13.5459V21.377H155.697V14.1904C155.697 13.417 155.633 12.862 155.504 12.5254C155.382 12.1816 155.157 11.9059 154.827 11.6982C154.498 11.4906 154.111 11.3867 153.667 11.3867C152.865 11.3867 152.199 11.6553 151.669 12.1924C151.139 12.7223 150.874 13.5745 150.874 14.749V21.377H148.94V13.9648C148.94 13.1055 148.783 12.4609 148.468 12.0312C148.153 11.6016 147.637 11.3867 146.921 11.3867C146.377 11.3867 145.872 11.5299 145.406 11.8164C144.948 12.1029 144.615 12.5218 144.407 13.0732C144.2 13.6247 144.096 14.4196 144.096 15.458V21.377H142.162ZM161.171 21.377H159.378V5.62891H161.311V11.2471C162.128 10.223 163.17 9.71094 164.437 9.71094C165.139 9.71094 165.801 9.85417 166.424 10.1406C167.055 10.4199 167.57 10.8174 167.971 11.333C168.379 11.8415 168.698 12.4574 168.927 13.1807C169.157 13.904 169.271 14.6774 169.271 15.501C169.271 17.4561 168.788 18.9671 167.821 20.0342C166.854 21.1012 165.694 21.6348 164.34 21.6348C162.994 21.6348 161.938 21.0726 161.171 19.9482V21.377ZM161.15 15.5869C161.15 16.9548 161.336 17.943 161.709 18.5518C162.317 19.5472 163.141 20.0449 164.179 20.0449C165.024 20.0449 165.755 19.6797 166.371 18.9492C166.987 18.2116 167.295 17.1159 167.295 15.6621C167.295 14.1725 166.997 13.0732 166.403 12.3643C165.816 11.6553 165.103 11.3008 164.265 11.3008C163.42 11.3008 162.69 11.6696 162.074 12.4072C161.458 13.1377 161.15 14.1976 161.15 15.5869Z" fill="#2E2E2E"/>
<defs>
<linearGradient id="paint0_linear" x1="15.4101" y1="29.9141" x2="15.0927" y2="3.69839" gradientUnits="userSpaceOnUse">
<stop offset="1.38522e-07" stop-color="#008EFF"/>
<stop offset="1" stop-color="#0C1E79" stop-opacity="0.7"/>
</linearGradient>
<linearGradient id="paint1_linear" x1="15.5602" y1="-0.987923" x2="14.788" y2="15.6681" gradientUnits="userSpaceOnUse">
<stop offset="1.38522e-07" stop-color="#FF55FF"/>
<stop offset="1" stop-color="#CC1E79" stop-opacity="0.3"/>
</linearGradient>
</defs>
</svg>
