<svg width="14" height="15" viewBox="0 0 14 15" fill="none" xmlns="http://www.w3.org/2000/svg">
<path d="M7 14.9297C8.38447 14.9297 9.73785 14.5191 10.889 13.75C12.0401 12.9808 12.9373 11.8876 13.4672 10.6085C13.997 9.32939 14.1356 7.92192 13.8655 6.56406C13.5954 5.20619 12.9287 3.95891 11.9497 2.97994C10.9708 2.00098 9.7235 1.33429 8.36563 1.06419C7.00776 0.794097 5.6003 0.93272 4.32121 1.46253C3.04213 1.99235 1.94888 2.88955 1.17971 4.0407C0.410543 5.19184 0 6.54522 0 7.92969C0.00233361 9.78549 0.740581 11.5646 2.05283 12.8769C3.36508 14.1891 5.1442 14.9274 7 14.9297ZM7 2.473C8.07923 2.473 9.13423 2.79303 10.0316 3.39262C10.9289 3.9922 11.6283 4.84442 12.0413 5.8415C12.4543 6.83858 12.5624 7.93574 12.3518 8.99424C12.1413 10.0527 11.6216 11.025 10.8585 11.7882C10.0953 12.5513 9.12304 13.071 8.06455 13.2815C7.00605 13.4921 5.90889 13.384 4.91181 12.971C3.91473 12.558 3.06251 11.8586 2.46292 10.9613C1.86334 10.0639 1.54331 9.00892 1.54331 7.92969C1.54506 6.48302 2.12052 5.09611 3.14347 4.07316C4.16642 3.05021 5.55333 2.47475 7 2.473Z" fill="#989898"/>
<path d="M10.1991 9.15156L10.1991 7.60817L7.80355 7.60817L7.80355 5.04415L6.26017 5.04415L6.26017 9.15156L10.1991 9.15156Z" fill="#989898"/>
</svg>
