<svg width="284" height="286" viewBox="0 0 284 286" fill="none" xmlns="http://www.w3.org/2000/svg">
<path fill-rule="evenodd" clip-rule="evenodd" d="M136.622 23.5625C141.333 23.5625 145.152 19.7437 145.152 15.0329C145.152 10.3221 141.333 6.50333 136.622 6.50333C131.912 6.50333 128.093 10.3221 128.093 15.0329C128.093 19.7437 131.912 23.5625 136.622 23.5625ZM127.708 26.764L44.1887 117.023L44.1884 117.023L127.708 26.764ZM47.0813 115.419L128.56 27.3659C130.876 28.8834 133.646 29.7658 136.622 29.7658C139.655 29.7658 142.474 28.8495 144.817 27.2787L188.057 75.2703L54.8074 113.946L47.0813 115.419ZM34.5523 119.826L124.195 22.9494C122.735 20.6629 121.89 17.9467 121.89 15.0329C121.89 6.89614 128.486 0.3 136.622 0.3C144.759 0.3 151.355 6.89614 151.355 15.0329C151.355 17.887 150.544 20.5516 149.139 22.8084L194.536 73.1947L194.729 73.3337L222.613 65.2401C232.117 62.4817 242.073 67.8699 244.962 77.3346L282.955 201.825C285.914 211.519 280.333 221.753 270.58 224.515L58.3588 284.611C48.7588 287.329 38.7701 281.763 36.0311 272.169L0.699712 148.408C-2.03482 138.829 3.48769 128.842 13.0542 126.065L34.5523 119.826ZM150.321 15.0329C150.321 17.5794 149.627 19.9637 148.416 22.0064L148.416 22.0062C149.626 19.9635 150.321 17.5794 150.321 15.033C150.321 7.46722 144.188 1.33396 136.622 1.33396C136.288 1.33396 135.958 1.34584 135.63 1.36928C135.958 1.34582 136.289 1.33389 136.622 1.33389C144.188 1.33389 150.321 7.46714 150.321 15.0329ZM127.059 15.0329C127.059 20.3147 131.341 24.5964 136.622 24.5964L136.622 24.5964C131.34 24.5964 127.059 20.3147 127.059 15.033C127.059 13.4297 127.453 11.9187 128.151 10.5915C127.453 11.9187 127.059 13.4297 127.059 15.0329Z" fill="#D7D3CA"/>
<path fill-rule="evenodd" clip-rule="evenodd" d="M192.673 109.62L55.6064 149.895C55.6048 149.896 55.6035 149.896 55.6023 149.897C55.6015 149.898 55.6007 149.899 55.5999 149.901C55.5991 149.902 55.5984 149.903 55.5978 149.905C55.5982 149.906 55.5985 149.907 55.599 149.909L82.9555 243.011C82.9559 243.012 82.9564 243.014 82.9568 243.015C82.9579 243.016 82.9592 243.016 82.9607 243.017C82.9622 243.018 82.9636 243.019 82.9649 243.019C82.9661 243.019 82.9675 243.019 82.9691 243.018L220.036 202.743C220.037 202.743 220.039 202.742 220.04 202.742C220.04 202.741 220.041 202.739 220.042 202.738C220.043 202.736 220.044 202.735 220.044 202.734C220.044 202.733 220.043 202.731 220.043 202.73L192.687 109.628C192.686 109.626 192.686 109.625 192.685 109.624C192.684 109.623 192.683 109.622 192.681 109.621C192.68 109.621 192.678 109.62 192.677 109.619C192.676 109.62 192.674 109.62 192.673 109.62ZM220.036 202.747C220.036 202.747 220.036 202.747 220.036 202.746ZM53.3298 142.147C49.0449 143.406 46.592 147.901 47.851 152.185L75.2075 245.287C76.4665 249.572 80.9608 252.025 85.2457 250.766L222.312 210.491C226.597 209.232 229.05 204.738 227.791 200.453L200.435 107.351C199.175 103.066 194.681 100.613 190.396 101.872L53.3298 142.147Z" fill="white"/>
<path fill-rule="evenodd" clip-rule="evenodd" d="M95.6083 177.541C92.211 178.539 88.6477 176.594 87.6495 173.197C86.6513 169.8 88.5961 166.236 91.9933 165.238C95.3906 164.24 98.9539 166.185 99.9521 169.582C100.95 172.979 99.0055 176.542 95.6083 177.541ZM80.87 175.189C78.7716 168.047 82.8598 160.557 90.0013 158.459C97.1428 156.36 104.633 160.448 106.732 167.59C108.83 174.731 104.742 182.222 97.6003 184.32C90.4588 186.419 82.9684 182.33 80.87 175.189ZM89.0807 241.367L105.996 210.956C107.421 208.393 110.633 207.44 113.226 208.81L132.263 218.872C134.846 220.237 138.046 219.296 139.479 216.751L162.424 176.02C163.858 173.475 167.058 172.534 169.64 173.899L193.343 186.427L224.899 206.344L91.4539 244.36C90.8962 244.519 90.2973 244.437 89.8035 244.133C88.8615 243.553 88.543 242.334 89.0807 241.367Z" fill="white"/>
</svg>
