<svg width="36" height="36" viewBox="0 0 36 36" fill="none" xmlns="http://www.w3.org/2000/svg">
<g clip-path="url(#clip0_26_98)">
<path d="M22.4995 18C22.4995 18.89 22.2356 19.76 21.7411 20.5001C21.2467 21.2401 20.5439 21.8169 19.7216 22.1574C18.8993 22.498 17.9945 22.5872 17.1216 22.4135C16.2487 22.2399 15.4469 21.8113 14.8176 21.182C14.1882 20.5526 13.7596 19.7508 13.586 18.8779C13.4124 18.005 13.5015 17.1002 13.8421 16.2779C14.1827 15.4556 14.7594 14.7528 15.4995 14.2584C16.2395 13.7639 17.1095 13.5 17.9995 13.5C19.1926 13.5013 20.3364 13.9758 21.1801 14.8194C22.0237 15.6631 22.4982 16.8069 22.4995 18ZM35.8456 18.6623C32.4038 25.6563 25.5652 30.0002 17.9995 30.0002C10.4339 30.0002 3.59532 25.6563 0.15352 18.6623C0.0522006 18.4564 -0.000488281 18.2299 -0.000488281 18.0003C-0.000488281 17.7708 0.0522006 17.5443 0.15352 17.3383C3.59532 10.3437 10.4339 5.99976 17.9995 5.99976C25.5652 5.99976 32.4038 10.3437 35.8456 17.3376C35.947 17.5437 35.9997 17.7703 35.9997 18C35.9997 18.2297 35.947 18.4563 35.8456 18.6623V18.6623ZM25.4998 18C25.4998 16.5166 25.0599 15.0665 24.2358 13.8331C23.4116 12.5997 22.2402 11.6384 20.8698 11.0707C19.4993 10.503 17.9912 10.3545 16.5363 10.6439C15.0814 10.9333 13.745 11.6476 12.6961 12.6965C11.6471 13.7455 10.9328 15.0819 10.6434 16.5368C10.354 17.9917 10.5025 19.4997 11.0702 20.8702C11.6379 22.2407 12.5992 23.4121 13.8326 24.2362C15.066 25.0603 16.5161 25.5002 17.9995 25.5002C19.988 25.498 21.8945 24.7071 23.3005 23.301C24.7066 21.8949 25.4975 19.9885 25.4998 18Z" fill="#9E9E9E"/>
</g>
<defs>
<clipPath id="clip0_26_98">
<rect width="36" height="36" fill="white"/>
</clipPath>
</defs>
</svg>
