<svg width="16" height="16" viewBox="0 0 16 16" fill="none" xmlns="http://www.w3.org/2000/svg">
<path d="M11.0769 6.76923C11.0769 9.14423 9.14423 11.0769 6.76923 11.0769C4.39423 11.0769 2.46154 9.14423 2.46154 6.76923C2.46154 4.39423 4.39423 2.46154 6.76923 2.46154C9.14423 2.46154 11.0769 4.39423 11.0769 6.76923ZM16 14.7692C16 14.4423 15.8654 14.125 15.6442 13.9038L12.3462 10.6058C13.125 9.48077 13.5385 8.13462 13.5385 6.76923C13.5385 3.02885 10.5096 0 6.76923 0C3.02885 0 0 3.02885 0 6.76923C0 10.5096 3.02885 13.5385 6.76923 13.5385C8.13461 13.5385 9.48077 13.125 10.6058 12.3462L13.9038 15.6346C14.125 15.8654 14.4423 16 14.7692 16C15.4423 16 16 15.4423 16 14.7692Z" fill="white"/>
</svg>
