<svg width="18" height="18" viewBox="0 0 18 18" fill="none" xmlns="http://www.w3.org/2000/svg">
<path d="M9 0C4.0294 0 0 4.0294 0 9C0 13.9706 4.0294 18 9 18C13.9706 18 18 13.9706 18 9C18 4.0294 13.9706 0 9 0ZM9 3.3124C9.8836 3.3124 10.6 4.0288 10.6 4.9124C10.6 5.796 9.8836 6.5124 9 6.5124C8.1164 6.5124 7.4 5.796 7.4 4.9124C7.4 4.0288 8.1164 3.3124 9 3.3124ZM11.4 14.2876C11.4 14.5084 11.2208 14.6 11 14.6H7C6.7792 14.6 6.6 14.5084 6.6 14.2876V14.0876C6.6 13.8666 6.7792 13.6 7 13.6H7.4V8.6H7C6.7792 8.6 6.6 8.5084 6.6 8.2876V8.0876C6.6 7.8666 6.7792 7.6 7 7.6H10.2C10.4208 7.6 10.6 7.8666 10.6 8.0876V8.2876V13.6H11C11.2208 13.6 11.4 13.8666 11.4 14.0876V14.2876Z" fill="#04B162"/>
</svg>
