<svg width="170" height="40" viewBox="0 0 170 40" fill="none" xmlns="http://www.w3.org/2000/svg">
<mask id="mask0_800_62" style="mask-type:alpha" maskUnits="userSpaceOnUse" x="0" y="0" width="170" height="40">
<rect width="170" height="40" fill="#C4C4C4"/>
</mask>
<g mask="url(#mask0_800_62)">
<path d="M16.8194 35.5376H10.9788V20.9776H7V16.2372H10.9786V12.864C10.9786 8.86678 12.7384 6 18.5632 6C19.7952 6 21.7293 6.24831 21.7293 6.24831V10.6501H19.6978C17.6279 10.6501 16.8197 11.2797 16.8197 13.0204V16.2372H21.6518L21.2215 20.9776H16.8196L16.8194 35.5376ZM30.221 15.8583C30.1359 15.8583 30.0483 15.8614 29.9616 15.8636C24.5458 15.8636 22.068 19.9374 22.068 25.7202C22.068 33.005 25.2821 35.9206 30.004 35.9206C32.7055 35.9206 34.4804 34.7835 35.5593 32.6616V35.5396H41.1145V16.2392H35.5593V19.2073C34.6784 17.2977 32.8538 15.881 30.221 15.8583ZM31.6335 20.419C33.9082 20.419 35.2734 22.0056 35.2734 24.7043L35.2787 27.4607C35.2787 29.2797 34.1511 31.4077 31.6335 31.4077C27.7631 31.4077 27.8665 27.2286 27.8665 25.8366C27.8665 21.1545 29.9286 20.419 31.6335 20.419ZM43.3581 25.8904C43.3581 23.5451 43.2458 15.8709 53.2441 15.8709C57.2576 15.8709 58.9335 17.147 58.9335 17.147L57.5865 21.3248C57.5865 21.3248 55.9128 20.4032 53.7319 20.4032C50.9386 20.4032 49.1562 22.0225 49.1562 24.8716L49.1593 26.9145C49.1593 29.6522 50.8791 31.4797 53.7377 31.4797C55.7245 31.4797 57.5557 30.5493 57.5557 30.5493L58.8993 34.6399C58.8993 34.6399 57.3669 35.924 53.2722 35.924C43.7522 35.924 43.3582 29.0388 43.3582 25.8904H43.3581ZM91.5062 15.8636C96.9222 15.8636 99.4391 19.9374 99.4391 25.7202C99.4391 33.005 96.2248 35.9206 91.503 35.9206C88.8015 35.9206 86.8044 34.7837 85.7256 32.6616V35.5396L80.2402 35.5375V6.58684L86.0643 6.0789V18.9458C86.9048 16.6947 89.6673 15.8636 91.5064 15.8636H91.5062ZM89.8735 20.419C87.5988 20.419 86.0643 22.0056 86.0643 24.7043L86.0588 27.4607C86.0554 29.2797 87.1215 31.4077 89.8735 31.4077C93.7439 31.4077 93.6405 27.2286 93.6405 25.8366C93.6405 21.1545 91.5785 20.419 89.8735 20.419ZM69.0388 15.8796C62.896 15.8796 59.653 19.2287 59.653 25.1805V26.2863C59.653 34.0112 64.2072 36 69.6366 36C74.914 36 77.3027 34.5239 77.3027 34.5239L76.2129 30.593C76.2129 30.593 73.403 31.7886 70.3349 31.7886C67.1542 31.7886 65.7863 30.9779 65.4357 27.9213H77.7684V24.7677C77.7684 18.3116 74.1287 15.8794 69.0386 15.8794L69.0388 15.8796ZM69.1868 19.8157C71.3131 19.8157 72.6909 21.1196 72.6153 24.1435H65.4464C65.5707 20.9609 67.0566 19.8159 69.1868 19.8159V19.8157ZM111.052 15.8531C104.744 15.8531 101.423 19.4079 101.423 25.7783C101.423 34.519 107.148 35.9259 111.063 35.9259C116.794 35.9259 120.607 32.8403 120.607 25.8577C120.607 18.5901 116.32 15.8531 111.052 15.8531V15.8531ZM110.973 20.4348C113.747 20.4348 114.846 22.5107 114.846 24.8738V26.9054C114.846 29.768 113.308 31.4237 110.962 31.4237C108.769 31.4237 107.227 29.8749 107.227 26.9054V24.8738C107.227 21.7067 109.061 20.4348 110.973 20.4348V20.4348ZM132.21 15.8531C125.902 15.8531 122.581 19.4079 122.581 25.7783C122.581 34.519 128.305 35.9259 132.22 35.9259C137.951 35.9259 141.765 32.8403 141.765 25.8577C141.765 18.5901 137.477 15.8531 132.21 15.8531V15.8531ZM132.13 20.4348C134.904 20.4348 136.003 22.5107 136.003 24.8738V26.9054C136.003 29.768 134.465 31.4237 132.12 31.4237C129.926 31.4237 128.384 29.8749 128.384 26.9054V24.8738C128.384 21.7067 130.219 20.4348 132.13 20.4348V20.4348ZM143.966 35.5376V6.58684L149.806 6.0789V25.4835L155.601 16.2372H161.77L155.725 25.8137L162.003 35.5376H155.817L149.806 26.0958V35.5376H143.966Z" fill="#1874EA"/>
</g>
</svg>
