<svg width="170" height="40" viewBox="0 0 170 40" fill="none" xmlns="http://www.w3.org/2000/svg">
<mask id="mask0_800_83" style="mask-type:alpha" maskUnits="userSpaceOnUse" x="0" y="0" width="170" height="40">
<rect x="0.5" y="0.5" width="169" height="39" fill="#C4C4C4" stroke="black"/>
</mask>
<g mask="url(#mask0_800_83)">
<path d="M4.82324 28.6027L18.0714 5.625L29.5511 12.2617L16.3046 35.2394L4.82324 28.6027Z" fill="#FBBC04"/>
<path d="M42.9112 28.5223L29.6549 5.53647C27.9436 2.29571 23.9338 1.05755 20.6972 2.77104C17.4606 4.48452 16.2257 8.49954 17.9353 11.7403C18.0104 11.8824 18.0903 12.0213 18.1751 12.1585L31.4314 35.1443C33.2194 38.3426 37.2586 39.4844 40.4527 37.6941C43.6469 35.9039 44.7872 31.8595 42.9992 28.6612C42.9699 28.6089 42.9405 28.5583 42.9112 28.5076V28.5223Z" fill="#4285F4"/>
<path d="M10.6281 38.5078C14.2888 38.5078 17.2563 35.5364 17.2563 31.8711C17.2563 28.2057 14.2888 25.2344 10.6281 25.2344C6.96752 25.2344 4 28.2057 4 31.8711C4 35.5364 6.96752 38.5078 10.6281 38.5078Z" fill="#34A853"/>
<path d="M59.2583 10.513C60.4148 10.513 60.3031 10.4046 60.3031 11.4469V33.8546C60.3031 34.1755 59.2583 34.2544 59.2583 33.643V30.5934V10.513ZM81.976 24.9916H78.3712C77.9933 24.9916 75.325 24.7413 75.1915 25.0806L73.6109 29.0751C73.3883 29.6394 73.1657 30.2038 72.9423 30.7666C72.8474 31.0093 71.8807 30.8556 71.6237 30.8556L77.995 14.9501L78.2923 14.206C78.3326 14.1069 79.0096 14.0817 79.0809 14.2639L80.1484 16.986L84.1395 27.161C84.6222 28.3929 85.106 29.6244 85.5908 30.8556C85.3296 30.8556 84.3444 31.0093 84.2478 30.7666L83.502 28.8735C82.9947 27.5792 82.4841 26.2867 81.976 24.9916ZM75.6459 23.946H81.5896C80.5927 21.3088 79.5026 18.6875 78.6459 16.0016C77.8866 18.7102 76.668 21.3298 75.6459 23.946ZM92.1804 18.2634C92.9758 18.2634 93.7829 18.3944 94.5001 18.7522C95.2955 19.1503 95.7104 19.8852 96.3176 20.4227C96.2403 18.785 96.2504 17.1481 96.2504 15.5086V13.4022C96.2504 12.9487 96.9408 13.1721 97.317 13.1721C97.417 13.1721 97.3657 18.5154 97.3657 18.9051V30.7901C97.3657 30.9303 96.6418 30.9496 96.609 30.7355L96.3436 28.9684C95.7582 29.306 95.34 30.1005 94.6706 30.481C93.8047 30.9732 92.8053 31.1227 91.8209 31.0731C89.6751 30.9664 87.9844 29.7495 87.3293 27.6893C86.0997 23.8233 87.3385 18.2634 92.1804 18.2634C90.4763 18.2634 93.0765 18.2634 92.1804 18.2634ZM92.1804 19.2872C88.9024 19.2872 88.0516 22.4552 88.1289 25.1881C88.1927 27.4978 89.0779 29.8116 91.6605 30.0594C95.0805 30.3844 96.2504 27.8665 96.2504 24.8555C96.2697 22.005 95.5113 19.2872 92.1804 19.2872C93.6124 19.2872 90.8341 19.2872 92.1804 19.2872ZM115.036 30.8556C114.775 30.8556 114.129 31.0202 114.045 30.7321L113.668 29.4068C113.196 27.7531 112.728 26.0994 112.257 24.4474C111.407 21.4625 110.436 18.4751 109.75 15.4465C109.162 18.6691 108.095 21.8454 107.213 24.9941L106.055 29.128C105.993 29.3455 105.671 30.8573 105.513 30.8573C105.333 30.8573 104.726 30.9631 104.589 30.8573C104.322 30.649 104.201 29.4396 104.116 29.128L100.021 14.2404C100.215 14.2404 101.207 14.1338 101.253 14.2959C101.345 14.6385 101.441 14.9812 101.532 15.3247L102.784 19.9322C103.599 22.9264 104.586 25.9575 105.124 29.0137C105.659 25.9936 106.65 23.0171 107.483 20.0666L108.761 15.5288C108.873 15.1332 108.985 14.7376 109.094 14.342C109.168 14.0842 110.007 14.2387 110.245 14.2387C110.639 14.2387 110.868 15.8404 110.963 16.1746L112.299 20.8099C113.081 23.5269 113.999 26.264 114.567 29.0356C114.915 27.1089 115.499 25.215 116.006 23.3261C116.485 21.5414 116.967 19.7567 117.446 17.9728C117.744 16.8768 118.037 15.7807 118.334 14.6839C118.516 14.0061 118.976 14.2379 119.625 14.2379C118.097 19.7785 116.566 25.3175 115.036 30.8556ZM132.491 24.6615C132.491 27.8841 130.858 30.9043 127.342 31.0748C123.37 31.2671 121.445 27.8497 121.564 24.2651C121.672 21.0039 123.565 18.2634 127.047 18.2634C130.699 18.2634 132.491 21.313 132.491 24.6615C132.491 22.6769 132.491 26.6764 132.491 24.6615ZM122.741 24.6615C122.741 27.3592 123.98 30.0611 127.026 30.0611C130.074 30.0611 131.311 27.3592 131.311 24.6615C131.311 21.9504 130.052 19.2872 127.003 19.2872C123.949 19.2872 122.741 21.9597 122.741 24.6615C122.741 22.9499 122.741 26.3581 122.741 24.6615ZM140.777 18.2634C141.341 18.2634 141.904 18.3247 142.458 18.4221L142.243 19.5022C139.273 18.7598 137.199 20.6722 137.047 23.6344C136.987 24.8228 137.036 26.0246 137.036 27.2139V30.8447C137.036 30.8497 135.911 30.8892 135.911 30.8312V29.962V20.8418C135.911 20.5302 135.673 18.722 135.911 18.5011C136 18.4179 136.551 18.5011 136.677 18.5011C136.957 18.5011 136.871 18.6195 136.885 18.8916C136.918 19.5039 136.948 20.1162 136.979 20.7284C137.415 20.3396 137.725 19.6408 138.199 19.1948C138.902 18.5372 139.827 18.2634 140.777 18.2634C139.958 18.2634 141.3 18.2634 140.777 18.2634ZM149.493 18.2634C150.287 18.2634 151.094 18.3944 151.811 18.7522C152.608 19.1511 153.021 19.8877 153.63 20.4227C153.551 18.7858 153.561 17.1481 153.561 15.5086V13.4022C153.561 12.9487 154.254 13.1721 154.629 13.1721C154.728 13.1721 154.677 18.5154 154.677 18.9051V30.7901C154.677 30.9303 153.953 30.9496 153.92 30.7355C153.833 30.1467 153.742 29.5588 153.654 28.9684C153.068 29.306 152.65 30.1005 151.981 30.481C151.115 30.9732 150.115 31.1227 149.131 31.0731C146.986 30.9664 145.295 29.7495 144.64 27.6893C143.411 23.8242 144.65 18.2634 149.493 18.2634C147.787 18.2634 150.387 18.2634 149.493 18.2634ZM149.493 19.2872C146.214 19.2872 145.364 22.456 145.442 25.1881C145.505 27.4969 146.39 29.8116 148.973 30.0594C152.393 30.3844 153.561 27.8665 153.561 24.8555C153.582 22.005 152.823 19.2872 149.493 19.2872C150.926 19.2872 148.144 19.2872 149.493 19.2872ZM166.483 27.6389C166.483 30.287 163.853 31.0832 161.64 31.0832C160.49 31.0832 159.303 30.9765 158.223 30.5549C157.495 30.271 157.71 29.8284 157.71 29.1053C159.581 30.0392 163.337 30.8715 164.948 28.9801C167.109 26.4421 162.128 25.047 160.7 24.4322C158.838 23.6293 156.845 21.5003 158.671 19.5098C160.441 17.5806 164.098 18.1215 166.232 19.0134C166.098 19.3401 165.965 19.666 165.829 19.9927C165.851 19.9389 163.444 19.3552 163.143 19.3242C161.696 19.1755 158.909 19.4115 159.171 21.4851C159.384 23.1632 161.63 23.6722 162.931 24.1626C164.55 24.7732 166.483 25.6156 166.483 27.6389C166.483 27.0871 166.483 28.745 166.483 27.6389Z" fill="#63666A"/>
</g>
</svg>
