<svg width="170" height="40" viewBox="0 0 170 40" fill="none" xmlns="http://www.w3.org/2000/svg">
<mask id="mask0_800_50" style="mask-type:alpha" maskUnits="userSpaceOnUse" x="0" y="0" width="170" height="40">
<rect width="170" height="40" fill="#C4C4C4"/>
</mask>
<g mask="url(#mask0_800_50)">
<path d="M13.143 39.8585C10.7641 39.7503 9.4719 39.3545 8.61239 39.0192C7.4735 38.5758 6.66154 38.048 5.80679 37.1944C4.95203 36.3408 4.42301 35.5289 3.98196 34.39C3.64671 33.5305 3.25084 32.2382 3.14266 29.8594C3.02378 27.288 3 26.5165 3 20.0018C3 13.4871 3.02615 12.7167 3.14147 10.143C3.24965 7.76414 3.6479 6.47428 3.98077 5.61239C4.4242 4.4735 4.95322 3.66154 5.8056 2.8056C6.65917 1.95203 7.47113 1.42182 8.6112 0.980771C9.47071 0.645526 10.763 0.249651 13.1418 0.141469C15.7144 0.0237763 16.4871 0 22.9994 0C29.5141 0 30.2845 0.0261539 32.8582 0.141469C35.237 0.249651 36.5269 0.647903 37.3888 0.980771C38.5277 1.42182 39.3396 1.95203 40.1944 2.8056C41.0492 3.65917 41.5758 4.47232 42.0192 5.6112C42.3545 6.47071 42.7503 7.76295 42.8585 10.1418C42.9762 12.7155 43 13.4859 43 20.0006C43 26.5129 42.9762 27.2856 42.8585 29.8594C42.7503 32.2382 42.3521 33.5305 42.0192 34.39C41.5758 35.5289 41.048 36.3408 40.1944 37.1944C39.3408 38.048 38.5277 38.5758 37.3888 39.0192C36.5293 39.3545 35.237 39.7503 32.8582 39.8585C30.2868 39.9762 29.5141 40 22.9994 40C16.4871 40 15.7144 39.9774 13.143 39.8585" fill="url(#paint0_radial_800_50)"/>
<path d="M13.143 39.8585C10.7641 39.7503 9.4719 39.3545 8.61239 39.0192C7.4735 38.5758 6.66154 38.048 5.80679 37.1944C4.95203 36.3408 4.42301 35.5289 3.98196 34.39C3.64671 33.5305 3.25084 32.2382 3.14266 29.8594C3.02378 27.288 3 26.5165 3 20.0018C3 13.4871 3.02615 12.7167 3.14147 10.143C3.24965 7.76414 3.6479 6.47428 3.98077 5.61239C4.4242 4.4735 4.95322 3.66154 5.8056 2.8056C6.65917 1.95203 7.47113 1.42182 8.6112 0.980771C9.47071 0.645526 10.763 0.249651 13.1418 0.141469C15.7144 0.0237763 16.4871 0 22.9994 0C29.5141 0 30.2845 0.0261539 32.8582 0.141469C35.237 0.249651 36.5269 0.647903 37.3888 0.980771C38.5277 1.42182 39.3396 1.95203 40.1944 2.8056C41.0492 3.65917 41.5758 4.47232 42.0192 5.6112C42.3545 6.47071 42.7503 7.76295 42.8585 10.1418C42.9762 12.7155 43 13.4859 43 20.0006C43 26.5129 42.9762 27.2856 42.8585 29.8594C42.7503 32.2382 42.3521 33.5305 42.0192 34.39C41.5758 35.5289 41.048 36.3408 40.1944 37.1944C39.3408 38.048 38.5277 38.5758 37.3888 39.0192C36.5293 39.3545 35.237 39.7503 32.8582 39.8585C30.2868 39.9762 29.5141 40 22.9994 40C16.4871 40 15.7144 39.9774 13.143 39.8585" fill="url(#paint1_radial_800_50)"/>
<path d="M18.0892 20.0847C18.0892 17.3491 20.3062 15.1309 23.0418 15.1309C25.7773 15.1309 27.9956 17.3491 27.9956 20.0847C27.9956 22.8203 25.7773 25.0385 23.0418 25.0385C20.3062 25.0385 18.0892 22.8203 18.0892 20.0847V20.0847ZM15.4113 20.0847C15.4113 24.299 18.8274 27.7152 23.0418 27.7152C27.2561 27.7152 30.6723 24.299 30.6723 20.0847C30.6723 15.8704 27.2561 12.4542 23.0418 12.4542C18.8274 12.4542 15.4114 15.8701 15.4114 20.0847H15.4113ZM29.1913 12.1517C29.1911 12.5044 29.2956 12.8492 29.4914 13.1425C29.6872 13.4358 29.9656 13.6645 30.2914 13.7996C30.6172 13.9347 30.9757 13.9701 31.3217 13.9015C31.6676 13.8328 31.9854 13.6631 32.2349 13.4138C32.4844 13.1645 32.6543 12.8469 32.7233 12.501C32.7922 12.1551 32.7571 11.7965 32.6222 11.4706C32.4874 11.1447 32.2589 10.8662 31.9658 10.6701C31.6726 10.474 31.3279 10.3693 30.9752 10.3692H30.9745C30.5017 10.3694 30.0484 10.5572 29.714 10.8915C29.3797 11.2257 29.1917 11.6789 29.1913 12.1517V12.1517ZM17.0383 32.1806C15.5895 32.1146 14.802 31.8733 14.2787 31.6694C13.5849 31.3993 13.0899 31.0776 12.5694 30.5579C12.049 30.0381 11.7268 29.5436 11.4579 28.8498C11.2539 28.3267 11.0126 27.539 10.9467 26.0902C10.8747 24.5238 10.8603 24.0533 10.8603 20.0849C10.8603 16.1166 10.8758 15.6474 10.9467 14.0797C11.0127 12.6309 11.2558 11.8447 11.4579 11.3201C11.728 10.6263 12.0497 10.1313 12.5694 9.61083C13.0892 9.09037 13.5837 8.76821 14.2787 8.4993C14.8018 8.2953 15.5895 8.05397 17.0383 7.98811C18.6047 7.91607 19.0752 7.90168 23.0418 7.90168C27.0084 7.90168 27.4794 7.91702 29.0471 7.98835C30.4959 8.05433 31.282 8.29744 31.8066 8.49954C32.5004 8.76844 32.9955 9.09132 33.5159 9.61107C34.0364 10.1308 34.3574 10.6265 34.6275 11.3203C34.8315 11.8434 35.0728 12.6311 35.1386 14.0799C35.2107 15.6476 35.2251 16.1168 35.2251 20.0852C35.2251 24.0535 35.2107 24.5228 35.1386 26.0904C35.0727 27.5392 34.8301 28.3267 34.6275 28.85C34.3574 29.5438 34.0357 30.0388 33.5159 30.5581C32.9962 31.0774 32.5004 31.3995 31.8066 31.6696C31.2836 31.8736 30.4959 32.115 29.0471 32.1808C27.4807 32.2529 27.0101 32.2672 23.0418 32.2672C19.0734 32.2672 18.6042 32.2529 17.0383 32.1808V32.1806ZM16.9152 5.3146C15.3333 5.38664 14.2523 5.63748 13.3083 6.00482C12.3312 6.38417 11.5029 6.8931 10.6759 7.71885C9.84883 8.54459 9.34121 9.37295 8.96186 10.3512C8.59451 11.2958 8.34368 12.3762 8.27163 13.9582C8.1984 15.5426 8.18164 16.0492 8.18164 20.0847C8.18164 24.1202 8.1984 24.6268 8.27163 26.2112C8.34368 27.7933 8.59451 28.8736 8.96186 29.8182C9.34121 30.7953 9.84895 31.6252 10.6759 32.4506C11.5028 33.2759 12.33 33.7842 13.3083 34.1646C14.2541 34.5319 15.3333 34.7828 16.9152 34.8548C18.5005 34.9268 19.0062 34.9448 23.0418 34.9448C27.0773 34.9448 27.5839 34.928 29.1683 34.8548C30.7504 34.7828 31.8307 34.5319 32.7753 34.1646C33.7524 33.7842 34.5806 33.2763 35.4077 32.4506C36.2347 31.6248 36.7413 30.7953 37.1217 29.8182C37.489 28.8736 37.7411 27.7932 37.8119 26.2112C37.884 24.6256 37.9007 24.1202 37.9007 20.0847C37.9007 16.0492 37.884 15.5426 37.8119 13.9582C37.7399 12.3761 37.489 11.2953 37.1217 10.3512C36.7413 9.37414 36.2334 8.5459 35.4077 7.71885C34.5819 6.89179 33.7524 6.38417 32.7765 6.00482C31.8307 5.63748 30.7503 5.38546 29.1695 5.3146C27.5848 5.2422 27.0785 5.22461 23.0436 5.22461C19.0086 5.22461 18.5011 5.24137 16.9158 5.3146" fill="white"/>
<path d="M60.816 7.08407C58.5031 8.05298 55.9604 10.7868 55.1574 14.221C54.1403 18.5708 58.3726 20.4103 58.7197 19.8081C59.1283 19.0992 57.9614 18.8596 57.7212 16.6026C57.4107 13.6875 58.766 10.4302 60.4717 9.00097C60.7888 8.73544 60.7736 9.10502 60.7736 9.78862C60.7736 11.0113 60.7061 21.985 60.7061 24.2755C60.7061 27.3745 60.5781 28.3531 60.3481 29.32C60.1151 30.2999 59.7408 30.962 60.0244 31.2173C60.3414 31.5026 61.6949 30.8239 62.4786 29.7302C63.4182 28.4186 63.7471 26.8433 63.8062 25.1326C63.8776 23.0703 63.8745 19.798 63.8776 17.9315C63.8804 16.2197 63.9063 11.207 63.8475 8.19355C63.8332 7.4544 61.7834 6.67893 60.816 7.08407ZM167.493 23.3646C167.157 23.3646 167.004 23.7104 166.878 24.2926C166.438 26.317 165.976 26.7739 165.381 26.7739C164.715 26.7739 164.117 25.7715 163.964 23.7652C163.843 22.1876 163.863 19.283 164.017 16.3939C164.049 15.8003 163.885 15.2129 162.293 14.6345C161.607 14.3855 160.612 14.0194 160.116 15.2163C158.715 18.598 158.166 21.283 158.037 22.3732C158.031 22.4297 157.962 22.4411 157.949 22.3093C157.867 21.4359 157.684 19.8484 157.661 16.5136C157.656 15.8629 157.518 15.309 156.8 14.8555C156.334 14.5611 154.919 14.0409 154.41 14.66C153.968 15.1663 153.457 16.529 152.926 18.1442C152.494 19.4568 152.193 20.3449 152.193 20.3449C152.193 20.3449 152.199 16.8027 152.204 15.459C152.206 14.9521 151.858 14.7831 151.754 14.7526C151.282 14.6157 150.352 14.3869 149.958 14.3869C149.47 14.3869 149.351 14.659 149.351 15.0556C149.351 15.1075 149.274 19.7193 149.274 22.944C149.274 23.084 149.275 23.237 149.275 23.3994C149.006 24.8815 148.132 26.8935 147.182 26.8935C146.231 26.8935 145.783 26.0524 145.783 22.208C145.783 19.9654 145.85 18.99 145.883 17.3682C145.903 16.4339 145.94 15.7162 145.937 15.5536C145.93 15.0543 145.067 14.8026 144.665 14.7094C144.262 14.6159 143.911 14.5793 143.637 14.5949C143.249 14.6168 142.975 14.8711 142.975 15.2209C142.975 15.4085 142.977 15.7649 142.977 15.7649C142.478 14.9803 141.675 14.4342 141.141 14.276C139.702 13.8488 138.2 14.2275 137.067 15.8123C136.167 17.0716 135.624 18.4982 135.411 20.5474C135.255 22.0455 135.306 23.5649 135.583 24.8497C135.248 26.2995 134.625 26.8935 133.943 26.8935C132.954 26.8935 132.236 25.2783 132.32 22.4845C132.375 20.6469 132.742 19.3575 133.144 17.492C133.316 16.6965 133.176 16.2804 132.827 15.8813C132.507 15.5152 131.825 15.3284 130.843 15.5583C130.145 15.7221 129.145 15.8986 128.231 16.034C128.231 16.034 128.286 15.814 128.332 15.426C128.569 13.3911 126.358 13.5562 125.653 14.2062C125.232 14.5942 124.945 15.0518 124.836 15.8746C124.664 17.1802 125.728 17.7963 125.728 17.7963C125.379 19.3959 124.523 21.4852 123.638 22.9958C123.165 23.8051 122.802 24.4048 122.335 25.0424C122.333 24.8054 122.332 24.5684 122.331 24.3314C122.32 20.9688 122.365 18.3222 122.385 17.3683C122.404 16.434 122.442 15.7356 122.439 15.573C122.434 15.2078 122.221 15.0697 121.777 14.8953C121.385 14.7408 120.921 14.6339 120.44 14.5967C119.833 14.5495 119.467 14.8713 119.477 15.2521C119.479 15.324 119.479 15.7655 119.479 15.7655C118.98 14.9809 118.177 14.4348 117.642 14.2765C116.203 13.8493 114.702 14.228 113.569 15.8128C112.669 17.0722 112.079 18.8394 111.912 20.5322C111.757 22.11 111.786 23.4508 111.998 24.5802C111.769 25.7112 111.111 26.8939 110.367 26.8939C109.416 26.8939 108.875 26.0528 108.875 22.2083C108.875 19.9658 108.942 18.9906 108.975 17.3685C108.995 16.4342 109.032 15.7166 109.029 15.554C109.022 15.0547 108.159 14.803 107.757 14.7098C107.337 14.6124 106.974 14.5769 106.695 14.5974C106.327 14.6248 106.069 14.9539 106.069 15.1994V15.7655C105.57 14.9809 104.767 14.4348 104.232 14.2765C102.793 13.8493 101.3 14.2341 100.159 15.8128C99.415 16.8422 98.8126 17.9835 98.5025 20.5098C98.4129 21.2398 98.3734 21.9236 98.3785 22.5625C98.0818 24.3771 96.7715 26.4684 95.6993 26.4684C95.072 26.4684 94.4745 25.2518 94.4745 22.6587C94.4745 19.2046 94.6885 14.2868 94.7245 13.8128C94.7245 13.8128 96.0789 13.7898 96.3412 13.7868C97.017 13.7793 97.6289 13.7953 98.5286 13.7493C98.98 13.7263 99.4148 12.1065 98.9489 11.906C98.738 11.8153 97.2456 11.7358 96.6543 11.7232C96.1569 11.712 94.772 11.6095 94.772 11.6095C94.772 11.6095 94.8962 8.34514 94.9253 8.0003C94.9499 7.7127 94.578 7.56491 94.3648 7.47495C93.8461 7.25583 93.3824 7.15065 92.8325 7.03728C92.0728 6.88055 91.728 7.03386 91.6608 7.67523C91.5594 8.64814 91.5069 11.4986 91.5069 11.4986C90.9492 11.4986 89.0451 11.3896 88.4874 11.3896C87.9691 11.3896 87.4101 13.6179 88.1264 13.6452C88.9506 13.6772 90.3868 13.7048 91.339 13.7335C91.339 13.7335 91.2966 18.7325 91.2966 20.2758C91.2966 20.44 91.2971 20.598 91.2983 20.7515C90.7743 23.4829 88.9283 24.9583 88.9283 24.9583C89.3247 23.1514 88.515 21.7944 87.0567 20.6458C86.5192 20.2224 85.4586 19.4212 84.2717 18.5431C84.2717 18.5431 84.9591 17.8655 85.5687 16.5023C86.0006 15.5368 86.0193 14.4319 84.9589 14.1883C83.2073 13.7856 81.7627 15.072 81.3318 16.4455C80.998 17.5097 81.1761 18.299 81.83 19.1194C81.8777 19.1793 81.9295 19.2404 81.9829 19.302C81.5875 20.0641 81.0443 21.0903 80.5841 21.8861C79.3069 24.0956 78.3424 25.8432 77.6131 25.8432C77.0303 25.8432 77.0383 24.0689 77.0383 22.4077C77.0383 20.9756 77.1441 18.8225 77.2285 16.5933C77.2565 15.856 76.8877 15.436 76.2697 15.0556C75.8942 14.8245 75.0929 14.3701 74.629 14.3701C73.9343 14.3701 71.9301 14.4647 70.0364 19.9424C69.7977 20.6329 69.3289 21.8909 69.3289 21.8909L69.3692 15.3037C69.3692 15.1492 69.2868 14.9997 69.0985 14.8976C68.7794 14.7245 67.9271 14.3701 67.1693 14.3701C66.8083 14.3701 66.6279 14.5381 66.6279 14.8728L66.5618 25.1788C66.5618 25.9619 66.5821 26.8754 66.6597 27.2749C66.7367 27.6751 66.8617 28.0003 67.0165 28.1939C67.171 28.3872 67.3498 28.5346 67.6446 28.5955C67.9189 28.652 69.4209 28.8448 69.4991 28.2708C69.5927 27.5828 69.5961 26.8387 70.3849 24.0636C71.6129 19.7431 73.2138 17.635 73.9667 16.8864C74.0981 16.7555 74.2484 16.7477 74.2411 16.9619C74.2092 17.9089 74.0962 20.276 74.0199 22.2869C73.816 27.6682 74.795 28.6656 76.194 28.6656C77.2643 28.6656 78.773 27.602 80.3903 24.9102C81.3984 23.2326 82.3774 21.5877 83.081 20.4021C83.5711 20.856 84.121 21.3442 84.6709 21.866C85.9483 23.0783 86.3677 24.2304 86.0895 25.3233C85.8766 26.1589 85.0751 27.02 83.6486 26.1831C83.2328 25.939 83.0551 25.7504 82.6372 25.4749C82.4126 25.3271 82.0698 25.2828 81.8642 25.4378C81.3299 25.8405 81.0245 26.3529 80.8501 26.9871C80.6804 27.6041 81.2984 27.9303 81.939 28.2156C82.4906 28.4612 83.6761 28.6837 84.4322 28.709C87.3779 28.8075 89.738 27.2867 91.3806 23.3635C91.6749 26.7516 92.9263 28.6689 95.1009 28.6689C96.5546 28.6689 98.0122 26.7898 98.6496 24.9412C98.8325 25.6948 99.1034 26.3499 99.4532 26.9041C101.129 29.5589 104.379 28.9875 106.012 26.7333C106.516 26.0368 106.594 25.7863 106.594 25.7863C106.832 27.9149 108.546 28.6588 109.527 28.6588C110.626 28.6588 111.761 28.1392 112.557 26.3484C112.648 26.5395 112.75 26.7251 112.863 26.9043C114.538 29.559 117.789 28.9877 119.422 26.7335C119.498 26.6276 119.565 26.5317 119.624 26.4456L119.672 27.844L118.169 29.2226C115.649 31.5319 113.735 33.2835 113.594 35.3233C113.415 37.9241 115.523 38.8908 117.12 39.0174C118.813 39.1519 120.266 38.2157 121.158 36.9054C121.942 35.7524 122.456 33.2704 122.418 30.8188C122.403 29.8371 122.378 28.589 122.359 27.2511C123.243 26.224 124.24 24.9256 125.157 23.4063C126.157 21.7501 127.229 19.5264 127.778 17.7957C127.778 17.7957 128.709 17.8037 129.702 17.7387C130.02 17.7179 130.111 17.7826 130.053 18.0158C129.982 18.2971 128.797 22.8657 129.878 25.909C130.618 27.9923 132.286 28.6626 133.275 28.6626C134.433 28.6626 135.54 27.7884 136.133 26.4903C136.205 26.635 136.28 26.775 136.361 26.9043C138.037 29.559 141.276 28.9844 142.92 26.7335C143.291 26.2257 143.501 25.7865 143.501 25.7865C143.854 27.9895 145.567 28.67 146.549 28.67C147.571 28.67 148.541 28.251 149.328 26.3887C149.361 27.2089 149.412 27.8791 149.494 28.0905C149.544 28.2198 149.834 28.382 150.046 28.4604C150.981 28.807 151.935 28.6432 152.287 28.5719C152.532 28.5224 152.722 28.3263 152.748 27.82C152.817 26.4904 152.775 24.2567 153.178 22.5964C153.854 19.8102 154.486 18.7293 154.785 18.1944C154.953 17.8946 155.142 17.8452 155.148 18.1625C155.162 18.8044 155.194 20.6895 155.457 23.2223C155.649 25.085 155.906 26.1861 156.104 26.5346C156.668 27.5309 157.364 27.578 157.931 27.578C158.292 27.578 159.047 27.4786 158.979 26.8444C158.946 26.5353 159.004 24.6251 159.671 21.8802C160.107 20.0877 160.833 18.4683 161.095 17.876C161.191 17.6576 161.236 17.8298 161.235 17.8633C161.18 19.0977 161.056 23.1354 161.559 25.3437C162.24 28.3354 164.212 28.67 164.899 28.67C166.366 28.67 167.566 27.5541 167.97 24.6177C168.069 23.9103 167.925 23.3646 167.493 23.3646V23.3646ZM106.039 21.5493C105.955 23.1033 105.652 24.4024 105.165 25.346C104.285 27.0538 102.543 27.5954 101.775 25.1276C101.222 23.3482 101.41 20.9218 101.641 19.6113C101.982 17.666 102.838 16.287 104.174 16.4177C105.547 16.552 106.214 18.3158 106.039 21.5493V21.5493ZM119.449 21.5717C119.37 23.0392 118.99 24.5133 118.575 25.3462C117.718 27.0658 115.927 27.6033 115.185 25.1278C114.678 23.4363 114.799 21.2472 115.05 19.868C115.376 18.0782 116.166 16.4179 117.584 16.4179C118.963 16.4177 119.643 17.9306 119.449 21.5717V21.5717ZM119.799 31.5832C119.78 34.2602 119.359 36.6073 118.456 37.289C117.174 38.2557 115.452 37.5306 115.808 35.5772C116.124 33.8486 117.616 32.0833 119.803 29.9263C119.802 29.9263 119.807 30.4182 119.799 31.5832V31.5832ZM142.947 21.5873C142.873 23.1984 142.516 24.4577 142.073 25.346C141.217 27.0656 139.438 27.5995 138.684 25.1276C138.272 23.7802 138.253 21.5297 138.549 19.6493C138.85 17.7339 139.691 16.287 141.083 16.4177C142.456 16.5465 143.099 18.3158 142.947 21.5873V21.5873Z" fill="#2D2D2D"/>
</g>
<defs>
<radialGradient id="paint0_radial_800_50" cx="0" cy="0" r="1" gradientUnits="userSpaceOnUse" gradientTransform="translate(5.58876 39.1237) scale(50.7852)">
<stop offset="0.09" stop-color="#FA8F21"/>
<stop offset="0.78" stop-color="#D82D7E"/>
</radialGradient>
<radialGradient id="paint1_radial_800_50" cx="0" cy="0" r="1" gradientUnits="userSpaceOnUse" gradientTransform="translate(30.7066 37.8393) scale(44.6914)">
<stop offset="0.64" stop-color="#8C3AAA" stop-opacity="0"/>
<stop offset="1" stop-color="#8C3AAA"/>
</radialGradient>
</defs>
</svg>
