<svg width="170" height="40" viewBox="0 0 170 40" fill="none" xmlns="http://www.w3.org/2000/svg">
<mask id="mask0_800_71" style="mask-type:alpha" maskUnits="userSpaceOnUse" x="0" y="0" width="170" height="40">
<rect x="0.5" y="0.5" width="169" height="39" fill="#C4C4C4" stroke="black"/>
</mask>
<g mask="url(#mask0_800_71)">
<path d="M25 9.43004H29.6913V26.3974H38.2363V30.6602H25V9.43004ZM40.3307 16.2839H44.7707V30.6602H40.3307V16.2839ZM42.5926 9.0957C44.0167 9.0957 45.1896 10.2659 45.1896 11.6868C45.1896 13.1077 44.0167 14.2779 42.5926 14.2779C41.1684 14.2779 39.9956 13.1077 39.9956 11.6868C39.9956 10.2659 41.0846 9.0957 42.5926 9.0957ZM63.4523 9.43004H67.9761V22.1347L73.0025 16.2839H78.5316L72.6674 22.8869L78.3641 30.6602H72.7512L67.9761 23.5556V30.6602H63.4523V9.43004ZM47.2839 16.2839H51.5564V18.2063H51.6402C52.2266 17.0361 53.7345 15.8659 55.9126 15.8659C60.4364 15.8659 61.2742 18.8749 61.2742 22.7198V30.5766H56.8341V23.5556C56.8341 21.8839 56.8341 19.7108 54.4885 19.7108C52.1428 19.7108 51.8077 21.5496 51.8077 23.3884V30.493H47.3677V16.2839H47.2839Z" fill="#2D2D2D"/>
<path d="M87.9148 21.802C87.9148 20.2975 86.742 19.0437 85.1503 19.0437C83.2235 19.0437 82.1344 20.381 81.9669 21.802H87.9148ZM91.6847 28.1543C90.2605 29.9931 87.9148 30.9961 85.5692 30.9961C81.1291 30.9961 77.5269 27.9871 77.5269 23.39C77.5269 18.793 81.1291 15.784 85.5692 15.784C89.7579 15.784 92.3549 18.793 92.3549 23.39V24.811H81.9669C82.302 26.4826 83.6424 27.5692 85.3178 27.5692C86.742 27.5692 87.7473 26.817 88.5013 25.814L91.6847 28.1543ZM101.654 19.7124C99.3919 19.7124 98.0515 21.2169 98.0515 23.39C98.0515 25.5632 99.3919 27.0677 101.654 27.0677C103.916 27.0677 105.256 25.5632 105.256 23.39C105.256 21.2169 103.916 19.7124 101.654 19.7124ZM109.361 30.6618H105.256V28.7394H105.172C104.502 29.7424 102.743 30.9961 100.732 30.9961C96.4598 30.9961 93.6115 27.9035 93.6115 23.5572C93.6115 19.5452 96.1247 15.8676 100.23 15.8676C102.073 15.8676 103.832 16.3691 104.837 17.79H104.921V9.43164H109.361V30.6618Z" fill="#2D2D2D"/>
<path d="M141.782 5H116.063C114.807 5 113.801 6.003 113.801 7.17316V32.9168C113.801 34.087 114.807 35.09 116.063 35.09H141.782C143.038 35.09 144.044 34.087 144.044 32.9168V7.17316C144.044 6.003 143.038 5 141.782 5Z" fill="#147DB1"/>
<path d="M118.324 16.2804H122.764V30.6567H118.324V16.2804ZM120.586 9.17578C122.01 9.17578 123.183 10.3459 123.183 11.7669C123.183 13.1878 122.01 14.3579 120.586 14.3579C119.162 14.3579 117.989 13.1878 117.989 11.7669C117.989 10.2624 119.162 9.17578 120.586 9.17578ZM125.613 16.2804H129.885V18.2028H129.969C130.555 17.0326 132.063 15.8624 134.241 15.8624C138.765 15.8624 139.603 18.8714 139.603 22.7163V30.5731H135.163V23.5521C135.163 21.8804 135.163 19.7073 132.817 19.7073C130.472 19.7073 130.137 21.5461 130.137 23.3849V30.4895H125.696V16.2804H125.613Z" fill="white"/>
</g>
</svg>
