<svg width="170" height="40" viewBox="0 0 170 40" fill="none" xmlns="http://www.w3.org/2000/svg">
<mask id="mask0_800_115" style="mask-type:alpha" maskUnits="userSpaceOnUse" x="0" y="0" width="170" height="40">
<rect x="0.5" y="0.5" width="169" height="39" fill="#C4C4C4" stroke="black"/>
</mask>
<g mask="url(#mask0_800_115)">
<path d="M68.5081 16.7291C68.5081 13.2541 71.0418 10.8276 75.6461 10.8276C78.4556 10.8276 80.7545 11.7246 82 12.6033C82.1782 12.7288 82.4962 13.0332 82.3056 13.5993C82.0612 14.209 81.613 15.1259 81.2915 15.7216C81.1044 16.0687 80.6265 16.0229 80.3816 15.8989C79.4945 15.4493 78.0393 14.6888 76.7026 14.5486C76.3641 14.5117 76.0236 14.497 75.6832 14.5045C74.506 14.5307 73.5224 14.9395 73.176 15.8377C73.1082 16.0076 73.0703 16.1881 73.0642 16.371C73.0318 17.5545 74.679 17.9825 76.6745 18.3254C80.3842 18.9609 83.1908 20.0486 83.1908 23.8669C83.1908 27.1095 80.6138 30.0399 75.5645 29.9501C72.2359 29.8828 69.8744 28.7581 68.6089 27.6667C68.5658 27.6296 68.0841 27.139 68.3423 26.549C68.6378 25.7894 69.1366 24.9189 69.528 24.4567C69.7456 24.1598 70.3199 24.1126 70.6185 24.2977C71.6616 24.9459 73.3782 25.9852 75.357 26.0542C75.5132 26.0596 75.668 26.0605 75.8199 26.0565C77.5999 26.0134 78.6767 25.3384 78.6542 24.2015C78.635 23.1999 77.2237 22.6148 74.9764 22.1913C71.3921 21.5161 68.5086 20.3347 68.5086 16.7291H68.5081ZM101.071 21.677C98.5431 21.7101 96.2257 22.4009 96.1588 24.3762C96.1581 25.9437 97.4296 26.7136 99.2143 26.6128C100.926 26.4479 102.232 25.7054 102.807 24.7203C103.02 24.3551 103.052 22.9889 103.039 22.4049C103.036 22.2806 102.79 22.0454 102.682 22.0002C102.145 21.7739 101.748 21.704 101.07 21.6765L101.071 21.677ZM92.6604 13.7177C93.8423 12.6601 96.1858 11.0138 99.9206 11.1005C104.849 11.203 107.453 13.5137 107.696 19.0411C107.796 21.3206 107.63 27.6786 107.591 29.2627C107.585 29.49 107.508 29.6471 107.201 29.653C106.39 29.6856 104.515 29.6727 103.653 29.6614C103.218 29.6403 103.168 29.4246 103.162 29.1987C103.159 29.051 103.146 28.6129 103.137 28.2558C103.132 28.0663 102.954 28.0717 102.908 28.1202C101.752 29.3547 99.8587 29.9508 97.8452 29.9508C94.7848 29.9508 91.7338 28.1505 91.7432 24.5852C91.7526 20.9338 94.3416 19.1328 97.1858 18.7081C99.007 18.437 101.06 18.6781 102.614 19.2958C102.714 19.3356 102.917 19.278 102.919 19.137C102.925 18.6717 102.902 17.7851 102.813 17.3648C102.585 16.294 101.692 15.4324 99.8151 15.2003C99.4286 15.1527 99.0396 15.137 98.65 15.1679C97.1583 15.2852 95.3631 16.4483 94.6197 16.8838C94.4448 16.9861 94.1709 16.9113 94.0822 16.7971C93.6484 16.2366 92.5579 14.5973 92.4721 14.3354C92.3863 14.0742 92.5073 13.8542 92.6599 13.7168L92.6604 13.7177V13.7177ZM109.321 20.5148C109.291 15.4224 112.84 11.1263 118.601 11.0886C122.196 11.0651 124.808 12.695 125.268 13.4637C125.362 13.6443 125.314 13.7951 125.249 13.9768C124.945 14.6194 124.176 15.8609 123.628 16.5644C123.395 16.8641 123.142 16.6073 122.847 16.4115C122.031 15.8675 120.479 15.2022 118.951 15.2022C116.18 15.2026 114.117 17.1026 114.14 20.5983C114.161 23.9527 116.138 25.7962 118.961 25.863C120.437 25.9001 121.866 25.0519 122.636 24.357C122.877 24.1462 123.127 24.2517 123.403 24.4675C123.945 25.0211 124.722 25.8759 125.153 26.4643C125.435 26.7912 125.224 27.1111 125.122 27.2396C123.953 28.7187 121.696 29.9635 118.708 29.9804C112.453 30.0242 109.35 25.6259 109.321 20.5155L109.321 20.5148ZM139.18 29.7508C139.474 29.7287 142.607 29.2963 143.569 29.0761C143.808 29.0217 143.893 28.8209 143.759 28.6221C143.222 27.8168 141.81 25.5298 140.331 23.4825C138.971 21.6001 137.538 19.9444 137.074 19.3075C136.961 19.1527 136.967 19.0003 137.09 18.8802C137.972 18.0172 141.662 14.3999 143.049 12.9061C143.586 12.3249 143.263 12.0749 142.807 11.9392C141.926 11.6765 140.501 11.3491 139.69 11.1782C139.349 11.1059 138.937 11.1313 138.638 11.4385C137.252 12.7318 133.019 16.98 131.755 18.2499C131.528 18.479 131.395 18.4281 131.394 18.1007C131.384 15.6524 131.336 5.17023 131.248 3.4461C131.242 3.21815 130.968 3.04508 130.813 3.03688C130.019 2.99537 128.012 2.98341 127.221 3.02984C126.999 3.05493 126.787 3.28077 126.768 3.47166C126.585 6.22858 126.845 26.4664 126.954 29.2975C126.961 29.5022 127.114 29.6609 127.308 29.6724C128.097 29.7182 130.049 29.7151 130.961 29.698C131.409 29.698 131.464 29.3828 131.464 29.3828L131.531 23.9522C131.531 23.9522 131.578 23.7107 131.652 23.631C131.974 23.2851 132.862 22.3325 133.241 21.9643C133.332 21.8759 133.476 21.8822 133.569 22.0072C134.019 22.6146 135.303 24.5892 136.493 26.3527C137.587 27.9727 138.607 29.4105 138.679 29.512C138.843 29.7465 139.036 29.7559 139.181 29.7515V29.7508H139.18ZM85.8917 29.732C86.1673 29.7412 88.2579 29.7388 89.1842 29.7376C89.4961 29.7437 89.6582 29.5076 89.6685 29.2991C89.8653 25.3298 89.7811 6.43143 89.6568 3.44727C89.6465 3.18931 89.536 3.09246 89.3599 3.069C88.5649 2.96254 86.3056 2.98739 85.5814 3.17688C85.4398 3.2137 85.3563 3.32134 85.3519 3.4597C85.1746 11.1517 85.2942 28.8854 85.3317 29.2212C85.369 29.5575 85.5449 29.7203 85.8922 29.732H85.8917V29.732Z" fill="#443642"/>
<path d="M29.9391 21.839C28.6507 21.8489 27.5593 21.0811 27.1569 19.8827C27.142 19.8375 27.128 19.7919 27.1151 19.746C26.6766 18.2114 27.5269 16.6059 29.051 16.0918L53.4965 7.90197C53.7868 7.818 54.0872 7.77413 54.3893 7.77158C55.7119 7.76127 56.8334 8.54594 57.2456 9.76963L57.2822 9.88782C57.7395 11.4863 56.6033 12.913 55.242 13.3703C55.241 13.371 54.9934 13.4547 30.932 21.6699C30.6122 21.779 30.277 21.836 29.9391 21.839V21.839Z" fill="#70CADB"/>
<path d="M34.014 33.8619C32.7155 33.8712 31.6203 33.1142 31.2226 31.933C31.2075 31.8881 31.1934 31.8428 31.1804 31.7972C30.7358 30.2443 31.5852 28.6219 33.1144 28.1072L57.5608 19.8423C57.8767 19.7368 58.2029 19.6828 58.531 19.6798C59.833 19.6699 60.977 20.4654 61.3806 21.66L61.4181 21.7843C61.6542 22.61 61.5147 23.538 61.0452 24.2703C60.6953 24.8149 59.5917 25.2942 59.5917 25.2942L35.0524 33.6848C34.7177 33.7981 34.3673 33.858 34.014 33.8623V33.8619V33.8619Z" fill="#E01765"/>
<path d="M54.364 33.914C53.7303 33.9201 53.111 33.7254 52.5947 33.358C52.0785 32.9905 51.6918 32.469 51.49 31.8683L43.3314 7.63388L43.2906 7.49786C42.8485 5.95243 43.6986 4.3404 45.2222 3.82682C45.5271 3.72434 45.8423 3.67087 46.1596 3.66805C46.6309 3.66454 47.0871 3.77077 47.5167 3.983C47.8706 4.15802 48.1864 4.40127 48.4459 4.69877C48.7055 4.99627 48.9037 5.34215 49.0291 5.71651L57.187 29.9489L57.2107 30.0267C57.6689 31.6312 56.8207 33.2442 55.2971 33.7578C54.9961 33.8583 54.6813 33.911 54.364 33.914V33.914Z" fill="#E8A723"/>
<path d="M42.2366 37.9956C41.6026 38.0017 40.9829 37.8069 40.4664 37.4391C39.95 37.0713 39.5632 36.5495 39.3615 35.9484L31.2049 11.7149C31.0785 11.341 31.0271 10.9459 31.0537 10.5521C31.0802 10.1584 31.1841 9.77373 31.3595 9.42019C31.5349 9.06665 31.7782 8.75118 32.0757 8.49182C32.3732 8.23247 32.7188 8.03433 33.093 7.90875C33.3944 7.808 33.7097 7.75514 34.0275 7.7521C34.6613 7.74584 35.2807 7.9404 35.7971 8.30789C36.3135 8.67537 36.7002 9.19691 36.9019 9.79774L45.0587 34.0322C45.1852 34.4062 45.2365 34.8015 45.2099 35.1955C45.1833 35.5894 45.0793 35.9742 44.9037 36.3278C44.7281 36.6815 44.4844 36.997 44.1867 37.2563C43.8889 37.5156 43.543 37.7136 43.1685 37.839C42.8677 37.9398 42.5529 37.9926 42.2357 37.9954H42.2366V37.9956Z" fill="#3EB890"/>
<path d="M50.3418 28.4561L56.0307 26.511L54.171 20.9883L48.4756 22.9129L50.3418 28.4561V28.4561Z" fill="#CC2027"/>
<path d="M38.2329 32.5977L43.9212 30.6529L42.0475 25.0879L36.3535 27.0132L38.2329 32.5977V32.5977Z" fill="#361238"/>
<path d="M46.2918 16.4281L51.981 14.4856L50.1431 9.02734L44.4434 10.937L46.2918 16.4281Z" fill="#65863A"/>
<path d="M34.1815 20.5622L39.8707 18.6197L38.0103 13.0918L32.3105 15.0012L34.1815 20.5622V20.5622Z" fill="#1A937D"/>
</g>
</svg>
