<svg width="170" height="40" viewBox="0 0 170 40" fill="none" xmlns="http://www.w3.org/2000/svg">
<mask id="mask0_800_103" style="mask-type:alpha" maskUnits="userSpaceOnUse" x="0" y="0" width="170" height="40">
<rect x="0.5" y="0.5" width="169" height="39" fill="#C4C4C4" stroke="black"/>
</mask>
<g mask="url(#mask0_800_103)">
<path d="M43.0234 30.2583C43.0234 35.0205 39.1629 38.8809 34.4007 38.8809H13.6227C8.8605 38.8809 5 35.0205 5 30.2583V9.62256C5 4.8605 8.8605 1 13.6227 1H34.4009C39.1631 1 43.0236 4.8605 43.0236 9.62256V30.2583H43.0234Z" fill="#EEE312" stroke="#1A1A1A" stroke-width="0.691445" stroke-linecap="round" stroke-linejoin="round"/>
<path d="M23.9112 33.2374C26.5089 33.2374 28.4528 31.3245 28.4528 31.3245C28.6235 31.1817 28.8177 31.0451 28.8177 31.0451C30.373 30.0235 32.8941 30.7599 32.8941 30.7599C33.8102 30.9769 33.8366 30.2848 33.8366 30.2848L33.9073 29.5007C33.9742 28.7318 35.1559 28.74 35.1559 28.74C36.7121 28.6791 37.3672 28.0418 37.6371 27.5923C37.9268 27.1611 37.3793 27.0392 37.3793 27.0392C33.6242 25.9908 31.8022 22.4267 31.8022 22.4267C30.9539 20.9376 32.1165 20.3354 32.1165 20.3354C32.4307 20.1136 33.9699 19.6066 33.9699 19.6066C35.2402 19.0972 34.8182 18.2126 34.8182 18.2126C34.347 17.2618 33.2475 17.8957 33.2475 17.8957C32.7276 18.1716 32.3364 18.149 32.3364 18.149C31.468 18.1656 31.3636 17.9796 31.3636 17.9796L31.3934 13.8557C31.3934 10.0845 28.0671 7.02734 23.964 7.02734H23.8928C19.7894 7.02734 16.4633 10.0845 16.4633 13.8557L16.4931 17.9796C16.4931 17.9796 16.3887 18.1656 15.5203 18.149C15.5203 18.149 15.1291 18.1716 14.6093 17.8957C14.6093 17.8957 13.5099 17.262 13.0386 18.2126C13.0386 18.2126 12.6162 19.0972 13.8868 19.6066C13.8868 19.6066 15.4262 20.1136 15.7403 20.3354C15.7403 20.3354 16.9028 20.9374 16.0545 22.4267C16.0545 22.4267 14.2329 25.9908 10.4776 27.0392C10.4776 27.0392 9.92996 27.161 10.22 27.5923C10.4899 28.0418 11.1452 28.6791 12.7008 28.74C12.7008 28.74 13.8827 28.7318 13.9496 29.5007L14.0205 30.2848C14.0205 30.2848 14.0469 30.9769 14.9628 30.7599C14.9628 30.7599 17.4839 30.0235 19.039 31.0451C19.039 31.0451 19.2334 31.1817 19.4043 31.3245C19.4043 31.3245 21.3482 33.2374 23.9459 33.2374H23.9112Z" fill="white" stroke="#1A1A1A" stroke-width="0.70231" stroke-linecap="round" stroke-linejoin="round"/>
<path d="M52.5992 25.0903C53.7443 25.6645 56.3263 26.5371 58.1422 26.5371C60.0977 26.5371 61.1312 25.7443 61.1312 24.5417C61.1312 23.3933 60.2374 22.7373 57.975 21.9445C54.846 20.8784 52.807 19.1834 52.807 16.5044C52.807 13.3606 55.4888 10.955 59.9306 10.955C62.0533 10.955 63.6178 11.3923 64.7354 11.8843L64.7694 15.5695C64.0152 15.214 61.6902 14.3721 59.8468 14.3721C58.0029 14.3721 57.1092 15.1921 57.1092 16.1489C57.1092 17.324 58.1709 17.8435 60.6009 18.7457C63.9254 19.9487 65.49 21.6437 65.49 24.2404C65.49 27.3295 63.0592 29.9814 57.8916 29.9814C55.7402 29.9814 53.617 29.4072 52.5557 28.833L52.5992 25.0903ZM102.034 16.5256V18.5984C102.822 17.1384 103.96 16.2917 106.414 16.2917C109.34 16.2917 111.641 18.5545 111.641 22.8191C111.641 27.6851 108.729 29.9814 105.75 29.9814C104.137 29.9814 102.88 29.325 102.278 28.4504L101.975 28.0589V35.5927H98.0683V16.5543L102.034 16.5256ZM101.96 24.0361C101.96 24.3769 101.988 24.6893 102.045 24.9439C102.329 26.1078 103.322 26.9872 104.572 26.9872C106.445 26.9872 107.552 25.4267 107.552 23.0709C107.552 20.8576 106.559 19.183 104.628 19.183C103.407 19.183 102.329 20.0911 102.045 21.3687C101.988 21.5958 101.96 21.8795 101.96 22.1348V24.0361ZM124.336 29.3733C123.597 29.7013 122.203 30.0021 120.618 30.0021C116.299 30.0021 113.538 27.4513 113.538 23.2417C113.538 19.3322 116.216 16.2985 121.192 16.2985C122.285 16.2985 123.488 16.4897 124.363 16.818L124.342 20.0009C123.553 19.5337 122.477 19.3326 121.383 19.3326C118.911 19.3326 117.569 20.8907 117.597 23.0781C117.597 25.5384 118.969 26.8232 121.465 26.8232C122.449 26.8232 123.684 26.3484 124.312 26.0747L124.336 29.3733ZM134.835 16.2925C138.147 16.2925 139.547 17.8335 139.51 21.8623V29.6809H135.448V22.3272C135.448 20.5775 134.754 19.3749 133.195 19.3749C132.102 19.3749 131.317 20.0855 131.016 20.8237C130.907 21.0974 130.879 21.4525 130.879 21.7534V29.6809H126.984V10.2715H130.916V18.4919C132.182 16.1593 134.835 16.2925 134.835 16.2925V16.2925ZM161.708 12.6775V16.5846H164.688V19.5947H161.708V24.5074C161.708 26.2534 161.998 26.8583 163.348 26.8583C163.922 26.8583 164.168 26.8312 164.578 26.7494L164.606 29.5999C164.059 29.8186 163.075 29.9826 161.899 29.9826C160.56 29.9826 159.563 29.4906 158.906 28.8071C158.141 28.0143 157.758 26.7294 157.758 24.8429V19.5955H155.736V16.5854H157.758V13.7991L161.708 12.6775ZM75.964 16.0124C74.008 16.0124 72.7001 16.9721 72.0202 17.7801V16.2618H67.9004V19.6761C67.8948 19.969 67.8912 20.2675 67.8912 20.5779V29.6809H67.9004V29.6945L67.9068 29.6809H72.1371V21.972C72.1371 21.5894 72.1933 21.2067 72.3047 20.933C72.584 20.1677 73.2826 19.3749 74.4557 19.3749C75.9923 19.3749 76.6068 20.5504 76.6068 22.2729V29.6809H80.853V21.7534C80.8522 17.8168 79.1864 16.0124 75.964 16.0124V16.0124ZM94.7657 29.6949V21.7805C94.7657 18.6367 93.3656 16.0124 88.9098 16.0124C86.7241 16.0124 85.0299 16.5411 84.0331 17.0255V20.206C84.9381 19.6658 86.8382 18.9974 88.1713 18.9974C90.2218 18.9974 90.6595 20.3944 90.6595 21.105V21.2961C85.93 21.269 82.7587 22.409 82.7587 25.8808C82.7587 28.0131 84.3715 29.9814 87.0776 29.9814C88.6633 29.9814 90.0299 29.4072 90.9049 28.341H90.9871L90.9572 29.6805H94.0515L94.7657 29.6949ZM90.6112 24.9698C90.6112 25.2148 90.5829 25.4586 90.527 25.6757C90.2457 26.5168 89.3739 27.1955 88.3045 27.1955C87.3485 27.1955 86.6171 26.68 86.6171 25.6218C86.6171 24.021 88.3608 23.5054 90.6112 23.533V24.9698ZM153.719 29.6949V21.7805C153.719 18.6367 152.319 16.0124 147.864 16.0124C145.678 16.0124 143.984 16.5411 142.987 17.0255V20.206C143.892 19.6658 145.792 18.9974 147.125 18.9974C149.175 18.9974 149.613 20.3944 149.613 21.105V21.2961C144.884 21.269 141.712 22.409 141.712 25.8808C141.712 28.0131 143.325 29.9814 146.031 29.9814C147.617 29.9814 148.984 29.4072 149.859 28.341H149.941L149.911 29.6805H153.005L153.719 29.6949ZM149.565 24.9698C149.565 25.2148 149.537 25.4586 149.481 25.6757C149.199 26.5168 148.328 27.1955 147.258 27.1955C146.302 27.1955 145.571 26.68 145.571 25.6218C145.571 24.021 147.315 23.5054 149.565 23.533V24.9698Z" fill="#2D2D2D"/>
</g>
</svg>
