<svg width="170" height="40" viewBox="0 0 170 40" fill="none" xmlns="http://www.w3.org/2000/svg">
<mask id="mask0_800_75" style="mask-type:alpha" maskUnits="userSpaceOnUse" x="0" y="0" width="170" height="40">
<rect x="0.5" y="0.5" width="169" height="39" fill="#C4C4C4" stroke="black"/>
</mask>
<g mask="url(#mask0_800_75)">
<path d="M19.3164 33.9282L19.4426 34.2846C19.4265 34.2438 19.3803 34.1191 19.3164 33.9282ZM24.3117 25.8518C24.5334 23.9368 25.2862 22.8646 26.7047 21.7654C28.7344 20.2768 31.2698 21.1189 31.2698 21.1189V16.1236C31.8862 16.1071 32.5028 16.1452 33.1125 16.2375V22.666C33.1125 22.666 30.5778 21.8239 28.5481 23.3133C27.1304 24.4117 26.3761 25.4846 26.1552 27.3996C26.1482 28.4395 26.3353 29.7988 27.1966 30.9741C26.9836 30.8602 26.7666 30.7304 26.5454 30.5846C24.6481 29.2554 24.3025 27.2611 24.3117 25.8518ZM43.5811 6.8872C42.1849 5.29084 41.6569 3.6791 41.466 2.54688H43.2224C43.2224 2.54688 42.8722 5.5156 45.4245 8.43506L45.4599 8.47431C44.772 8.02284 44.1412 7.48995 43.5811 6.8872V6.8872ZM52.0424 11.413V17.7122C52.0424 17.7122 49.801 17.6206 48.1423 17.1804C45.8263 16.5646 44.3377 15.6202 44.3377 15.6202C44.3377 15.6202 43.3094 14.9467 43.2263 14.8997V27.9076C43.2263 28.6319 43.0362 30.4407 42.4566 31.9493C41.7 33.9228 40.5323 35.2182 40.3176 35.483C40.3176 35.483 38.8975 37.234 36.3921 38.4132C34.1338 39.4769 32.1511 39.45 31.5584 39.4769C31.5584 39.4769 28.131 39.6186 25.0468 37.5273C24.3799 37.0664 23.7573 36.5443 23.1872 35.9679L23.2026 35.9794C26.2876 38.0707 29.7142 37.9291 29.7142 37.9291C30.3077 37.9021 32.2904 37.9291 34.5479 36.8654C37.051 35.6862 38.4734 33.9351 38.4734 33.9351C38.6858 33.6703 39.8588 32.3749 40.6124 30.4007C41.1904 28.8928 41.3821 27.0833 41.3821 26.359V13.3526C41.4652 13.4004 42.4927 14.0739 42.4927 14.0739C42.4927 14.0739 43.9821 15.019 46.2981 15.634C47.9576 16.0743 50.1982 16.1659 50.1982 16.1659V11.2298C50.9648 11.4092 51.6183 11.4577 52.0424 11.413V11.413Z" fill="#EE1D52"/>
<path d="M50.2002 11.2298V16.1643C50.2002 16.1643 47.9596 16.0728 46.3001 15.6325C43.9841 15.0167 42.4948 14.0723 42.4948 14.0723C42.4948 14.0723 41.4672 13.3988 41.3841 13.3511V26.3605C41.3841 27.0848 41.194 28.8944 40.6144 30.4022C39.8578 32.3765 38.6901 33.6719 38.4754 33.9366C38.4754 33.9366 37.0545 35.6877 34.5499 36.8669C32.2924 37.9306 30.3097 37.9037 29.7163 37.9306C29.7163 37.9306 26.2896 38.0722 23.2046 35.981L23.1892 35.9694C22.8635 35.6404 22.5569 35.2929 22.271 34.9288C21.2865 33.6765 20.6831 32.1956 20.5315 31.773C20.5312 31.7712 20.5312 31.7694 20.5315 31.7676C20.2875 31.0334 19.7748 29.27 19.8449 27.562C19.9688 24.5487 20.9848 22.6991 21.2534 22.2357C21.9649 20.9722 22.8902 19.8416 23.9882 18.8945C24.9571 18.0771 26.0553 17.4268 27.2378 16.9702C28.5162 16.4341 29.885 16.1467 31.271 16.1236V21.1189C31.271 21.1189 28.7357 20.2799 26.7067 21.7654C25.2882 22.8646 24.5354 23.9368 24.3138 25.8518C24.3045 27.2611 24.6501 29.2554 26.5459 30.5854C26.767 30.7316 26.9841 30.8615 27.197 30.9749C27.5282 31.424 27.9313 31.8154 28.3901 32.1332C30.242 33.3563 31.7937 33.4417 33.7779 32.6474C35.1011 32.1163 36.097 30.9194 36.5589 29.5933C36.849 28.7651 36.8452 27.9315 36.8452 27.0694V2.54688H41.4634C41.6543 3.6791 42.1823 5.29084 43.5785 6.88719C44.1386 7.48995 44.7694 8.02284 45.4573 8.47431C45.6605 8.69367 46.6996 9.77818 48.0335 10.444C48.7232 10.7881 49.4502 11.0518 50.2002 11.2298V11.2298Z" fill="#202020"/>
<path d="M27.2385 16.9751C26.056 17.4317 24.9578 18.082 23.9889 18.8993C22.8905 19.8486 21.9654 20.9815 21.2549 22.2475C20.9863 22.7093 19.9703 24.5604 19.8463 27.5738C19.7763 29.2818 20.2889 31.0451 20.5329 31.7794C20.5327 31.7812 20.5327 31.783 20.5329 31.7848C20.6869 32.2035 21.288 33.6844 22.2724 34.9406C22.5584 35.3047 22.865 35.6521 23.1907 35.9812C22.1471 35.2595 21.2164 34.3869 20.429 33.3919C19.453 32.1504 18.8511 30.6849 18.6941 30.2523C18.6939 30.2493 18.6939 30.2462 18.6941 30.2431V30.2377C18.4493 29.5042 17.9352 27.7401 18.0068 26.0298C18.1307 23.0164 19.1467 21.1668 19.4153 20.7035C20.1256 19.4374 21.0507 18.3044 22.1493 17.3553C23.118 16.5377 24.2163 15.8874 25.3989 15.4311C26.1366 15.125 26.9051 14.8992 27.6911 14.7576C28.8756 14.5508 30.0854 14.5329 31.2756 14.7045V16.1284C29.8883 16.1511 28.518 16.4385 27.2385 16.9751V16.9751Z" fill="#69C9D0"/>
<path d="M41.4711 2.54863H36.8529V27.0719C36.8529 27.934 36.8529 28.7653 36.5666 29.5958C36.1001 30.9212 35.108 32.1181 33.7856 32.6492C31.8006 33.4466 30.2489 33.3581 28.3978 32.135C27.9382 31.8186 27.5341 31.4285 27.2017 30.9805C28.7788 31.8217 30.1904 31.8071 31.9391 31.1052C33.2607 30.5741 34.2544 29.3772 34.7193 28.051C35.0102 27.2228 35.0064 26.3892 35.0064 25.5279V1H41.3833C41.3833 1 41.3117 1.6096 41.4711 2.54863ZM50.204 9.86691V11.2316C49.4554 11.0533 48.7297 10.7896 48.0412 10.4457C46.7073 9.77993 45.6682 8.69543 45.465 8.47607C45.7008 8.63087 45.9455 8.77171 46.1978 8.89786C47.8195 9.70758 49.4166 9.94927 50.204 9.86691V9.86691Z" fill="#69C9D0"/>
<path d="M120.331 25.7186C120.33 26.0982 120.386 26.4757 120.497 26.8385C120.503 26.8641 120.51 26.8892 120.52 26.9134C120.786 27.7718 121.32 28.5224 122.043 29.0554C122.767 29.5884 123.642 29.8758 124.541 29.8753V34.1335C122.467 34.1335 120.983 34.2067 118.717 32.8705C116.147 31.3463 114.7 28.5591 114.7 25.6654C114.7 22.6802 116.32 19.6899 119.068 18.2489C121.065 17.2039 122.577 17.1973 124.546 17.1973V21.4538C123.429 21.4538 122.357 21.8975 121.568 22.6873C120.778 23.4772 120.334 24.5484 120.334 25.6654L120.331 25.7186Z" fill="#69C9D0"/>
<path d="M128.783 25.7186C128.783 26.0981 128.727 26.4755 128.617 26.8385C128.617 26.8635 128.602 26.8884 128.593 26.9134C128.327 27.7715 127.793 28.5218 127.07 29.0548C126.347 29.5877 125.472 29.8752 124.573 29.8753V34.1335C126.645 34.1335 128.131 34.2067 130.389 32.8705C132.966 31.3463 134.418 28.5591 134.418 25.6654C134.418 22.6802 132.797 19.6899 130.049 18.2489C128.053 17.2039 126.54 17.1973 124.573 17.1973V21.4538C125.69 21.4542 126.761 21.8981 127.55 22.6879C128.34 23.4777 128.783 24.5487 128.783 25.6654V25.7186Z" fill="#EE1D52"/>
<path d="M59.374 13.3398H74.9674L73.5264 17.6297H69.4396V34.0484H64.4259V17.6297H59.374V13.3398ZM100.7 13.3398V17.6297H105.752V34.0484H110.772V17.6297H114.852L116.293 13.3398H100.7ZM78.3603 18.2287C78.8408 18.2284 79.3105 18.0856 79.7098 17.8183C80.1091 17.5511 80.4203 17.1715 80.6038 16.7274C80.7874 16.2834 80.8352 15.7949 80.7411 15.3237C80.6471 14.8524 80.4154 14.4197 80.0754 14.0802C79.7354 13.7407 79.3023 13.5096 78.831 13.4162C78.3597 13.3227 77.8712 13.3712 77.4274 13.5554C76.9836 13.7396 76.6044 14.0512 76.3377 14.4509C76.0711 14.8506 75.9289 15.3204 75.9292 15.8009C75.9292 16.12 75.9921 16.436 76.1143 16.7308C76.2366 17.0255 76.4157 17.2933 76.6415 17.5188C76.8673 17.7443 77.1353 17.923 77.4302 18.0448C77.7252 18.1667 78.0412 18.2291 78.3603 18.2287V18.2287ZM75.9292 34.0484H80.8514V19.946H75.9292V34.0484ZM98.5597 18.1056H92.8023L87.8402 23.0676V13.3565H82.9497L82.9347 34.0484H87.8718V28.657L89.4077 27.2576L94.2 34.0418H99.4782L92.536 24.1209L98.5597 18.1056ZM145.779 24.1243L151.798 18.1056H146.042L141.078 23.0676V13.3565H136.19L136.166 34.0484H141.105V28.657L142.656 27.2576L147.448 34.0418H152.728L145.779 24.1243ZM133.123 25.6668C133.123 30.3427 129.281 34.1349 124.542 34.1349C119.802 34.1349 115.96 30.3427 115.96 25.6668C115.96 20.9909 119.802 17.1987 124.542 17.1987C129.281 17.1987 133.123 20.9926 133.123 25.6701V25.6668ZM128.751 25.6668C128.751 24.8342 128.505 24.0202 128.042 23.3279C127.579 22.6356 126.922 22.096 126.153 21.7773C125.383 21.4587 124.537 21.3753 123.72 21.5378C122.904 21.7002 122.153 22.1012 121.565 22.6899C120.976 23.2787 120.575 24.0288 120.412 24.8455C120.25 25.6621 120.333 26.5086 120.652 27.2779C120.971 28.0471 121.51 28.7047 122.203 29.1672C122.895 29.6298 123.709 29.8767 124.542 29.8767C125.657 29.8767 126.728 29.4337 127.517 28.6449C128.307 27.8561 128.751 26.7861 128.751 25.6701V25.6668Z" fill="#202020"/>
</g>
</svg>
