<svg width="170" height="40" viewBox="0 0 170 40" fill="none" xmlns="http://www.w3.org/2000/svg">
<mask id="mask0_800_51" style="mask-type:alpha" maskUnits="userSpaceOnUse" x="0" y="0" width="170" height="40">
<rect width="170" height="40" fill="#C4C4C4"/>
</mask>
<g mask="url(#mask0_800_51)">
<path d="M76.8496 37.8034C93.4685 37.8034 102.557 24.0302 102.557 12.0865C102.557 11.6954 102.549 11.306 102.531 10.9183C104.3 9.63823 105.826 8.05333 107.038 6.23788C105.419 6.95788 103.677 7.44248 101.85 7.66097C103.715 6.54203 105.147 4.77181 105.823 2.66174C104.049 3.71426 102.109 4.45624 100.085 4.85568C98.4367 3.09881 96.0894 2 93.4903 2C88.5007 2 84.4546 6.04776 84.4546 11.0372C84.4546 11.7466 84.534 12.4363 84.689 13.0982C77.1797 12.7202 70.521 9.12354 66.0646 3.65466C65.262 5.03402 64.8398 6.60169 64.8412 8.19758C64.8412 11.3334 66.4362 14.1017 68.8619 15.7212C67.4271 15.6774 66.0238 15.2897 64.7699 14.5907C64.7686 14.6287 64.7686 14.6656 64.7686 14.7062C64.7686 19.0834 67.883 22.7382 72.0172 23.5663C71.2407 23.7778 70.4395 23.8848 69.6347 23.8843C69.0536 23.8843 68.4871 23.8271 67.9367 23.7214C69.0869 27.3127 72.4224 29.9261 76.377 29.9991C73.2845 32.4238 69.389 33.868 65.1552 33.868C64.435 33.8686 63.7153 33.8268 63 33.7428C66.9987 36.3068 71.7468 37.8028 76.85 37.8028" fill="#1DA1F2"/>
</g>
</svg>
